<svg width="332" height="211" viewBox="0 0 332 211" fill="none" xmlns="http://www.w3.org/2000/svg">
<g clip-path="url(#clip0_229_7504)">
<path d="M55.9149 61.8603C52.7673 61.8603 49.6903 60.926 47.0731 59.1756C44.4559 57.4251 42.416 54.9372 41.2115 52.0263C40.0069 49.1155 39.6917 45.9125 40.3058 42.8223C40.9199 39.7322 42.4356 36.8937 44.6614 34.6658C46.8871 32.438 49.7229 30.9208 52.8101 30.3061C55.8973 29.6914 59.0972 30.0069 62.0053 31.2126C64.9134 32.4183 67.399 34.4601 69.1477 37.0798C70.8965 39.6995 71.8299 42.7795 71.8299 45.9301C71.8251 50.1536 70.1468 54.2027 67.1632 57.1892C64.1796 60.1756 60.1344 61.8555 55.9149 61.8603ZM55.9149 30.6638C52.8984 30.6638 49.9496 31.5591 47.4415 33.2366C44.9333 34.9141 42.9785 37.2984 41.8241 40.088C40.6697 42.8775 40.3677 45.9471 40.9562 48.9085C41.5447 51.8699 42.9973 54.5901 45.1303 56.7251C47.2633 58.8601 49.9809 60.3141 52.9395 60.9032C55.898 61.4922 58.9647 61.1899 61.7516 60.0344C64.5385 58.879 66.9205 56.9222 68.5964 54.4117C70.2723 51.9011 71.1668 48.9495 71.1668 45.9301C71.1622 41.8827 69.5538 38.0023 66.6945 35.1403C63.8353 32.2782 59.9586 30.6684 55.9149 30.6638V30.6638Z" fill="#F2F2F2"/>
<path d="M164.004 52.5677C162.431 52.5677 160.892 52.1006 159.583 51.2253C158.275 50.3501 157.255 49.1062 156.653 47.6507C156.05 46.1953 155.893 44.5938 156.2 43.0487C156.507 41.5037 157.265 40.0844 158.378 38.9705C159.49 37.8566 160.908 37.098 162.452 36.7906C163.996 36.4833 165.596 36.641 167.05 37.2439C168.504 37.8467 169.746 38.8676 170.621 40.1775C171.495 41.4873 171.962 43.0273 171.962 44.6026C171.959 46.7144 171.12 48.7389 169.628 50.2321C168.137 51.7254 166.114 52.5653 164.004 52.5677V52.5677ZM164.004 37.3013C162.562 37.3013 161.151 37.7295 159.952 38.5318C158.752 39.3341 157.817 40.4744 157.265 41.8086C156.713 43.1427 156.569 44.6107 156.85 46.0271C157.132 47.4434 157.826 48.7443 158.846 49.7654C159.867 50.7865 161.166 51.4819 162.581 51.7637C163.996 52.0454 165.463 51.9008 166.796 51.3482C168.129 50.7955 169.268 49.8597 170.069 48.659C170.871 47.4583 171.299 46.0467 171.299 44.6026C171.297 42.6669 170.527 40.811 169.16 39.4423C167.792 38.0735 165.938 37.3035 164.004 37.3013Z" fill="#F2F2F2"/>
<path d="M220.038 91.3974C218.268 91.3974 216.537 90.8718 215.065 89.8872C213.592 88.9026 212.445 87.5031 211.767 85.8658C211.09 84.2284 210.913 82.4267 211.258 80.6885C211.603 78.9503 212.456 77.3537 213.708 76.1005C214.96 74.8473 216.555 73.9939 218.292 73.6481C220.028 73.3024 221.828 73.4798 223.464 74.1581C225.1 74.8363 226.498 75.9848 227.482 77.4584C228.465 78.9319 228.99 80.6644 228.99 82.4367C228.988 84.8124 228.043 87.09 226.365 88.7699C224.687 90.4497 222.412 91.3947 220.038 91.3974V91.3974ZM220.038 74.1397C218.399 74.1397 216.796 74.6263 215.433 75.538C214.07 76.4497 213.007 77.7455 212.38 79.2616C211.753 80.7776 211.588 82.4459 211.908 84.0553C212.228 85.6648 213.018 87.1431 214.177 88.3035C215.336 89.4638 216.813 90.254 218.421 90.5742C220.029 90.8943 221.696 90.73 223.21 90.102C224.725 89.4741 226.019 88.4106 226.93 87.0462C227.841 85.6818 228.327 84.0776 228.327 82.4367C228.325 80.2369 227.451 78.128 225.897 76.5726C224.343 75.0171 222.236 74.1422 220.038 74.1397V74.1397Z" fill="#F2F2F2"/>
<path d="M292.668 182H218.067C217.979 182 217.895 181.965 217.832 181.903C217.77 181.841 217.735 181.756 217.735 181.668C217.735 181.58 217.77 181.496 217.832 181.433C217.895 181.371 217.979 181.336 218.067 181.336H292.668C292.756 181.336 292.84 181.371 292.903 181.433C292.965 181.496 293 181.58 293 181.668C293 181.756 292.965 181.841 292.903 181.903C292.84 181.965 292.756 182 292.668 182Z" fill="#CCCCCC"/>
<path d="M252.503 80.8592C257 80.8592 260.646 77.2098 260.646 72.708C260.646 68.2061 257 64.5567 252.503 64.5567C248.005 64.5567 244.359 68.2061 244.359 72.708C244.359 77.2098 248.005 80.8592 252.503 80.8592Z" fill="#FFB8B8"/>
<path d="M253.348 169.503L249.499 170.811L242.625 156.574L248.306 154.642L253.348 169.503Z" fill="#FFB8B8"/>
<path d="M246.377 170.645L253.8 168.121L255.387 172.799L243.291 176.912C243.082 176.298 242.997 175.648 243.039 175.001C243.081 174.353 243.25 173.721 243.537 173.139C243.824 172.557 244.222 172.037 244.709 171.609C245.196 171.181 245.763 170.853 246.377 170.645V170.645Z" fill="#2F2E41"/>
<path d="M262.044 177.545L257.985 177.749L255.266 162.172L261.258 161.87L262.044 177.545Z" fill="#FFB8B8"/>
<path d="M255.026 176.734L262.856 176.34L263.104 181.274L250.344 181.916C250.312 181.268 250.407 180.62 250.625 180.009C250.843 179.398 251.178 178.835 251.613 178.354C252.048 177.873 252.573 177.482 253.159 177.204C253.744 176.926 254.379 176.766 255.026 176.734V176.734Z" fill="#2F2E41"/>
<path d="M237.886 125.79C238.25 125.465 238.538 125.065 238.731 124.617C238.924 124.169 239.016 123.684 239.001 123.196C238.986 122.708 238.865 122.23 238.645 121.794C238.426 121.359 238.113 120.977 237.73 120.675L241.601 109.466L235.636 110.992L232.875 121.402C232.411 122.08 232.212 122.904 232.315 123.719C232.417 124.534 232.815 125.283 233.433 125.824C234.051 126.365 234.845 126.66 235.666 126.654C236.486 126.647 237.276 126.34 237.886 125.79Z" fill="#FFB8B8"/>
<path d="M261.666 172.848C261.613 172.848 261.561 172.845 261.508 172.84L255.998 172.256C255.659 172.221 255.342 172.072 255.101 171.832C254.86 171.591 254.708 171.276 254.672 170.937L250.413 132.934L247.331 143.333L253.077 163.771C253.135 163.979 253.148 164.198 253.114 164.411C253.08 164.625 253 164.828 252.88 165.008C252.759 165.187 252.601 165.338 252.417 165.451C252.232 165.563 252.026 165.635 251.811 165.659L246.225 166.302C245.869 166.341 245.511 166.252 245.216 166.05C244.92 165.848 244.706 165.547 244.613 165.202L238.509 142.202C238.459 142.012 238.446 141.815 238.472 141.621L241.215 120.979L261.677 122.621L263.157 171.309C263.163 171.509 263.129 171.708 263.057 171.894C262.985 172.081 262.876 172.251 262.737 172.394C262.597 172.538 262.431 172.652 262.247 172.73C262.063 172.808 261.865 172.848 261.666 172.848V172.848Z" fill="#2F2E41"/>
<path d="M254.592 126.151C247.737 126.151 239.975 123.5 239.505 123.337L239.369 123.29L247.103 83.5695L247.245 83.5753C250.31 83.6997 258.674 83.7636 258.758 83.7642L258.908 83.7654L262.132 118.818L262.708 123.945L262.637 124.002C260.665 125.598 257.723 126.151 254.592 126.151Z" fill="#E6E67D"/>
<path d="M242.207 122.718L237.37 120.768L239.836 90.9178C239.895 90.1819 240.119 89.4688 240.49 88.8309C240.862 88.1931 241.372 87.647 241.982 87.2328L244.528 85.4989C244.456 85.2537 244.443 84.995 244.49 84.7439C244.537 84.4928 244.643 84.2564 244.799 84.0543C244.956 83.8522 245.158 83.6901 245.389 83.5812C245.62 83.4724 245.873 83.4199 246.128 83.4281L246.857 83.4516C246.996 83.358 247.159 83.3086 247.326 83.3098C247.494 83.311 247.656 83.3628 247.794 83.4583C247.931 83.5537 248.036 83.6885 248.095 83.8449C248.155 84.0013 248.165 84.172 248.126 84.3346L247.966 87.4971L242.207 122.718Z" fill="#2F2E41"/>
<path d="M239.766 117.367L233.45 117.101L235.496 103.928L237.192 91.5327C237.225 91.0876 237.358 90.6558 237.582 90.2696C237.805 89.8834 238.113 89.5527 238.482 89.3023C238.851 89.0519 239.272 88.8883 239.714 88.8236C240.155 88.7589 240.605 88.7949 241.03 88.9289V88.9289C241.693 89.137 242.261 89.5718 242.635 90.1572C243.01 90.7426 243.166 91.4412 243.077 92.1305L241.36 105.561L239.766 117.367Z" fill="#2F2E41"/>
<path d="M249.767 123.175L249.724 123.042C249.695 122.951 246.848 113.812 251.611 102.906L253.999 91.0166L256.04 83.551C256.078 83.4176 256.147 83.295 256.241 83.1928C256.335 83.0907 256.451 83.0119 256.581 82.9626C256.733 82.9099 256.898 82.9031 257.054 82.9433C257.21 82.9834 257.351 83.0687 257.459 83.1885V83.1885C258.882 82.7705 260.411 82.9236 261.723 83.6152L264.589 85.1266C265.226 85.4626 265.734 86.0008 266.033 86.6569C266.332 87.3129 266.405 88.0497 266.241 88.7517L262.323 105.486L264.228 121.116L249.767 123.175Z" fill="#2F2E41"/>
<path d="M253.938 116.732C254.422 116.785 254.912 116.731 255.374 116.573C255.835 116.416 256.256 116.159 256.608 115.821C256.959 115.483 257.232 115.072 257.408 114.616C257.583 114.161 257.657 113.673 257.624 113.186L266.495 106.608L263.394 105.137L253.828 110.069C253.015 110.179 252.27 110.584 251.736 111.207C251.201 111.83 250.913 112.628 250.926 113.449C250.94 114.271 251.254 115.058 251.809 115.663C252.364 116.269 253.121 116.649 253.938 116.732V116.732Z" fill="#FFB8B8"/>
<path d="M259.5 113.788L256.504 108.189L263.893 103.321L260.287 90.3747C260.143 89.8564 260.107 89.3138 260.181 88.7808C260.256 88.2479 260.439 87.7361 260.72 87.2773C261.001 86.8185 261.374 86.4226 261.814 86.1143C262.255 85.8061 262.754 85.5921 263.281 85.4857V85.4857C264.213 85.2999 265.18 85.4587 266.003 85.9326C266.826 86.4065 267.449 87.1633 267.757 88.0624L272.623 102.378C272.723 102.673 272.729 102.992 272.639 103.29C272.549 103.589 272.368 103.851 272.122 104.042L259.5 113.788Z" fill="#2F2E41"/>
<path d="M253.08 74.4369C252.103 74.564 251.367 73.5643 251.025 72.6401C250.684 71.7159 250.424 70.64 249.575 70.1408C248.415 69.4588 246.932 70.2791 245.606 70.0541C244.108 69.7999 243.135 68.2114 243.058 66.693C242.982 65.1746 243.586 63.7143 244.178 62.3144L244.385 64.0541C244.357 63.4645 244.481 62.8776 244.745 62.3496C245.009 61.8216 245.403 61.3702 245.891 61.0385L245.624 63.5913C245.681 63.2391 245.807 62.9016 245.994 62.5981C246.182 62.2946 246.427 62.0312 246.716 61.8229C247.006 61.6146 247.333 61.4655 247.68 61.3842C248.027 61.303 248.387 61.2911 248.739 61.3493L248.697 62.8704C250.426 62.6646 252.171 62.4584 253.906 62.6152C255.64 62.7721 257.387 63.3215 258.702 64.465C260.669 66.1755 261.387 68.9921 261.146 71.5888C260.905 74.1856 259.834 76.625 258.718 78.9815C258.437 79.5744 258.048 80.2434 257.397 80.319C256.812 80.3868 256.277 79.8973 256.095 79.3365C255.955 78.7612 255.96 78.1599 256.111 77.5872C256.275 76.7119 256.483 75.8173 256.328 74.9402C256.173 74.0632 255.543 73.1965 254.66 73.089C253.776 72.9815 252.873 73.9921 253.297 74.7748L253.08 74.4369Z" fill="#2F2E41"/>
<path d="M146.533 163.938L143.364 162.602L141.189 146.696H112.23L109.873 162.537L107.037 163.957C106.902 164.025 106.793 164.136 106.729 164.274C106.664 164.411 106.648 164.567 106.683 164.714C106.718 164.862 106.802 164.994 106.921 165.088C107.04 165.182 107.187 165.234 107.339 165.234H146.272C146.428 165.234 146.578 165.18 146.699 165.081C146.819 164.983 146.902 164.846 146.932 164.693C146.963 164.54 146.94 164.382 146.868 164.244C146.795 164.107 146.677 163.999 146.533 163.938V163.938Z" fill="#E6E6E6"/>
<path d="M197.995 148.812H55.7426C54.9963 148.811 54.2811 148.513 53.7539 147.984C53.2267 147.455 52.9307 146.738 52.9307 145.991V125.913H200.807V145.991C200.807 146.738 200.511 147.455 199.984 147.984C199.457 148.513 198.741 148.811 197.995 148.812V148.812Z" fill="#CCCCCC"/>
<path d="M200.956 135.402H52.8008V49.4902C52.8018 48.5886 53.1601 47.7242 53.7971 47.0867C54.434 46.4492 55.2975 46.0906 56.1983 46.0896H197.558C198.459 46.0906 199.322 46.4492 199.959 47.0867C200.596 47.7242 200.955 48.5886 200.956 49.4902V135.402Z" fill="#3F3D56"/>
<path d="M192.107 129.167H61.6495C60.9551 129.166 60.2893 128.89 59.7983 128.398C59.3073 127.907 59.0311 127.24 59.0303 126.545V54.9467C59.031 54.2516 59.3072 53.5852 59.7983 53.0937C60.2893 52.6022 60.9551 52.3257 61.6495 52.3249H192.107C192.801 52.3257 193.467 52.6022 193.958 53.0937C194.449 53.5852 194.725 54.2516 194.726 54.9467V126.545C194.725 127.24 194.449 127.907 193.958 128.398C193.467 128.89 192.801 129.166 192.107 129.167Z" fill="white"/>
<path d="M190.879 165.4H64.5542C64.4663 165.4 64.3819 165.365 64.3198 165.302C64.2576 165.24 64.2227 165.156 64.2227 165.068C64.2227 164.98 64.2576 164.895 64.3198 164.833C64.3819 164.771 64.4663 164.736 64.5542 164.736H190.879C190.967 164.736 191.051 164.771 191.113 164.833C191.176 164.895 191.211 164.98 191.211 165.068C191.211 165.156 191.176 165.24 191.113 165.302C191.051 165.365 190.967 165.4 190.879 165.4Z" fill="#CCCCCC"/>
<path d="M179.851 120.271H73.9058C73.8178 120.271 73.7335 120.236 73.6713 120.174C73.6091 120.111 73.5742 120.027 73.5742 119.939V69.1107C73.5742 69.0227 73.6091 68.9383 73.6713 68.876C73.7335 68.8138 73.8178 68.7788 73.9058 68.7788C73.9937 68.7788 74.078 68.8138 74.1402 68.876C74.2024 68.9383 74.2373 69.0227 74.2373 69.1107V119.607H179.851C179.939 119.607 180.024 119.642 180.086 119.704C180.148 119.766 180.183 119.851 180.183 119.939C180.183 120.027 180.148 120.111 180.086 120.174C180.024 120.236 179.939 120.271 179.851 120.271Z" fill="#3F3D56"/>
<path d="M96.5413 116.62H86.9051C86.6442 116.62 86.394 116.516 86.2095 116.331C86.025 116.147 85.9212 115.896 85.9209 115.635V102.339C85.9212 102.078 86.025 101.827 86.2095 101.643C86.394 101.458 86.6442 101.354 86.9051 101.354H96.5413C96.8022 101.354 97.0524 101.458 97.2369 101.643C97.4214 101.827 97.5252 102.078 97.5255 102.339V115.635C97.5252 115.896 97.4214 116.147 97.2369 116.331C97.0524 116.516 96.8022 116.62 96.5413 116.62V116.62Z" fill="#E6E67D"/>
<path d="M114.115 116.62H104.478C104.217 116.62 103.967 116.516 103.783 116.331C103.598 116.147 103.494 115.896 103.494 115.635V89.7275C103.494 89.4663 103.598 89.2159 103.783 89.0312C103.967 88.8465 104.217 88.7427 104.478 88.7424H114.115C114.375 88.7427 114.626 88.8465 114.81 89.0312C114.995 89.2159 115.098 89.4663 115.099 89.7275V115.635C115.098 115.896 114.995 116.147 114.81 116.331C114.626 116.516 114.375 116.62 114.115 116.62V116.62Z" fill="#E6E67D"/>
<path d="M131.687 116.62H122.051C121.79 116.62 121.54 116.516 121.355 116.331C121.171 116.147 121.067 115.896 121.066 115.635V102.339C121.067 102.078 121.171 101.827 121.355 101.643C121.54 101.458 121.79 101.354 122.051 101.354H131.687C131.948 101.354 132.198 101.458 132.382 101.643C132.567 101.827 132.671 102.078 132.671 102.339V115.635C132.671 115.896 132.567 116.147 132.382 116.331C132.198 116.516 131.948 116.62 131.687 116.62V116.62Z" fill="#E6E67D"/>
<path d="M149.26 116.62H139.624C139.369 116.626 139.122 116.53 138.938 116.353C138.753 116.177 138.646 115.935 138.64 115.68V84.7047C138.646 84.4495 138.753 84.2072 138.938 84.0309C139.122 83.8546 139.369 83.7587 139.624 83.7642H149.26C149.515 83.7587 149.762 83.8546 149.946 84.0309C150.131 84.2072 150.238 84.4495 150.244 84.7047V115.68C150.238 115.935 150.131 116.177 149.946 116.353C149.762 116.53 149.515 116.626 149.26 116.62V116.62Z" fill="#E6E67D"/>
<path d="M166.832 116.62H157.196C156.935 116.62 156.685 116.516 156.501 116.331C156.316 116.147 156.212 115.896 156.212 115.635V75.7886C156.212 75.5274 156.316 75.277 156.501 75.0923C156.685 74.9076 156.935 74.8038 157.196 74.8035H166.832C167.093 74.8038 167.343 74.9076 167.528 75.0923C167.712 75.277 167.816 75.5274 167.817 75.7886V115.635C167.816 115.896 167.712 116.147 167.528 116.331C167.343 116.516 167.093 116.62 166.832 116.62V116.62Z" fill="#E6E67D"/>
<path d="M91.7237 97.3712C92.8224 97.3712 93.7131 96.4797 93.7131 95.3799C93.7131 94.2802 92.8224 93.3887 91.7237 93.3887C90.625 93.3887 89.7344 94.2802 89.7344 95.3799C89.7344 96.4797 90.625 97.3712 91.7237 97.3712Z" fill="#3F3D56"/>
<path d="M109.296 84.4279C110.395 84.4279 111.285 83.5364 111.285 82.4366C111.285 81.3369 110.395 80.4454 109.296 80.4454C108.197 80.4454 107.307 81.3369 107.307 82.4366C107.307 83.5364 108.197 84.4279 109.296 84.4279Z" fill="#3F3D56"/>
<path d="M126.869 97.3712C127.968 97.3712 128.859 96.4797 128.859 95.3799C128.859 94.2802 127.968 93.3887 126.869 93.3887C125.771 93.3887 124.88 94.2802 124.88 95.3799C124.88 96.4797 125.771 97.3712 126.869 97.3712Z" fill="#3F3D56"/>
<path d="M144.442 78.1223C145.54 78.1223 146.431 77.2308 146.431 76.131C146.431 75.0313 145.54 74.1398 144.442 74.1398C143.343 74.1398 142.452 75.0313 142.452 76.131C142.452 77.2308 143.343 78.1223 144.442 78.1223Z" fill="#3F3D56"/>
<path d="M162.015 70.821C163.113 70.821 164.004 69.9295 164.004 68.8297C164.004 67.73 163.113 66.8384 162.015 66.8384C160.916 66.8384 160.025 67.73 160.025 68.8297C160.025 69.9295 160.916 70.821 162.015 70.821Z" fill="#3F3D56"/>
<path d="M126.911 95.8259L109.296 82.6199L91.9223 95.6454L91.5244 95.1144L109.296 81.7905L126.827 94.9339L144.248 75.8515L144.318 75.823L161.89 68.7361L162.138 69.3517L144.636 76.4104L126.911 95.8259Z" fill="#3F3D56"/>
</g>
<defs>
<clipPath id="clip0_229_7504">
<rect width="253" height="152" fill="white" transform="translate(40 30)"/>
</clipPath>
</defs>
</svg>
