<svg width="130" height="117" viewBox="0 0 130 117" fill="none" xmlns="http://www.w3.org/2000/svg">
<g clip-path="url(#clip0_200_6004)">
<path d="M63.1647 67.7955L91.2831 68.3771C91.7269 68.3873 92.1684 68.3098 92.5822 68.149C92.9961 67.9883 93.3741 67.7474 93.6948 67.4403C94.0155 67.1332 94.2724 66.7659 94.451 66.3593C94.6296 65.9528 94.7262 65.5149 94.7354 65.071C94.7445 64.627 94.6661 64.1856 94.5045 63.772C94.3429 63.3584 94.1013 62.9807 93.7936 62.6606C93.4859 62.3405 93.1181 62.0842 92.7113 61.9065C92.3044 61.7288 91.8665 61.6331 91.4227 61.6249L63.3042 61.0434C62.885 61.0347 62.4796 61.193 62.177 61.4834C61.8745 61.7738 61.6996 62.1725 61.691 62.5918L61.6168 66.1819C61.6085 66.5829 61.7529 66.9721 62.0207 67.2706C62.2884 67.5692 62.6596 67.7548 63.0591 67.7899C63.0941 67.7929 63.1293 67.7948 63.1647 67.7955Z" fill="#E6E67D"/>
<path d="M68.5924 68.73L91.6592 69.8548C91.8665 69.8649 92.0739 69.8341 92.2693 69.7641C92.4648 69.6941 92.6445 69.5862 92.7983 69.4467C92.9521 69.3072 93.0769 69.1387 93.1656 68.951C93.2543 68.7632 93.3051 68.5598 93.3152 68.3524L93.5759 63.0031C93.5963 62.5842 93.4495 62.1744 93.1679 61.8637C92.8862 61.553 92.4926 61.367 92.0739 61.3466L69.0071 60.2218C68.7997 60.2116 68.5924 60.2425 68.3969 60.3125C68.2015 60.3825 68.0217 60.4904 67.8679 60.6299C67.7142 60.7694 67.5894 60.9378 67.5007 61.1256C67.412 61.3134 67.3611 61.5167 67.351 61.7242L67.0903 67.0734C67.0709 67.4819 67.2102 67.8821 67.4791 68.1901C67.7479 68.4982 68.1255 68.6902 68.5328 68.726C68.5525 68.7278 68.5725 68.7291 68.5924 68.73Z" fill="#2F2E41"/>
<path d="M107.463 114.75L107.556 84.8226C107.556 84.4033 107.391 84.0008 107.096 83.7035C106.8 83.4061 106.399 83.2381 105.98 83.2363L102.39 83.2252C101.971 83.2244 101.568 83.3899 101.271 83.6855C100.974 83.981 100.806 84.3824 100.804 84.8017L100.711 114.73C100.711 115.149 100.876 115.551 101.172 115.849C101.467 116.146 101.868 116.314 102.287 116.316L105.877 116.327C106.296 116.328 106.699 116.162 106.996 115.867C107.293 115.571 107.461 115.17 107.463 114.75Z" fill="#E6E67D"/>
<path d="M98.0432 114.721L98.1357 84.7935C98.1366 84.3743 97.9711 83.9718 97.6756 83.6744C97.3802 83.377 96.9789 83.209 96.5597 83.2073L92.9699 83.1962C92.5507 83.1953 92.1484 83.3609 91.8511 83.6564C91.5538 83.9519 91.3859 84.3534 91.3841 84.7726L91.2915 114.7C91.2907 115.12 91.4562 115.522 91.7516 115.82C92.0471 116.117 92.4484 116.285 92.8675 116.287L96.4574 116.298C96.8765 116.299 97.2789 116.133 97.5762 115.838C97.8734 115.542 98.0414 115.141 98.0432 114.721V114.721Z" fill="#E6E67D"/>
<path d="M97.2995 51.9762C90.4489 51.955 84.9126 46.3827 84.9338 39.5302C84.9549 32.6776 90.5256 27.1397 97.3762 27.1609C104.227 27.182 109.763 32.7543 109.742 39.6069C109.721 46.4595 104.15 51.9974 97.2995 51.9762Z" fill="#E6E67D"/>
<path d="M90.6112 43.7842C90.2126 43.6518 89.8469 43.4356 89.5389 43.1501C89.3348 42.9463 89.1777 42.7003 89.0787 42.4294C88.9796 42.1585 88.941 41.8692 88.9655 41.5818C88.9791 41.377 89.0398 41.1781 89.143 41.0007C89.2462 40.8233 89.389 40.6721 89.5603 40.5591C90.0047 40.2758 90.598 40.2768 91.2012 40.545L91.1933 35.7011L91.6797 35.7003L91.689 41.3948L91.315 41.1578C90.8812 40.8834 90.2611 40.6894 89.8217 40.9695C89.7131 41.0435 89.623 41.1416 89.5585 41.2561C89.4939 41.3707 89.4567 41.4985 89.4496 41.6298C89.4325 41.8439 89.4618 42.0592 89.5353 42.261C89.6089 42.4627 89.7251 42.6463 89.8759 42.7991C90.4115 43.314 91.1946 43.4769 92.0878 43.6231L92.0092 44.1033C91.5346 44.0389 91.0667 43.9321 90.6112 43.7842V43.7842Z" fill="#2F2E41"/>
<path d="M86.1791 35.4408L88.7754 35.792L88.7102 36.2741L86.114 35.923L86.1791 35.4408Z" fill="#2F2E41"/>
<path d="M94.3745 36.549L96.9707 36.9001L96.9055 37.3823L94.3093 37.0311L94.3745 36.549Z" fill="#2F2E41"/>
<path d="M123.657 38.6703L105.78 60.3885C105.498 60.7308 105.286 61.1253 105.157 61.5495C105.027 61.9738 104.982 62.4193 105.025 62.8608C105.068 63.3023 105.197 63.7311 105.405 64.1227C105.614 64.5142 105.897 64.8608 106.239 65.1428C106.582 65.4247 106.976 65.6364 107.4 65.7658C107.824 65.8952 108.27 65.9398 108.711 65.8969C109.153 65.854 109.581 65.7246 109.973 65.516C110.364 65.3074 110.71 65.0237 110.992 64.6812L128.869 42.963C129.001 42.8027 129.1 42.618 129.16 42.4193C129.221 42.2207 129.242 42.0121 129.222 41.8054C129.202 41.5987 129.141 41.398 129.044 41.2147C128.946 41.0314 128.814 40.8691 128.653 40.7371L125.882 38.4546C125.558 38.188 125.142 38.061 124.725 38.1014C124.307 38.1419 123.923 38.3465 123.657 38.6703L123.657 38.6703Z" fill="#E6E67D"/>
<path d="M117.702 43.5113L103.023 61.3451C102.891 61.5054 102.791 61.6902 102.731 61.8888C102.67 62.0874 102.649 62.2961 102.669 62.5028C102.689 62.7095 102.75 62.9102 102.847 63.0935C102.945 63.2768 103.078 63.4391 103.238 63.5711L107.972 67.4696C108.132 67.6016 108.316 67.7007 108.515 67.7613C108.714 67.8219 108.922 67.8428 109.129 67.8228C109.336 67.8028 109.536 67.7422 109.719 67.6446C109.903 67.547 110.065 67.4142 110.197 67.2539L124.876 49.4202C125.142 49.0963 125.269 48.68 125.229 48.2627C125.188 47.8454 124.984 47.4612 124.661 47.1943L119.927 43.2957C119.604 43.0291 119.187 42.9021 118.77 42.9425C118.353 42.983 117.968 43.1876 117.702 43.5113L117.702 43.5113Z" fill="#2F2E41"/>
<path d="M16.3793 21.4624C16.5595 21.0382 16.86 20.6761 17.2437 20.4211C17.6274 20.166 18.0775 20.029 18.5382 20.0272L61.5419 20.1601C62.1601 20.1624 62.752 20.41 63.1878 20.8486C63.6235 21.2872 63.8674 21.8808 63.8658 22.4992L63.6975 76.9186C63.6953 77.5369 63.4478 78.1291 63.0093 78.565C62.5709 79.0008 61.9773 79.2448 61.3592 79.2432L18.354 79.1102C17.736 79.1075 17.1442 78.8597 16.7086 78.4212C16.273 77.9828 16.0289 77.3894 16.03 76.7712L16.1983 22.3518C16.1982 22.0463 16.2592 21.7439 16.3778 21.4624L16.3793 21.4624ZM16.5492 76.7728C16.5483 77.2537 16.7382 77.7154 17.0771 78.0565C17.416 78.3976 17.8763 78.5903 18.3571 78.5924L61.3608 78.7254C61.8417 78.7268 62.3034 78.5371 62.6445 78.1981C62.9857 77.859 63.1782 77.3984 63.1799 76.9173L63.3482 22.4979C63.349 22.017 63.1592 21.5554 62.8203 21.2143C62.4814 20.8732 62.0211 20.6804 61.5403 20.6783L18.5351 20.5453C18.1729 20.5455 17.819 20.6537 17.5186 20.856C17.2181 21.0584 16.9848 21.3456 16.8483 21.6812C16.8217 21.7481 16.7987 21.8163 16.7795 21.8856C16.7378 22.0382 16.7165 22.1955 16.716 22.3537L16.5492 76.7728Z" fill="#3F3D56"/>
<path d="M25.3187 32.8965L38.2721 32.9366C38.4083 32.9372 38.5433 32.911 38.6694 32.8594C38.7955 32.8078 38.9101 32.7318 39.0068 32.6358C39.1035 32.5398 39.1804 32.4257 39.2329 32.3C39.2855 32.1743 39.3128 32.0395 39.3132 31.9032C39.3136 31.7669 39.2872 31.6319 39.2354 31.5059C39.1836 31.3798 39.1075 31.2653 39.0114 31.1687C38.9153 31.0721 38.8011 30.9954 38.6753 30.943C38.5496 30.8906 38.4147 30.8636 38.2785 30.8634L25.3252 30.8233C25.1889 30.8227 25.0539 30.8489 24.9279 30.9005C24.8018 30.9521 24.6871 31.0281 24.5904 31.1241C24.4937 31.2201 24.4169 31.3342 24.3643 31.4599C24.3117 31.5856 24.2845 31.7204 24.2841 31.8567C24.2836 31.993 24.3101 32.128 24.3619 32.254C24.4136 32.38 24.4898 32.4946 24.5859 32.5912C24.682 32.6878 24.7962 32.7645 24.9219 32.8169C25.0477 32.8692 25.1825 32.8963 25.3187 32.8965Z" fill="#3F3D56"/>
<path d="M25.3021 38.3385L38.2555 38.3786C38.3917 38.3792 38.5267 38.353 38.6528 38.3014C38.7789 38.2498 38.8935 38.1738 38.9902 38.0778C39.0869 37.9818 39.1638 37.8677 39.2163 37.742C39.2689 37.6163 39.2962 37.4815 39.2966 37.3452C39.297 37.2089 39.2706 37.0739 39.2188 36.9479C39.167 36.8219 39.0909 36.7073 38.9948 36.6107C38.8987 36.5141 38.7845 36.4374 38.6587 36.3851C38.533 36.3327 38.3981 36.3056 38.2619 36.3054L25.3086 36.2653C25.1723 36.2647 25.0373 36.2909 24.9112 36.3425C24.7852 36.3941 24.6705 36.4701 24.5738 36.5661C24.4771 36.6621 24.4003 36.7762 24.3477 36.9019C24.2951 37.0276 24.2679 37.1625 24.2674 37.2987C24.267 37.435 24.2935 37.57 24.3453 37.696C24.397 37.8221 24.4732 37.9366 24.5693 38.0332C24.6654 38.1298 24.7796 38.2065 24.9053 38.2589C25.0311 38.3112 25.1659 38.3383 25.3021 38.3385Z" fill="#3F3D56"/>
<path d="M44.8915 41.4976L54.3578 41.5269C54.6669 41.5275 54.9636 41.4055 55.1829 41.1875C55.4021 40.9695 55.526 40.6735 55.5273 40.3643L55.5618 29.1901C55.5625 28.8809 55.4404 28.5841 55.2225 28.3648C55.0046 28.1455 54.7087 28.0216 54.3995 28.0203L44.9333 27.991C44.6242 27.9904 44.3275 28.1125 44.1082 28.3304C43.889 28.5484 43.7651 28.8445 43.7638 29.1537L43.7293 40.3278C43.7287 40.637 43.8507 40.9338 44.0686 41.1531C44.2865 41.3724 44.5824 41.4963 44.8915 41.4976V41.4976Z" fill="#E6E67D"/>
<path d="M25.3576 49.4819L54.6321 49.5725C54.9069 49.5733 55.1709 49.4649 55.3658 49.2711C55.5607 49.0773 55.6707 48.814 55.6716 48.539C55.6724 48.2641 55.5641 48.0001 55.3703 47.8051C55.1766 47.6101 54.9133 47.5001 54.6385 47.4992L25.3641 47.4087C25.0892 47.4079 24.8253 47.5162 24.6303 47.71C24.4354 47.9038 24.3254 48.1672 24.3246 48.4421C24.3237 48.717 24.4321 48.981 24.6258 49.176C24.8196 49.371 25.0828 49.4811 25.3576 49.4819V49.4819Z" fill="#CCCCCC"/>
<path d="M25.3407 54.9238L54.6151 55.0144C54.8897 55.0148 55.1532 54.9062 55.3478 54.7124C55.5424 54.5187 55.6522 54.2556 55.653 53.9809C55.6539 53.7063 55.5457 53.4425 55.3523 53.2476C55.1589 53.0526 54.8961 52.9424 54.6215 52.9411L25.3471 52.8506C25.2109 52.85 25.0759 52.8762 24.9498 52.9278C24.8237 52.9794 24.7091 53.0554 24.6124 53.1514C24.5157 53.2474 24.4388 53.3615 24.3863 53.4872C24.3337 53.6129 24.3064 53.7477 24.306 53.884C24.3056 54.0203 24.332 54.1553 24.3838 54.2813C24.4356 54.4074 24.5117 54.5219 24.6078 54.6185C24.7039 54.7151 24.8181 54.7918 24.9439 54.8442C25.0696 54.8965 25.2045 54.9236 25.3407 54.9238Z" fill="#CCCCCC"/>
<path d="M25.3241 60.3657L54.5985 60.4563C54.8731 60.4567 55.1366 60.3481 55.3312 60.1543C55.5258 59.9606 55.6356 59.6975 55.6364 59.4228C55.6373 59.1482 55.5291 58.8844 55.3357 58.6895C55.1423 58.4945 54.8795 58.3843 54.6049 58.383L25.3305 58.2925C25.1943 58.2919 25.0593 58.3181 24.9332 58.3697C24.8071 58.4213 24.6925 58.4973 24.5958 58.5933C24.4991 58.6893 24.4222 58.8034 24.3697 58.9291C24.3171 59.0548 24.2898 59.1896 24.2894 59.3259C24.289 59.4622 24.3154 59.5972 24.3672 59.7232C24.419 59.8492 24.4951 59.9638 24.5912 60.0604C24.6873 60.157 24.8015 60.2337 24.9273 60.286C25.053 60.3384 25.1879 60.3655 25.3241 60.3657Z" fill="#CCCCCC"/>
<path d="M25.3075 65.8076L54.5819 65.8982C54.8565 65.8986 55.12 65.79 55.3146 65.5962C55.5092 65.4025 55.619 65.1394 55.6198 64.8647C55.6207 64.5901 55.5125 64.3263 55.3191 64.1314C55.1257 63.9364 54.8629 63.8262 54.5883 63.8249L25.3139 63.7344C25.1777 63.7338 25.0427 63.76 24.9166 63.8116C24.7905 63.8632 24.6759 63.9392 24.5792 64.0352C24.4825 64.1312 24.4056 64.2453 24.3531 64.371C24.3005 64.4967 24.2732 64.6315 24.2728 64.7678C24.2724 64.9041 24.2988 65.0391 24.3506 65.1651C24.4024 65.2911 24.4785 65.4057 24.5746 65.5023C24.6707 65.5989 24.7849 65.6756 24.9107 65.728C25.0364 65.7803 25.1713 65.8074 25.3075 65.8076V65.8076Z" fill="#CCCCCC"/>
<path d="M25.2899 71.2495L54.5644 71.34C54.8389 71.3404 55.1024 71.2318 55.297 71.0381C55.4916 70.8443 55.6014 70.5813 55.6023 70.3066C55.6031 70.032 55.495 69.7682 55.3016 69.5733C55.1082 69.3783 54.8453 69.2681 54.5708 69.2668L25.2963 69.1763C25.1601 69.1757 25.0251 69.2019 24.899 69.2535C24.773 69.3051 24.6583 69.3811 24.5616 69.4771C24.4649 69.573 24.3881 69.6871 24.3355 69.8129C24.2829 69.9386 24.2557 70.0734 24.2552 70.2097C24.2548 70.3459 24.2812 70.4809 24.333 70.607C24.3848 70.733 24.461 70.8476 24.5571 70.9442C24.6532 71.0407 24.7673 71.1174 24.8931 71.1698C25.0189 71.2222 25.1537 71.2493 25.2899 71.2495Z" fill="#CCCCCC"/>
<path d="M15.103 29.7255C6.90957 29.7002 0.28804 23.0356 0.313386 14.8398C0.338733 6.64404 7.00136 0.0205775 15.1948 0.0459165C23.3882 0.0712555 30.0097 6.7358 29.9844 14.9316C29.959 23.1274 23.2964 29.7509 15.103 29.7255Z" fill="#E6E67D"/>
<path d="M15.4047 25.1011C14.4406 25.0981 13.6615 24.314 13.6645 23.3496C13.6675 22.3852 14.4514 21.6059 15.4155 21.6089C16.3796 21.6118 17.1587 22.396 17.1557 23.3604C17.1528 24.3248 16.3688 25.1041 15.4047 25.1011Z" fill="white"/>
<path d="M15.6531 5.13518C16.969 5.15231 18.2262 5.68243 19.1573 6.61274C20.0884 7.54305 20.6198 8.80009 20.6384 10.1164C20.6387 10.1416 20.6383 10.3187 20.6376 10.5504C20.6365 10.8901 20.5006 11.2155 20.2597 11.455C20.0188 11.6945 19.6927 11.8284 19.3531 11.8274V11.8274C19.0133 11.8263 18.6878 11.6902 18.4482 11.449C18.2087 11.2078 18.0748 10.8813 18.0759 10.5413L18.0759 10.5405C18.0765 10.3829 18.0769 10.2738 18.077 10.2671C18.0784 9.84538 17.97 9.43056 17.7625 9.06344C17.555 8.69632 17.2555 8.38956 16.8935 8.17332C16.5316 7.95708 16.1196 7.83882 15.698 7.83018C15.2765 7.82153 14.86 7.92279 14.4895 8.124C14.119 8.32521 13.8072 8.61944 13.5848 8.97774C13.3624 9.33604 13.2371 9.74607 13.2212 10.1675C13.2054 10.5889 13.2994 11.0072 13.4941 11.3813C13.6889 11.7553 13.9776 12.0722 14.3319 12.3008L14.3315 12.3013C14.3315 12.3013 16.1505 13.4806 16.7011 15.0924L16.7007 15.0926C16.7974 15.4227 16.8458 15.7651 16.8445 16.1091C16.8441 16.2505 16.8319 17.4878 16.8128 18.492C16.8061 18.8385 16.6635 19.1685 16.4157 19.4108C16.168 19.653 15.835 19.7882 15.4885 19.787V19.787C15.3151 19.7865 15.1435 19.7518 14.9835 19.6849C14.8235 19.618 14.6783 19.5203 14.556 19.3972C14.4338 19.2742 14.337 19.1283 14.2711 18.9678C14.2053 18.8074 14.1717 18.6355 14.1722 18.462L14.1723 18.4539C14.1807 17.5342 14.187 16.4633 14.1873 16.3856C14.1903 15.3969 13.2399 14.409 12.4587 13.7642C11.5544 13.0269 10.9204 12.0103 10.6561 10.8737C10.5991 10.6394 10.568 10.3995 10.5634 10.1585C10.5655 9.49672 10.6978 8.84186 10.9529 8.23127C11.2079 7.62068 11.5807 7.06632 12.0499 6.59984C12.5192 6.13336 13.0757 5.7639 13.6876 5.51255C14.2996 5.2612 14.9551 5.13289 15.6167 5.13493C15.6288 5.13497 15.6409 5.13506 15.6531 5.13518Z" fill="white"/>
<path d="M100.464 34.0884C98.2478 32.6211 95.4546 33.2695 92.9856 33.4526C90.7547 33.6181 88.1117 33.4401 86.5487 31.6125C84.9225 29.7111 85.0676 26.896 86.425 24.8944C87.761 22.9242 89.9726 21.6844 92.3092 21.3629C93.6038 21.1773 94.9229 21.2633 96.1825 21.6154C97.4421 21.9676 98.6146 22.5782 99.6254 23.4083L98.8306 23.7348C99.3069 19.3127 102.571 15.3238 106.936 14.2526C111.354 13.1687 116.284 15.0571 118.627 19.001C120.936 22.8891 120.644 28.3036 117.293 31.5184C115.683 33.0622 113.498 33.8445 111.284 33.4167C109.242 33.022 107.431 31.5266 107.055 29.4215C106.707 27.4702 107.488 25.2573 109.387 24.4114C109.907 24.171 110.474 24.0517 111.047 24.0626C111.619 24.0735 112.182 24.2144 112.692 24.4745C113.154 24.7364 113.544 25.1087 113.827 25.5581C114.11 26.0076 114.277 26.5202 114.313 27.0501C114.347 27.5631 114.241 28.0756 114.006 28.5331C113.741 29.0698 112.941 28.5964 113.205 28.0611C113.376 27.6674 113.425 27.2317 113.347 26.8097C113.269 26.3878 113.067 25.9987 112.767 25.6922C112.08 24.9697 110.992 24.8467 110.075 25.1384C108.397 25.6721 107.651 27.5932 107.962 29.2259C108.31 31.0547 109.866 32.2339 111.641 32.5401C113.572 32.8731 115.458 32.0631 116.803 30.6952C119.619 27.8304 119.877 23.203 117.993 19.7677C116.082 16.2826 111.989 14.4018 108.083 14.9733C104.221 15.5384 101.032 18.566 100.03 22.3082C99.9034 22.777 99.8134 23.2549 99.7606 23.7376C99.7571 23.8282 99.7277 23.9158 99.6759 23.9901C99.624 24.0643 99.5519 24.1221 99.4681 24.1565C99.3844 24.1909 99.2924 24.2005 99.2034 24.1841C99.1143 24.1677 99.0318 24.1261 98.9658 24.0641C95.6754 21.3133 90.1876 21.5903 87.472 25.0296C86.1403 26.7163 85.7412 29.3407 87.285 31.0439C88.755 32.6657 91.2045 32.6749 93.2197 32.504C95.7975 32.2854 98.6322 31.7614 100.936 33.2866C101.433 33.6157 100.965 34.4201 100.464 34.0884L100.464 34.0884Z" fill="#2F2E41"/>
<path d="M90.2736 95.2057L108.873 95.2632C109.243 95.264 109.598 95.1179 109.86 94.8571C110.123 94.5963 110.271 94.2421 110.272 93.8722L110.292 87.6705C110.292 87.3006 110.146 86.9454 109.886 86.683C109.625 86.4206 109.271 86.2724 108.901 86.2708L90.3014 86.2133C89.9316 86.2126 89.5765 86.3586 89.3142 86.6194C89.0519 86.8802 88.9037 87.2344 88.9021 87.6044L88.8829 93.806C88.8822 94.176 89.0282 94.5311 89.2889 94.7935C89.5496 95.0559 89.9037 95.2041 90.2736 95.2057Z" fill="#2F2E41"/>
<path d="M89.7316 64.6281C90.3231 61.6509 92.5921 59.2988 95.5306 58.3379C94.4716 57.9935 93.7992 57.4861 93.8009 56.9211C93.8041 55.8935 96.0273 55.0674 98.7665 55.0759C101.506 55.0844 103.724 55.9242 103.721 56.9517C103.719 57.5251 103.025 58.0352 101.937 58.3731C106.433 59.7292 109.688 63.6571 109.673 68.2706C109.673 68.2706 111.031 77.1583 112.097 84.2627C112.779 88.8079 108.964 92.8567 104.016 92.8414L86.6134 92.7876C85.4734 92.784 84.5487 91.9212 84.552 90.8641C84.552 90.8641 87.8099 74.2991 89.7316 64.6281Z" fill="#2F2E41"/>
</g>
<defs>
<clipPath id="clip0_200_6004">
<rect width="129" height="116" fill="white" transform="matrix(-0.999995 -0.00309259 -0.00309259 0.999995 129.358 0.398926)"/>
</clipPath>
</defs>
</svg>
