<svg width="332" height="211" viewBox="0 0 332 211" fill="none" xmlns="http://www.w3.org/2000/svg">
<g clip-path="url(#clip0_229_7402)">
<path d="M269 103.449C269 143.496 233.976 177.253 186.184 187.617C178.422 189.295 170.537 190.332 162.608 190.715C162.222 190.735 161.836 190.754 161.448 190.768C159.384 190.854 157.305 190.897 155.21 190.898C151.567 190.898 147.968 190.768 144.412 190.508C142.439 190.366 140.483 190.186 138.543 189.967C119.679 187.838 102.318 182.153 87.6547 173.824C85.8225 172.785 84.0335 171.704 82.2876 170.581C79.0906 168.534 76.0041 166.317 73.041 163.94C53.4543 148.235 69.7844 114.714 79.9924 93.6094C107.545 36.6497 92.3662 16 155.21 16C218.053 16 269 55.1512 269 103.449Z" fill="#F2F2F2"/>
<path d="M223.963 52.0517C204.431 51.6993 204.434 22.4978 223.964 22.1483C243.496 22.5007 243.493 51.7022 223.963 52.0517Z" fill="white"/>
<path d="M187.024 95.5684C167.492 95.216 167.495 66.0145 187.025 65.665C206.556 66.0174 206.553 95.2189 187.024 95.5684Z" fill="white"/>
<path d="M225.555 139.757C206.023 139.405 206.026 110.203 225.556 109.854C245.088 110.206 245.084 139.408 225.555 139.757Z" fill="white"/>
<path d="M223.963 52.0517C204.431 51.6993 204.434 22.4978 223.964 22.1483C243.496 22.5007 243.493 51.7022 223.963 52.0517ZM223.963 23.0545C205.615 23.3855 205.618 50.8171 223.964 51.1455C242.312 50.8144 242.309 23.3828 223.963 23.0545Z" fill="#E6E6E6"/>
<path d="M138.474 189.759C138.43 189.618 138.4 189.474 138.383 189.327L132.71 156.786C132.702 156.703 132.689 156.619 132.672 156.537C132.552 155.944 132.252 155.402 131.815 154.987C131.378 154.571 130.823 154.301 130.228 154.214L97.8788 154.355C97.2668 154.263 96.6414 154.37 96.0942 154.661C95.5469 154.952 95.1064 155.411 94.8371 155.971C94.3109 157.075 93.7957 158.193 93.2915 159.328C91.2498 163.899 89.3708 168.731 87.6543 173.824C102.318 182.154 119.678 187.838 138.543 189.967L138.474 189.759Z" fill="#2F2E41"/>
<path d="M170.052 102.681C169.973 103.033 169.921 103.39 169.897 103.75L142.054 119.909L135.287 115.99L128.072 125.492L139.383 133.602C140.296 134.257 141.397 134.596 142.518 134.569C143.64 134.541 144.723 134.148 145.604 133.449L174.314 110.663C175.61 111.145 177.021 111.22 178.36 110.876C179.699 110.532 180.901 109.786 181.808 108.738C182.715 107.689 183.284 106.388 183.438 105.006C183.592 103.625 183.324 102.23 182.67 101.005C182.016 99.7806 181.007 98.7854 179.778 98.1519C178.548 97.5183 177.155 97.2764 175.786 97.4584C174.416 97.6403 173.134 98.2375 172.11 99.1704C171.085 100.103 170.368 101.328 170.052 102.681V102.681Z" fill="#FFB8B8"/>
<path d="M141.674 118.295C141.589 117.881 141.417 117.491 141.17 117.151C140.922 116.81 140.604 116.527 140.238 116.321L127.462 109.134C125.765 107.816 123.617 107.229 121.49 107.502C119.363 107.775 117.43 108.885 116.115 110.589C114.8 112.294 114.211 114.453 114.476 116.593C114.741 118.734 115.84 120.681 117.53 122.009L127.716 132.65C128.007 132.954 128.359 133.191 128.749 133.345C129.139 133.5 129.558 133.568 129.976 133.545C130.395 133.522 130.804 133.409 131.175 133.213C131.546 133.016 131.871 132.742 132.127 132.409L134.111 129.82L134.788 128.938L141.125 120.676C141.357 120.374 141.526 120.029 141.624 119.661C141.748 119.216 141.765 118.748 141.674 118.295Z" fill="#E6E67D"/>
<path d="M123.175 96.3796C129.392 90.1254 129.392 79.9854 123.175 73.7312C116.958 67.477 106.879 67.477 100.662 73.7312C94.445 79.9854 94.445 90.1254 100.662 96.3796C106.879 102.634 116.958 102.634 123.175 96.3796Z" fill="#FFB8B8"/>
<path d="M132.047 145.672C132.686 144.71 136.75 138.218 135.212 130.61C135.099 130.046 134.958 129.488 134.788 128.938C134.063 126.648 132.906 124.52 131.38 122.671C131.399 122.161 131.394 121.66 131.363 121.161V121.158C131.139 117.691 129.677 114.423 127.246 111.955C124.816 109.487 121.582 107.985 118.138 107.726L100.334 106.365C98.0423 106.177 95.7396 106.552 93.6239 107.458C91.5083 108.364 89.6432 109.773 88.189 111.565C87.8541 111.973 87.5405 112.399 87.2494 112.84C87.2491 112.84 87.2487 112.84 87.2484 112.84C87.2481 112.84 87.2478 112.84 87.2475 112.841C87.2473 112.841 87.2471 112.841 87.2469 112.842C87.2468 112.842 87.2467 112.842 87.2468 112.843C86.1241 114.547 85.3792 116.475 85.0626 118.494C84.746 120.514 84.8651 122.579 85.4117 124.548L85.5634 125.219L87.4616 133.592L90.6356 147.603L93.2917 159.328L93.5727 160.564C93.7209 161.212 94.0825 161.789 94.5988 162.204C95.1151 162.618 95.7556 162.844 96.416 162.845C96.5748 162.846 96.7334 162.833 96.89 162.807L131.341 157.124C131.827 157.046 132.286 156.844 132.672 156.537C132.904 156.351 133.107 156.131 133.275 155.885C133.5 155.559 133.655 155.189 133.732 154.8C133.809 154.41 133.805 154.009 133.722 153.621L132.047 145.672Z" fill="#E6E67D"/>
<path d="M64.2459 192.964C63.6616 192.125 63.2671 191.168 63.0902 190.159C62.9134 189.151 62.9585 188.116 63.2224 187.127C63.4863 186.138 63.9625 185.219 64.6175 184.435C65.2726 183.651 66.0905 183.021 67.0136 182.59L86.6289 121.919L97.9963 127.346L76.5341 186.42C77.1518 188.028 77.1616 189.808 76.5617 191.423C75.9618 193.038 74.7938 194.376 73.2792 195.183C71.7645 195.989 70.0083 196.209 68.3434 195.8C66.6785 195.391 65.2206 194.382 64.2459 192.964V192.964Z" fill="#FFB8B8"/>
<path d="M97.8626 107.587C95.7612 106.951 93.4983 107.14 91.5293 108.114C89.5603 109.089 88.0311 110.777 87.2495 112.84C87.2491 112.84 87.2488 112.84 87.2484 112.84C87.2481 112.84 87.2478 112.84 87.2476 112.841C87.2473 112.841 87.2471 112.841 87.247 112.842C87.2468 112.842 87.2468 112.842 87.2468 112.843C87.1751 113.028 87.109 113.222 87.0512 113.416L85.3897 116.962L80.3698 127.674C80.1779 128.083 80.0758 128.528 80.0705 128.979C80.0652 129.431 80.1569 129.878 80.3392 130.291C80.5215 130.703 80.7902 131.071 81.1269 131.37C81.4635 131.668 81.8603 131.89 82.2901 132.021L83.2683 132.317L87.4616 133.592L94.9035 135.854L97.3832 136.608C97.8129 136.738 98.2654 136.774 98.7101 136.713C99.1547 136.652 99.581 136.495 99.9599 136.253C100.339 136.011 100.661 135.689 100.906 135.311C101.15 134.932 101.31 134.505 101.375 134.058L103.668 118.414C104.319 116.204 104.074 113.824 102.986 111.795C101.898 109.767 100.056 108.254 97.8626 107.587Z" fill="#E6E67D"/>
<path d="M126.536 79.2317C120.864 84.2236 112.156 85.3827 105.388 82.0466C108.428 85.6749 114.202 103.585 114.202 103.585C114.202 103.585 97.8993 101.862 95.596 101.366C81.992 98.4397 86.9369 62.9962 101.433 63.1751C103.888 63.2054 106.034 63.5041 107.668 65.3476C108.753 62.289 112.202 60.4873 115.422 60.7206C118.641 60.9538 121.553 62.8993 123.624 65.3901C125.277 67.4066 126.47 69.7633 127.119 72.294C127.768 74.8247 127.858 77.4679 127.381 80.0372L126.536 79.2317Z" fill="#2F2E41"/>
<path d="M187.024 95.5684C167.492 95.216 167.495 66.0145 187.025 65.665C206.556 66.0174 206.553 95.2189 187.024 95.5684ZM187.024 66.5712C168.675 66.9023 168.678 94.3339 187.025 94.6622C205.372 94.3312 205.37 66.8996 187.024 66.5712Z" fill="#E6E6E6"/>
<path d="M225.555 139.757C206.023 139.405 206.026 110.203 225.556 109.854C245.088 110.206 245.084 139.408 225.555 139.757ZM225.555 110.76C207.207 111.091 207.21 138.523 225.556 138.851C243.904 138.52 243.901 111.088 225.555 110.76V110.76Z" fill="#E6E6E6"/>
<path d="M227.138 29.4355C223.473 29.5414 216.348 28.2238 216.345 33.9069C216.45 37.5928 215.14 44.7609 220.789 44.7646C224.453 44.6588 231.578 45.9764 231.582 40.2933C231.477 36.6074 232.787 29.4393 227.138 29.4355Z" fill="#3F3D56"/>
<path d="M228.09 33.9065C226.857 33.9221 226.861 31.9734 228.094 31.9945C229.327 31.9791 229.323 33.9274 228.09 33.9065Z" fill="white"/>
<path d="M223.963 34.545C227.258 34.4963 227.258 39.7041 223.962 39.655C220.668 39.7031 220.668 34.4964 223.963 34.545ZM223.963 33.2677C219.021 33.1951 219.02 41.0056 223.963 40.9323C228.906 41.005 228.905 33.1945 223.963 33.2677V33.2677Z" fill="white"/>
<path d="M198.725 127.326C198.636 127.329 198.548 127.305 198.473 127.257C198.398 127.21 198.338 127.141 198.302 127.059C198.265 126.977 198.254 126.887 198.269 126.798C198.284 126.71 198.325 126.628 198.386 126.563L199.885 124.97C199.932 124.919 199.957 124.853 199.956 124.784C199.954 124.715 199.925 124.65 199.875 124.603L198.282 123.086C198.238 123.044 198.203 122.994 198.178 122.938C198.153 122.882 198.14 122.822 198.138 122.761C198.136 122.7 198.146 122.64 198.168 122.583C198.19 122.526 198.222 122.473 198.264 122.429C198.348 122.34 198.464 122.288 198.585 122.285C198.707 122.281 198.826 122.325 198.915 122.409L201.058 124.424C201.1 124.463 201.134 124.511 201.158 124.564C201.182 124.617 201.195 124.674 201.196 124.733C201.198 124.791 201.188 124.849 201.167 124.903C201.146 124.957 201.115 125.007 201.075 125.049L199.037 127.188C198.956 127.274 198.843 127.323 198.725 127.326V127.326Z" fill="#CCCCCC"/>
<path d="M197.088 125.007C197.039 125.052 196.975 125.078 196.909 125.08L191.912 125.218C191.876 125.219 191.84 125.213 191.806 125.2C191.772 125.187 191.741 125.168 191.715 125.143C191.689 125.118 191.668 125.088 191.653 125.054C191.638 125.021 191.63 124.985 191.629 124.949C191.628 124.913 191.634 124.876 191.647 124.842C191.66 124.808 191.68 124.777 191.704 124.751C191.729 124.724 191.759 124.703 191.792 124.688C191.825 124.673 191.861 124.665 191.897 124.664L196.894 124.526C196.95 124.524 197.005 124.54 197.052 124.571C197.099 124.602 197.135 124.646 197.157 124.699C197.178 124.751 197.182 124.808 197.17 124.863C197.158 124.919 197.129 124.969 197.088 125.007V125.007Z" fill="#CCCCCC"/>
<path d="M160.152 83.1377C160.063 83.1403 159.975 83.1162 159.9 83.0686C159.824 83.021 159.765 82.952 159.728 82.8703C159.692 82.7886 159.681 82.6978 159.696 82.6096C159.711 82.5213 159.751 82.4396 159.813 82.3746L161.312 80.7807C161.359 80.7307 161.384 80.6639 161.382 80.5951C161.38 80.5264 161.351 80.4611 161.302 80.4138L159.709 78.8972C159.665 78.8552 159.629 78.805 159.605 78.7493C159.58 78.6936 159.566 78.6335 159.565 78.5725C159.563 78.5115 159.573 78.4508 159.595 78.3938C159.617 78.3368 159.649 78.2846 159.691 78.2403C159.775 78.1515 159.89 78.0995 160.012 78.0957C160.134 78.092 160.252 78.1367 160.342 78.2202L162.485 80.2348C162.527 80.2746 162.561 80.3223 162.585 80.3753C162.608 80.4284 162.621 80.4856 162.623 80.5438C162.625 80.6019 162.615 80.6598 162.594 80.714C162.573 80.7683 162.542 80.8179 162.502 80.8599L160.464 82.9988C160.382 83.0848 160.27 83.1347 160.152 83.1377V83.1377Z" fill="#CCCCCC"/>
<path d="M158.515 80.8179C158.466 80.8633 158.402 80.8892 158.336 80.891L153.339 81.0295C153.303 81.0306 153.267 81.0245 153.233 81.0115C153.199 80.9985 153.168 80.979 153.142 80.9539C153.116 80.9289 153.094 80.8989 153.08 80.8657C153.065 80.8324 153.057 80.7966 153.056 80.7602C153.055 80.7238 153.061 80.6875 153.074 80.6535C153.087 80.6195 153.106 80.5883 153.131 80.5619C153.156 80.5355 153.186 80.5142 153.219 80.4994C153.252 80.4846 153.288 80.4764 153.324 80.4755L158.32 80.3369C158.377 80.3353 158.432 80.351 158.479 80.3819C158.526 80.4128 158.562 80.4574 158.583 80.5097C158.604 80.562 158.609 80.6195 158.597 80.6746C158.585 80.7297 158.556 80.7797 158.515 80.8179V80.8179Z" fill="#CCCCCC"/>
<path d="M197.072 39.621C196.983 39.6236 196.895 39.5995 196.82 39.5519C196.744 39.5043 196.685 39.4353 196.648 39.3536C196.612 39.2718 196.601 39.1811 196.616 39.0929C196.631 39.0046 196.671 38.9228 196.732 38.8579L198.232 37.264C198.279 37.214 198.304 37.1472 198.302 37.0784C198.3 37.0096 198.271 36.9444 198.222 36.897L196.629 35.3805C196.585 35.3385 196.549 35.2883 196.525 35.2325C196.5 35.1768 196.486 35.1168 196.485 35.0558C196.483 34.9948 196.493 34.9341 196.515 34.8771C196.536 34.8201 196.569 34.7679 196.611 34.7236V34.7236C196.695 34.6347 196.81 34.5828 196.932 34.579C197.054 34.5753 197.172 34.62 197.262 34.7035L199.405 36.7181C199.447 36.7578 199.481 36.8056 199.505 36.8586C199.528 36.9116 199.541 36.9689 199.543 37.027C199.545 37.0852 199.535 37.1431 199.514 37.1973C199.493 37.2516 199.462 37.3011 199.422 37.3431L197.384 39.4821C197.302 39.568 197.19 39.6179 197.072 39.621V39.621Z" fill="#CCCCCC"/>
<path d="M195.434 37.3013C195.386 37.3467 195.322 37.3726 195.256 37.3743L190.259 37.5129C190.223 37.514 190.187 37.5078 190.153 37.4949C190.119 37.4819 190.088 37.4623 190.062 37.4373C190.036 37.4123 190.014 37.3823 190 37.3491C189.985 37.3158 189.977 37.28 189.976 37.2436C189.975 37.2071 189.981 37.1709 189.994 37.1369C190.007 37.1029 190.026 37.0717 190.051 37.0453C190.076 37.0189 190.106 36.9976 190.139 36.9828C190.172 36.968 190.208 36.9598 190.244 36.9589L195.24 36.8203C195.296 36.8187 195.352 36.8344 195.399 36.8653C195.446 36.8962 195.482 36.9408 195.503 36.9931C195.524 37.0454 195.529 37.1029 195.517 37.158C195.505 37.2131 195.476 37.2631 195.434 37.3013V37.3013Z" fill="#CCCCCC"/>
<path d="M191.955 180.887C190.663 183.587 188.558 185.771 186.183 187.617C178.422 189.295 170.537 190.332 162.607 190.716C162.221 190.735 161.835 190.754 161.447 190.768C159.383 190.854 157.304 190.898 155.209 190.898C151.567 190.898 147.968 190.768 144.412 190.508C144.276 189.685 144.258 188.847 144.356 188.019C144.75 184.778 147.194 181.802 150.366 181.114C153.537 180.427 157.152 182.331 158.113 185.446C158.645 179.437 159.254 173.179 162.431 168.062C165.304 163.43 170.283 160.115 175.68 159.522C178.853 159.19 182.053 159.78 184.902 161.221C185.164 161.354 185.423 161.493 185.679 161.637C187.389 162.612 188.898 163.908 190.123 165.454C193.49 169.739 194.314 175.97 191.955 180.887Z" fill="white"/>
<path d="M185.679 161.637C185.686 161.71 185.674 161.783 185.644 161.849C185.614 161.916 185.567 161.974 185.509 162.017C175.946 169.849 168.141 179.63 162.607 190.715C162.221 190.735 161.836 190.754 161.447 190.768C161.938 189.768 162.446 188.777 162.974 187.797C165.712 182.721 168.933 177.925 172.592 173.475C176.25 169.022 180.335 164.942 184.787 161.293C184.822 161.264 184.861 161.24 184.902 161.221C184.98 161.188 185.064 161.172 185.148 161.176C185.233 161.179 185.315 161.202 185.39 161.242C185.464 161.282 185.529 161.338 185.579 161.406C185.629 161.475 185.663 161.553 185.679 161.637V161.637Z" fill="#F2F2F2"/>
<path d="M233.625 121.033C233.625 121.033 232.363 122.455 232.12 122.547C231.454 129.845 226.924 131.502 223.287 131.502C220.673 131.502 218.518 130.646 218.59 130.41C222.469 130.502 222.8 128.9 222.8 128.9C220.546 128.564 220.094 127.084 220.094 127.084C220.296 127.191 220.53 127.22 220.752 127.164C220.974 127.108 221.167 126.972 221.295 126.782C218.862 126.144 219.193 123.755 219.193 123.755C219.626 124.071 220.133 124.269 220.664 124.332C220.394 123.999 218.118 121.255 219.488 119.833C219.568 120.049 221.937 123.295 225.896 123.059C225.803 122.596 225.812 122.117 225.924 121.658C226.035 121.199 226.247 120.77 226.543 120.403C226.839 120.035 227.212 119.739 227.636 119.534C228.06 119.329 228.523 119.221 228.993 119.218C231.098 119.218 231.55 120.429 231.55 120.429L233.055 119.52C233.024 119.52 232.873 121.033 232.12 121.335L233.625 121.033Z" fill="#3F3D56"/>
<path fill-rule="evenodd" clip-rule="evenodd" d="M195.214 80.6652C195.215 82.6435 194.513 84.5569 193.236 86.0613C191.96 87.5658 190.191 88.5626 188.249 88.8724V83.0684H190.172L190.539 80.6652H188.249C188.172 78.664 188.095 77.5415 190.635 77.8103V75.7675C186.83 74.9249 185.243 76.8652 185.67 80.6652H183.573V83.0684H185.67V88.8697C175.801 87.3424 176.961 72.3222 186.957 72.361C188.041 72.3608 189.115 72.5755 190.116 72.9927C191.118 73.4099 192.028 74.0215 192.795 74.7926C193.562 75.5638 194.17 76.4793 194.585 77.4869C195 78.4945 195.214 79.5745 195.214 80.6652V80.6652Z" fill="#3F3D56"/>
</g>
<defs>
<clipPath id="clip0_229_7402">
<rect width="206" height="180" fill="white" transform="translate(63 16)"/>
</clipPath>
</defs>
</svg>
