<svg width="350" height="256" viewBox="0 0 350 256" fill="none" xmlns="http://www.w3.org/2000/svg">
<g clip-path="url(#clip0_208_7458)">
<path d="M50.0537 78.0524C46.483 78.0524 42.9925 76.9952 40.0236 75.0145C37.0547 73.0337 34.7407 70.2184 33.3743 66.9245C32.0078 63.6307 31.6503 60.0062 32.3469 56.5095C33.0435 53.0127 34.763 49.8008 37.2878 47.2798C39.8127 44.7588 43.0295 43.0419 46.5316 42.3464C50.0337 41.6508 53.6637 42.0078 56.9626 43.3722C60.2614 44.7365 63.0811 47.047 65.0648 50.0114C67.0486 52.9758 68.1074 56.461 68.1074 60.0262C68.102 64.8054 66.1982 69.3873 62.8136 72.7667C59.4291 76.1461 54.8402 78.047 50.0537 78.0524ZM50.0537 42.7511C46.6318 42.7511 43.2867 43.7643 40.4415 45.6625C37.5963 47.5607 35.3787 50.2587 34.0692 53.4153C32.7597 56.5719 32.4171 60.0454 33.0847 63.3964C33.7523 66.7475 35.4001 69.8256 37.8197 72.2416C40.2394 74.6575 43.3222 76.3028 46.6784 76.9694C50.0345 77.636 53.5133 77.2938 56.6747 75.9863C59.8361 74.6788 62.5382 72.4646 64.4394 69.6238C66.3405 66.7829 67.3552 63.4429 67.3552 60.0262C67.35 55.4462 65.5255 51.0552 62.282 47.8166C59.0384 44.578 54.6407 42.7563 50.0537 42.7511V42.7511Z" fill="#F2F2F2"/>
<path d="M172.668 67.5371C170.883 67.5371 169.138 67.0085 167.653 66.0181C166.169 65.0278 165.012 63.6201 164.329 61.9732C163.646 60.3263 163.467 58.514 163.815 56.7657C164.163 55.0173 165.023 53.4113 166.286 52.1508C167.548 50.8903 169.156 50.0319 170.907 49.6841C172.658 49.3363 174.473 49.5148 176.123 50.197C177.772 50.8792 179.182 52.0344 180.174 53.5166C181.166 54.9988 181.695 56.7414 181.695 58.524C181.693 60.9136 180.741 63.2046 179.048 64.8943C177.356 66.5839 175.062 67.5344 172.668 67.5371V67.5371ZM172.668 50.262C171.032 50.262 169.432 50.7466 168.071 51.6544C166.711 52.5623 165.65 53.8526 165.024 55.3623C164.397 56.872 164.234 58.5332 164.553 60.1359C164.872 61.7385 165.66 63.2107 166.817 64.3661C167.975 65.5216 169.449 66.3085 171.054 66.6273C172.659 66.9461 174.323 66.7825 175.835 66.1571C177.347 65.5318 178.639 64.4728 179.549 63.1141C180.458 61.7555 180.943 60.1581 180.943 58.524C180.941 56.3336 180.068 54.2335 178.517 52.6846C176.966 51.1357 174.862 50.2645 172.668 50.262Z" fill="#F2F2F2"/>
<path d="M236.232 111.476C234.224 111.476 232.26 110.881 230.59 109.767C228.92 108.653 227.619 107.069 226.85 105.217C226.082 103.364 225.88 101.325 226.272 99.3581C226.664 97.3912 227.631 95.5845 229.052 94.1664C230.472 92.7483 232.281 91.7826 234.251 91.3914C236.221 91.0001 238.263 91.2009 240.119 91.9684C241.974 92.7358 243.56 94.0355 244.676 95.7029C245.792 97.3704 246.388 99.3308 246.388 101.336C246.385 104.025 245.314 106.602 243.41 108.503C241.506 110.404 238.925 111.473 236.232 111.476V111.476ZM236.232 91.9476C234.373 91.9476 232.555 92.4983 231.008 93.5299C229.462 94.5615 228.257 96.0278 227.545 97.7434C226.833 99.4589 226.647 101.347 227.01 103.168C227.373 104.989 228.268 106.662 229.583 107.975C230.898 109.288 232.574 110.182 234.398 110.545C236.222 110.907 238.113 110.721 239.831 110.01C241.549 109.3 243.017 108.096 244.051 106.552C245.084 105.008 245.635 103.193 245.635 101.336C245.633 98.8471 244.641 96.4607 242.878 94.7006C241.115 92.9405 238.725 91.9504 236.232 91.9476V91.9476Z" fill="#F2F2F2"/>
<path d="M318.624 214H233.997C233.897 214 233.802 213.96 233.731 213.89C233.661 213.82 233.621 213.724 233.621 213.624C233.621 213.525 233.661 213.429 233.731 213.359C233.802 213.288 233.897 213.249 233.997 213.249H318.624C318.724 213.249 318.819 213.288 318.89 213.359C318.96 213.429 319 213.525 319 213.624C319 213.724 318.96 213.82 318.89 213.89C318.819 213.96 318.724 214 318.624 214Z" fill="#CCCCCC"/>
<path d="M273.061 99.5512C278.163 99.5512 282.299 95.4216 282.299 90.3274C282.299 85.2333 278.163 81.1036 273.061 81.1036C267.959 81.1036 263.823 85.2333 263.823 90.3274C263.823 95.4216 267.959 99.5512 273.061 99.5512Z" fill="#FFB8B8"/>
<path d="M274.02 199.858L269.654 201.338L261.855 185.228L268.3 183.043L274.02 199.858Z" fill="#FFB8B8"/>
<path d="M266.111 201.151L274.532 198.295L276.333 203.589L262.61 208.242C262.374 207.547 262.277 206.812 262.325 206.08C262.373 205.347 262.565 204.631 262.89 203.973C263.215 203.314 263.667 202.726 264.22 202.242C264.772 201.758 265.415 201.387 266.111 201.151V201.151Z" fill="#2F2E41"/>
<path d="M283.884 208.958L279.279 209.189L276.194 191.563L282.992 191.222L283.884 208.958Z" fill="#FFB8B8"/>
<path d="M275.923 208.041L284.805 207.595L285.086 213.178L270.612 213.905C270.575 213.172 270.683 212.438 270.93 211.747C271.177 211.055 271.558 210.419 272.051 209.874C272.544 209.33 273.14 208.888 273.805 208.573C274.469 208.258 275.189 208.077 275.923 208.041V208.041Z" fill="#2F2E41"/>
<path d="M256.479 150.394C256.892 150.027 257.219 149.574 257.437 149.067C257.656 148.559 257.761 148.011 257.744 147.459C257.727 146.907 257.589 146.366 257.34 145.873C257.091 145.38 256.737 144.947 256.303 144.606L260.693 131.922L253.927 133.649L250.794 145.429C250.268 146.196 250.042 147.128 250.159 148.051C250.276 148.973 250.727 149.82 251.428 150.432C252.128 151.044 253.03 151.378 253.96 151.371C254.891 151.364 255.787 151.016 256.479 150.394Z" fill="#FFB8B8"/>
<path d="M283.454 203.644C283.395 203.644 283.335 203.641 283.276 203.634L277.024 202.973C276.64 202.935 276.281 202.765 276.008 202.494C275.734 202.222 275.562 201.864 275.521 201.481L270.69 158.477L267.194 170.245L273.711 193.372C273.778 193.608 273.792 193.855 273.753 194.097C273.715 194.338 273.624 194.569 273.488 194.772C273.351 194.975 273.172 195.146 272.963 195.273C272.753 195.401 272.519 195.481 272.275 195.509L265.939 196.236C265.535 196.281 265.129 196.18 264.794 195.951C264.458 195.723 264.215 195.383 264.11 194.991L257.186 168.965C257.129 168.751 257.114 168.528 257.144 168.308L260.256 144.95L283.468 146.808L285.146 201.902C285.153 202.128 285.114 202.354 285.032 202.565C284.95 202.776 284.827 202.968 284.669 203.13C284.511 203.293 284.322 203.422 284.114 203.51C283.905 203.598 283.681 203.644 283.454 203.644V203.644Z" fill="#2F2E41"/>
<path d="M275.431 150.803C267.654 150.803 258.85 147.803 258.316 147.618L258.162 147.565L266.935 102.618L267.096 102.625C270.573 102.765 280.061 102.838 280.156 102.838L280.327 102.84L283.984 142.504L284.637 148.306L284.557 148.371C282.32 150.177 278.983 150.803 275.431 150.803Z" fill="#E6E67D"/>
<path d="M261.382 146.918L255.895 144.711L258.691 110.933C258.759 110.101 259.012 109.294 259.434 108.572C259.855 107.85 260.434 107.232 261.126 106.764L264.014 104.801C263.932 104.524 263.918 104.231 263.971 103.947C264.025 103.663 264.145 103.396 264.322 103.167C264.5 102.938 264.729 102.755 264.991 102.631C265.253 102.508 265.54 102.449 265.829 102.458L266.656 102.485C266.814 102.379 266.999 102.323 267.189 102.324C267.378 102.326 267.563 102.384 267.719 102.492C267.874 102.6 267.994 102.753 268.061 102.93C268.128 103.107 268.141 103.3 268.096 103.484L267.914 107.063L261.382 146.918Z" fill="#2F2E41"/>
<path d="M258.613 140.863L251.448 140.562L253.769 125.655L255.692 111.629C255.73 111.125 255.881 110.637 256.135 110.2C256.389 109.763 256.738 109.389 257.157 109.105C257.575 108.822 258.053 108.637 258.553 108.564C259.054 108.49 259.564 108.531 260.047 108.683V108.683C260.798 108.918 261.443 109.41 261.868 110.073C262.292 110.735 262.47 111.526 262.369 112.306L260.421 127.503L258.613 140.863Z" fill="#2F2E41"/>
<path d="M269.957 147.435L269.908 147.284C269.875 147.181 266.646 136.84 272.049 124.499L274.758 111.045L277.073 102.597C277.117 102.446 277.195 102.307 277.301 102.192C277.408 102.076 277.54 101.987 277.687 101.931C277.86 101.872 278.046 101.864 278.223 101.91C278.401 101.955 278.56 102.051 278.683 102.187V102.187C280.297 101.714 282.032 101.887 283.52 102.67L286.771 104.38C287.494 104.76 288.07 105.369 288.409 106.112C288.748 106.854 288.831 107.688 288.645 108.482L284.201 127.418L286.361 145.105L269.957 147.435Z" fill="#2F2E41"/>
<path d="M274.689 140.144C275.239 140.204 275.795 140.142 276.318 139.964C276.842 139.786 277.319 139.495 277.718 139.113C278.117 138.73 278.427 138.265 278.626 137.75C278.825 137.235 278.908 136.683 278.871 136.132L288.934 128.688L285.417 127.023L274.565 132.604C273.642 132.729 272.798 133.187 272.191 133.892C271.584 134.597 271.258 135.5 271.273 136.429C271.288 137.359 271.644 138.25 272.274 138.935C272.904 139.62 273.763 140.05 274.689 140.144V140.144Z" fill="#FFB8B8"/>
<path d="M280.997 136.812L277.599 130.477L285.981 124.969L281.891 110.319C281.727 109.732 281.686 109.118 281.77 108.515C281.855 107.912 282.063 107.333 282.381 106.814C282.7 106.295 283.123 105.847 283.623 105.498C284.122 105.149 284.689 104.907 285.287 104.786V104.786C286.343 104.576 287.44 104.756 288.374 105.292C289.308 105.828 290.015 106.685 290.364 107.702L295.884 123.901C295.998 124.235 296.004 124.596 295.902 124.934C295.8 125.271 295.595 125.569 295.315 125.784L280.997 136.812Z" fill="#2F2E41"/>
<path d="M273.715 92.2839C272.608 92.4278 271.773 91.2965 271.385 90.2507C270.998 89.2049 270.702 87.9874 269.74 87.4225C268.424 86.6508 266.741 87.579 265.237 87.3244C263.538 87.0368 262.434 85.2393 262.347 83.5211C262.261 81.8029 262.945 80.1504 263.617 78.5663L263.852 80.535C263.821 79.8677 263.961 79.2036 264.26 78.6061C264.56 78.0087 265.007 77.4978 265.561 77.1225L265.258 80.0113C265.323 79.6127 265.465 79.2308 265.678 78.8874C265.89 78.544 266.169 78.2458 266.497 78.0101C266.825 77.7744 267.197 77.6057 267.59 77.5138C267.984 77.4218 268.392 77.4084 268.791 77.4743L268.743 79.1955C270.705 78.9626 272.685 78.7293 274.652 78.9068C276.62 79.0842 278.602 79.7059 280.093 80.9999C282.324 82.9355 283.139 86.1227 282.866 89.0611C282.592 91.9995 281.377 94.7599 280.111 97.4265C279.792 98.0974 279.352 98.8545 278.613 98.9399C277.95 99.0167 277.342 98.4627 277.136 97.8282C276.977 97.1771 276.983 96.4968 277.154 95.8487C277.34 94.8583 277.576 93.8459 277.4 92.8535C277.225 91.861 276.51 90.8803 275.508 90.7587C274.506 90.637 273.48 91.7806 273.962 92.6662L273.715 92.2839Z" fill="#2F2E41"/>
<path d="M152.85 193.562L149.254 192.05L146.787 174.051H113.937L111.263 191.976L108.046 193.583C107.892 193.659 107.769 193.786 107.696 193.942C107.623 194.097 107.605 194.273 107.644 194.44C107.684 194.607 107.779 194.756 107.914 194.863C108.049 194.97 108.216 195.028 108.388 195.028H152.554C152.73 195.028 152.901 194.967 153.038 194.855C153.174 194.744 153.268 194.588 153.303 194.416C153.338 194.243 153.312 194.064 153.229 193.908C153.147 193.752 153.013 193.63 152.85 193.562V193.562Z" fill="#E6E6E6"/>
<path d="M211.228 176.445H49.8588C49.0121 176.443 48.2008 176.106 47.6028 175.508C47.0048 174.909 46.669 174.099 46.6689 173.253V150.533H214.418V173.253C214.418 174.099 214.082 174.909 213.484 175.508C212.886 176.106 212.075 176.443 211.228 176.445V176.445Z" fill="#CCCCCC"/>
<path d="M214.586 161.271H46.5215V64.0547C46.5227 63.0345 46.9291 62.0564 47.6516 61.335C48.3742 60.6136 49.3538 60.2078 50.3756 60.2067H210.732C211.754 60.2078 212.734 60.6136 213.456 61.335C214.179 62.0564 214.585 63.0345 214.586 64.0547V161.271Z" fill="#3F3D56"/>
<path d="M204.548 154.215H56.5591C55.7714 154.214 55.0161 153.901 54.4591 153.345C53.9021 152.789 53.5888 152.035 53.5879 151.248V70.2292C53.5888 69.4426 53.9021 68.6885 54.4591 68.1323C55.0161 67.5762 55.7713 67.2633 56.5591 67.2624H204.548C205.336 67.2633 206.091 67.5762 206.648 68.1323C207.205 68.6885 207.519 69.4426 207.52 70.2292V151.248C207.519 152.035 207.205 152.789 206.648 153.345C206.091 153.901 205.336 154.214 204.548 154.215Z" fill="white"/>
<path d="M203.156 195.215H59.8546C59.7549 195.215 59.6592 195.176 59.5887 195.105C59.5181 195.035 59.4785 194.939 59.4785 194.84C59.4785 194.74 59.5181 194.645 59.5887 194.574C59.6592 194.504 59.7549 194.464 59.8546 194.464H203.156C203.256 194.464 203.351 194.504 203.422 194.574C203.492 194.645 203.532 194.74 203.532 194.84C203.532 194.939 203.492 195.035 203.422 195.105C203.351 195.176 203.256 195.215 203.156 195.215Z" fill="#CCCCCC"/>
<path d="M190.645 144.148H70.4621C70.3623 144.148 70.2666 144.109 70.1961 144.038C70.1256 143.968 70.0859 143.873 70.0859 143.773V86.2568C70.0859 86.1572 70.1256 86.0617 70.1961 85.9913C70.2666 85.9209 70.3623 85.8813 70.4621 85.8813C70.5618 85.8813 70.6575 85.9209 70.728 85.9913C70.7985 86.0617 70.8382 86.1572 70.8382 86.2568V143.397H190.645C190.745 143.397 190.841 143.437 190.911 143.507C190.982 143.578 191.021 143.673 191.021 143.773C191.021 143.873 190.982 143.968 190.911 144.038C190.841 144.109 190.745 144.148 190.645 144.148Z" fill="#3F3D56"/>
<path d="M96.1394 140.018H85.2083C84.9123 140.017 84.6285 139.9 84.4192 139.691C84.2099 139.482 84.0922 139.198 84.0918 138.903V123.857C84.0922 123.562 84.2099 123.278 84.4192 123.069C84.6285 122.86 84.9123 122.743 85.2083 122.742H96.1394C96.4354 122.743 96.7192 122.86 96.9285 123.069C97.1379 123.278 97.2556 123.562 97.256 123.857V138.903C97.2556 139.198 97.1379 139.482 96.9285 139.691C96.7192 139.9 96.4354 140.017 96.1394 140.018V140.018Z" fill="#E6E67D"/>
<path d="M116.075 140.018H105.144C104.848 140.017 104.564 139.9 104.355 139.691C104.145 139.482 104.028 139.198 104.027 138.903V109.586C104.028 109.291 104.145 109.008 104.355 108.799C104.564 108.59 104.848 108.472 105.144 108.472H116.075C116.371 108.472 116.655 108.59 116.864 108.799C117.073 109.008 117.191 109.291 117.191 109.586V138.903C117.191 139.198 117.073 139.482 116.864 139.691C116.655 139.9 116.371 140.017 116.075 140.018V140.018Z" fill="#E6E67D"/>
<path d="M136.009 140.018H125.077C124.781 140.017 124.498 139.9 124.288 139.691C124.079 139.482 123.961 139.198 123.961 138.903V123.857C123.961 123.562 124.079 123.278 124.288 123.069C124.498 122.86 124.781 122.743 125.077 122.742H136.009C136.305 122.743 136.588 122.86 136.798 123.069C137.007 123.278 137.125 123.562 137.125 123.857V138.903C137.125 139.198 137.007 139.482 136.798 139.691C136.588 139.9 136.305 140.017 136.009 140.018V140.018Z" fill="#E6E67D"/>
<path d="M155.943 140.017H145.012C144.723 140.024 144.443 139.915 144.234 139.716C144.024 139.516 143.903 139.242 143.896 138.953V103.903C143.903 103.614 144.024 103.34 144.234 103.14C144.443 102.941 144.723 102.832 145.012 102.838H155.943C156.232 102.832 156.512 102.941 156.722 103.14C156.931 103.34 157.052 103.614 157.06 103.903V138.953C157.052 139.242 156.931 139.516 156.722 139.716C156.512 139.915 156.232 140.024 155.943 140.017V140.017Z" fill="#E6E67D"/>
<path d="M175.878 140.018H164.947C164.651 140.017 164.367 139.9 164.157 139.691C163.948 139.482 163.83 139.198 163.83 138.903V93.8134C163.83 93.5179 163.948 93.2346 164.157 93.0256C164.367 92.8166 164.651 92.6991 164.947 92.6987H175.878C176.174 92.6991 176.458 92.8166 176.667 93.0256C176.876 93.2346 176.994 93.5179 176.994 93.8134V138.903C176.994 139.198 176.876 139.482 176.667 139.691C176.458 139.9 176.174 140.017 175.878 140.018V140.018Z" fill="#E6E67D"/>
<path d="M90.6747 118.236C91.921 118.236 92.9314 117.227 92.9314 115.983C92.9314 114.738 91.921 113.729 90.6747 113.729C89.4283 113.729 88.418 114.738 88.418 115.983C88.418 117.227 89.4283 118.236 90.6747 118.236Z" fill="#3F3D56"/>
<path d="M110.609 103.589C111.856 103.589 112.866 102.581 112.866 101.336C112.866 100.092 111.856 99.0829 110.609 99.0829C109.363 99.0829 108.353 100.092 108.353 101.336C108.353 102.581 109.363 103.589 110.609 103.589Z" fill="#3F3D56"/>
<path d="M130.543 118.236C131.789 118.236 132.8 117.227 132.8 115.983C132.8 114.738 131.789 113.729 130.543 113.729C129.296 113.729 128.286 114.738 128.286 115.983C128.286 117.227 129.296 118.236 130.543 118.236Z" fill="#3F3D56"/>
<path d="M150.477 96.4542C151.724 96.4542 152.734 95.4454 152.734 94.2009C152.734 92.9565 151.724 91.9476 150.477 91.9476C149.231 91.9476 148.221 92.9565 148.221 94.2009C148.221 95.4454 149.231 96.4542 150.477 96.4542Z" fill="#3F3D56"/>
<path d="M170.412 88.1922C171.658 88.1922 172.669 87.1833 172.669 85.9389C172.669 84.6944 171.658 83.6856 170.412 83.6856C169.166 83.6856 168.155 84.6944 168.155 85.9389C168.155 87.1833 169.166 88.1922 170.412 88.1922Z" fill="#3F3D56"/>
<path d="M130.591 116.487L110.609 101.544L90.9006 116.283L90.4492 115.682L110.609 100.605L130.496 115.478L150.258 93.8847L150.337 93.8524L170.271 85.8329L170.553 86.5296L150.698 94.5171L130.591 116.487Z" fill="#3F3D56"/>
</g>
<defs>
<clipPath id="clip0_208_7458">
<rect width="287" height="172" fill="white" transform="translate(32 42)"/>
</clipPath>
</defs>
</svg>
