<svg width="186" height="117" viewBox="0 0 186 117" fill="none" xmlns="http://www.w3.org/2000/svg">
<g clip-path="url(#clip0_200_5911)">
<path d="M124.055 116.157L127.543 116.168C127.987 116.169 128.412 116.009 128.727 115.723C129.041 115.437 129.219 115.049 129.221 114.643L129.303 88.0465C129.304 87.6409 129.128 87.2515 128.816 86.9637C128.503 86.6759 128.078 86.5133 127.635 86.5114L124.146 86.5006C123.703 86.4997 123.277 86.6597 122.963 86.9456C122.648 87.2314 122.471 87.6198 122.469 88.0254L122.387 114.622C122.386 115.028 122.561 115.417 122.874 115.705C123.186 115.993 123.611 116.156 124.055 116.157V116.157Z" fill="#E6E67D"/>
<path d="M132.61 116.184L136.099 116.195C136.542 116.196 136.968 116.036 137.282 115.75C137.597 115.464 137.775 115.076 137.776 114.67L137.859 88.073C137.859 87.6674 137.684 87.278 137.371 86.9902C137.059 86.7024 136.634 86.5397 136.191 86.5379L132.702 86.5271C132.258 86.5262 131.833 86.6862 131.518 86.9721C131.204 87.2579 131.026 87.6463 131.025 88.0519L130.942 114.649C130.942 115.054 131.117 115.444 131.429 115.732C131.742 116.019 132.167 116.182 132.61 116.184V116.184Z" fill="#E6E67D"/>
<path d="M129.273 53.0557C121.602 53.032 115.401 47.3243 115.422 40.3073C115.444 33.2903 121.681 27.6211 129.352 27.6448C137.023 27.6685 143.225 33.3762 143.203 40.3932C143.181 47.4102 136.945 53.0794 129.273 53.0557Z" fill="#E6E67D"/>
<path d="M121.45 44.543C120.572 44.3582 119.48 44.1282 118.757 43.407C118.543 43.1853 118.385 42.9237 118.294 42.6403C118.202 42.357 118.18 42.0588 118.228 41.7666C118.257 41.5583 118.339 41.359 118.467 41.1845C118.595 41.01 118.766 40.8649 118.965 40.7606C119.482 40.5002 120.145 40.5388 120.8 40.8537L121.135 35.9033L121.679 35.9343L121.285 41.7541L120.883 41.4874C120.418 41.1783 119.739 40.9396 119.228 41.197C119.101 41.2656 118.994 41.3599 118.913 41.4728C118.833 41.5856 118.782 41.7139 118.765 41.8476C118.731 42.0653 118.748 42.2871 118.816 42.4982C118.884 42.7092 119.001 42.9043 119.159 43.0704C119.721 43.6316 120.584 43.8494 121.572 44.0574L121.45 44.543Z" fill="#2F2E41"/>
<path d="M115.55 35.3087L118.427 35.8376L118.32 36.3261L115.443 35.7972L115.55 35.3087Z" fill="#2F2E41"/>
<path d="M124.629 36.9787L127.506 37.5076L127.399 37.9961L124.522 37.4672L124.629 36.9787Z" fill="#2F2E41"/>
<path d="M125.734 92.9213L141.928 92.9714C142.431 92.9724 142.913 92.7911 143.269 92.4671C143.626 92.1432 143.827 91.7031 143.829 91.2434L143.898 69.0142C143.904 65.5974 142.428 62.317 139.794 59.8928C137.161 57.4686 133.584 56.0984 129.848 56.083C126.007 56.0751 122.321 57.4611 119.598 59.9368C116.874 62.4126 115.336 65.7759 115.321 69.2889L115.278 83.2978C115.273 85.8407 116.371 88.282 118.331 90.0861C120.291 91.8902 122.954 92.9098 125.734 92.9213V92.9213Z" fill="#2F2E41"/>
<path d="M131.934 34.7647C131.489 33.5338 129.933 33.0546 128.637 33.0138C126.816 32.9564 125.036 33.5425 123.21 33.2724C119.897 32.7825 117.837 29.8544 117.201 27.0555C116.777 25.1886 116.821 23.2763 116.875 21.3808C116.872 21.3077 116.893 21.2354 116.934 21.1727C116.975 21.1099 117.035 21.0594 117.107 21.0271C117.178 20.9948 117.259 20.9822 117.338 20.9907C117.418 20.9993 117.493 21.0286 117.554 21.0752C118.877 21.9063 119.826 23.1473 120.225 24.5685L119.431 24.7162L119.024 21.4039C119.019 21.3219 119.042 21.2404 119.092 21.1719C119.141 21.1034 119.214 21.0515 119.299 21.024C120.543 20.6318 121.577 21.5288 122.251 22.3765C122.6 22.8155 122.934 23.2937 123.454 23.5804C123.995 23.8525 124.615 23.9643 125.229 23.9005C126.496 23.8207 127.698 23.3867 128.939 23.1738C130.079 22.9833 131.241 22.9278 132.397 23.0087C134.684 23.1626 136.899 23.8093 138.861 24.8958C140.821 25.9839 142.613 27.5359 143.649 29.4271C144.241 30.5069 144.56 31.7486 144.23 32.9424C144.097 33.4848 143.827 33.9912 143.442 34.4209C143.057 34.8507 142.567 35.1918 142.012 35.4171C141.525 35.6018 141.263 34.8935 141.746 34.71C142.668 34.3605 143.254 33.5361 143.461 32.6667C143.698 31.6731 143.415 30.6434 142.92 29.7514C141.955 28.0141 140.3 26.5668 138.493 25.5632C136.654 24.5425 134.582 23.9239 132.439 23.7558C131.391 23.6762 130.336 23.715 129.299 23.8712C128.135 24.045 127.02 24.4225 125.854 24.587C124.573 24.7677 123.246 24.6012 122.332 23.6874C121.661 23.0153 120.834 21.331 119.564 21.731L119.839 21.3512L120.246 24.6634C120.297 25.0779 119.568 25.2254 119.452 24.8111C119.092 23.5141 118.224 22.3831 117.011 21.6336L117.69 21.328C117.6 24.471 117.517 27.9448 119.8 30.5275C120.779 31.6355 122.159 32.4482 123.73 32.5818C125.5 32.7324 127.24 32.1516 129.012 32.2924C130.545 32.4142 132.192 33.0972 132.706 34.5221C132.872 34.9796 132.099 35.222 131.934 34.7647L131.934 34.7647Z" fill="#2F2E41"/>
<path d="M124.918 45.9135C124.92 45.9493 124.923 45.9853 124.926 46.0213C124.958 46.3257 125.055 46.6213 125.212 46.8912C125.369 47.1611 125.583 47.3998 125.841 47.5936L128.717 49.7615C129.238 50.1533 129.907 50.3402 130.578 50.2811C131.249 50.2221 131.867 49.922 132.297 49.4466L139.558 41.3867C139.986 40.9103 140.19 40.2981 140.125 39.6842C140.06 39.0703 139.731 38.5048 139.212 38.1118L136.336 35.9441C136.078 35.7497 135.781 35.6037 135.462 35.5143C135.143 35.4249 134.807 35.394 134.475 35.4232C134.142 35.4524 133.819 35.5413 133.525 35.6847C133.23 35.8281 132.969 36.0232 132.757 36.2589L125.495 44.3189C125.091 44.7652 124.885 45.3344 124.918 45.9135V45.9135Z" fill="#2F2E41"/>
<path d="M134.115 41.8824C133.617 41.8809 133.213 41.5098 133.215 41.0536C133.216 40.5974 133.622 40.2288 134.12 40.2304C134.619 40.2319 135.022 40.603 135.021 41.0592C135.019 41.5154 134.614 41.8839 134.115 41.8824Z" fill="white"/>
<path d="M127.877 42.0457L127.878 42.0511C127.494 42.1244 127.155 42.3266 126.926 42.6177C126.697 42.9087 126.596 43.2677 126.642 43.6238L129.656 66.7556C129.752 67.4975 130.156 68.1775 130.784 68.6556C131.412 69.1337 132.217 69.3735 133.032 69.3258C133.847 69.278 134.611 68.9463 135.167 68.3988C135.722 67.8514 136.027 67.1298 136.019 66.3827C136.018 66.2773 136.01 66.1721 135.996 66.0675L132.982 42.9358C132.933 42.5581 132.722 42.2138 132.395 41.9784C132.069 41.743 131.653 41.6359 131.24 41.6807L127.877 42.0457Z" fill="#E6E67D"/>
<path d="M25.12 27.3866C18.7293 27.3669 13.5632 22.6121 13.5813 16.7665C13.5994 10.9209 18.7947 6.19811 25.1854 6.21788C31.5761 6.23764 36.7422 10.9924 36.7241 16.838C36.706 22.6836 31.5107 27.4064 25.12 27.3866Z" fill="#E4E4E4"/>
<path d="M23.7869 21.2411C24.537 21.2244 25.4706 21.2035 26.1913 20.7252C26.4059 20.5769 26.5824 20.3874 26.7085 20.1701C26.8346 19.9528 26.9072 19.7128 26.9212 19.4671C26.9348 19.2924 26.904 19.1173 26.8313 18.9553C26.7585 18.7933 26.6459 18.6489 26.502 18.5333C26.2882 18.3863 26.0376 18.2906 25.773 18.255C25.5085 18.2193 25.2384 18.2448 24.9874 18.3291L25.6125 14.2372L25.1631 14.1794L24.4283 18.99L24.8042 18.8336C25.24 18.6523 25.8378 18.5612 26.2081 18.8494C26.2991 18.9247 26.3698 19.0181 26.4148 19.1225C26.4599 19.2269 26.478 19.3393 26.4678 19.4511C26.4562 19.634 26.4017 19.8124 26.308 19.9743C26.2143 20.1362 26.0835 20.2776 25.9246 20.3891C25.3638 20.7613 24.6196 20.8072 23.7756 20.8262L23.7869 21.2411Z" fill="#2F2E41"/>
<path d="M27.8353 14.5972L30.2793 14.6047L30.278 15.0198L27.834 15.0122L27.8353 14.5972Z" fill="#2F2E41"/>
<path d="M20.1205 14.5733L22.5645 14.5808L22.5632 14.9959L20.1192 14.9883L20.1205 14.5733Z" fill="#2F2E41"/>
<path d="M25.1017 33.5276C28.7182 33.5388 32.2564 32.5688 35.2691 30.7403C38.2817 28.9118 40.6334 26.3069 42.0268 23.255C43.4202 20.2031 43.7927 16.8413 43.0972 13.5948C42.4017 10.3482 40.6695 7.36261 38.1195 5.01562C35.5695 2.66862 32.3164 1.06561 28.7714 0.409288C25.2264 -0.247034 21.5489 0.072813 18.2038 1.32838C14.8588 2.58396 11.9964 4.71886 9.9787 7.46312C7.96101 10.2074 6.8786 13.4377 6.86837 16.7457C6.86013 21.18 8.7752 25.4373 12.1934 28.5834C15.6117 31.7295 20.2539 33.5076 25.1017 33.5276V33.5276ZM25.2037 0.53511C28.7211 0.545988 32.1565 1.51067 35.0756 3.30717C37.9946 5.10368 40.2662 7.65131 41.6031 10.6279C42.9399 13.6045 43.282 16.8764 42.586 20.0298C41.89 23.1832 40.1873 26.0764 37.6931 28.3438C35.1989 30.6111 32.0253 32.1506 28.5736 32.7676C25.1219 33.3846 21.5471 33.0514 18.3013 31.8101C15.0555 30.5688 12.2844 28.4752 10.3386 25.7941C8.39269 23.1129 7.35938 19.9646 7.36933 16.7473C7.388 12.4345 9.27617 8.30547 12.6196 5.26616C15.9631 2.22685 20.4887 0.525405 25.2037 0.53511V0.53511Z" fill="#3F3D56"/>
<path d="M41.0283 66.2379C35.935 66.2222 31.8178 62.4327 31.8322 57.7738C31.8466 53.115 35.9872 49.351 41.0805 49.3667C46.1738 49.3825 50.2911 53.172 50.2766 57.8309C50.2622 62.4897 46.1216 66.2537 41.0283 66.2379Z" fill="#E4E4E4"/>
<path d="M9.37599 66.1399C4.2827 66.1241 0.165448 62.3346 0.179856 57.6758C0.194264 53.0169 4.33487 49.253 9.42817 49.2687C14.5215 49.2845 18.6387 53.074 18.6243 57.7328C18.6099 62.3917 14.4693 66.1556 9.37599 66.1399Z" fill="#CACACA"/>
<path d="M36.5689 59.473C36.8767 59.4854 37.1773 59.3862 37.4055 59.1971C37.6337 59.0079 37.7711 58.744 37.7878 58.4626C37.7897 58.4414 37.7913 58.4201 37.7926 58.3987L44.3115 58.4189C44.3127 58.4403 44.3142 58.4615 44.316 58.4828C44.3235 58.6265 44.3626 58.7673 44.4309 58.8969C44.4991 59.0265 44.5953 59.1422 44.7135 59.2372C44.8317 59.3321 44.9696 59.4042 45.119 59.4494C45.2683 59.4945 45.426 59.5117 45.5827 59.4998C45.7458 59.4992 45.9072 59.4691 46.0574 59.4112C46.2077 59.3533 46.344 59.2688 46.4583 59.1625C46.5727 59.0562 46.663 58.9303 46.7239 58.7919C46.7848 58.6536 46.8152 58.5055 46.8133 58.3564L46.8135 58.3121C46.8145 57.735 46.5653 57.181 46.1205 56.7716C45.6756 56.3621 45.0715 56.1307 44.4406 56.1281L37.6777 56.1072C37.0468 56.1059 36.4412 56.3336 35.9939 56.7403C35.5465 57.1469 35.2939 57.6994 35.2914 58.2764L35.2912 58.3207C35.2884 58.4699 35.3179 58.6181 35.378 58.7568C35.4381 58.8955 35.5275 59.022 35.6412 59.129C35.755 59.236 35.8907 59.3214 36.0406 59.3802C36.1905 59.439 36.3516 59.4702 36.5147 59.4718C36.5327 59.4725 36.5508 59.4729 36.5689 59.473Z" fill="white"/>
<path d="M7.26806 62.3701C7.42259 62.3705 7.5768 62.3573 7.72854 62.3307C8.03571 62.2777 8.3283 62.1695 8.58937 62.0123C8.85044 61.8552 9.0748 61.6522 9.24949 61.4152L13.044 56.2963C13.3973 55.8184 13.5289 55.2317 13.4099 54.665C13.291 54.0982 12.9311 53.5976 12.4092 53.273L12.3691 53.2481C12.2354 53.1626 12.0846 53.1022 11.9253 53.0703C11.766 53.0383 11.6014 53.0355 11.4409 53.0619C11.2805 53.0884 11.1273 53.1436 10.9903 53.2244C10.8533 53.3052 10.7351 53.41 10.6426 53.5327C10.544 53.6446 10.471 53.7734 10.4278 53.9116C10.3847 54.0497 10.3723 54.1944 10.3913 54.3371C10.4104 54.4797 10.4605 54.6174 10.5387 54.7421C10.617 54.8667 10.7218 54.9758 10.8469 55.0628C10.865 55.0761 10.8834 55.0893 10.902 55.1021L7.24452 60.0363C7.22456 60.0253 7.20445 60.0145 7.1842 60.004C7.04959 59.9299 6.90011 59.8811 6.74459 59.8607C6.58907 59.8404 6.43068 59.8487 6.27878 59.8853C6.12687 59.9218 5.98454 59.9859 5.8602 60.0736C5.73586 60.1614 5.63203 60.2711 5.55486 60.3962C5.46436 60.5203 5.4016 60.6595 5.37019 60.8059C5.33879 60.9522 5.33936 61.1029 5.37187 61.2491C5.40437 61.3953 5.46817 61.5341 5.55959 61.6577C5.65102 61.7813 5.76825 61.8871 5.90456 61.9691L5.94484 61.9941C6.33499 62.2376 6.79589 62.3685 7.26806 62.3701V62.3701Z" fill="white"/>
</g>
<defs>
<clipPath id="clip0_200_5911">
<rect width="185" height="116" fill="white" transform="matrix(-0.999995 -0.00309259 -0.00309259 0.999995 185.357 0.572144)"/>
</clipPath>
</defs>
</svg>
