<svg width="146" height="117" viewBox="0 0 146 117" fill="none" xmlns="http://www.w3.org/2000/svg">
<g clip-path="url(#clip0_200_5779)">
<path d="M32.0388 43.6408C24.6507 43.6179 18.6803 37.4971 18.7036 29.9696C18.7268 22.4421 24.735 16.3584 32.1231 16.3812C39.5112 16.4041 45.4816 22.5249 45.4583 30.0524C45.4351 37.5799 39.4269 43.6636 32.0388 43.6408Z" fill="#E6E67D"/>
<path d="M30.837 114.265L30.9338 82.9364C30.9347 82.4975 30.7647 82.0762 30.461 81.7649C30.1574 81.4537 29.745 81.2778 29.3143 81.276L25.6251 81.2646C25.1944 81.2637 24.7808 81.437 24.4753 81.7464C24.1698 82.0558 23.9971 82.476 23.9953 82.9149L23.8984 114.243C23.8975 114.682 24.0676 115.103 24.3712 115.415C24.6748 115.726 25.0872 115.902 25.518 115.904L29.2071 115.915C29.6379 115.916 30.0514 115.742 30.3569 115.433C30.6625 115.124 30.8351 114.703 30.837 114.265V114.265Z" fill="#2F2E41"/>
<path d="M38.6338 114.289L38.7307 82.9605C38.7316 82.5217 38.5615 82.1004 38.2579 81.7891C37.9543 81.4778 37.5419 81.302 37.1111 81.3002L33.4218 81.2887C32.9911 81.2879 32.5776 81.4612 32.272 81.7706C31.9665 82.08 31.7939 82.5002 31.792 82.9391L31.6951 114.267C31.6943 114.706 31.8643 115.127 32.1679 115.439C32.4715 115.75 32.884 115.926 33.3147 115.928L37.004 115.939C37.4348 115.94 37.8482 115.767 38.1538 115.457C38.4593 115.148 38.632 114.728 38.6338 114.289V114.289Z" fill="#2F2E41"/>
<path d="M41.765 84.8704L41.8508 57.1254C41.8592 54.4216 40.813 51.8253 38.9424 49.9076C37.0718 47.9899 34.5301 46.9079 31.8763 46.8997L31.8763 46.8997C29.2225 46.8915 26.6742 47.9577 24.7918 49.8638C22.9093 51.7699 21.8471 54.3597 21.8388 57.0636L21.7529 84.8085C21.7516 85.2475 21.9215 85.6691 22.2252 85.9805C22.5289 86.2919 22.9416 86.4675 23.3725 86.4689L40.1352 86.5207C40.5661 86.522 40.9799 86.3489 41.2855 86.0394C41.5912 85.7299 41.7636 85.3094 41.765 84.8704V84.8704Z" fill="#2F2E41"/>
<path d="M43.3591 36.071L43.3467 35.5616C44.2768 35.5381 45.0969 35.4812 45.7145 35.0245C45.8896 34.8876 46.0337 34.7139 46.137 34.5153C46.2403 34.3166 46.3004 34.0976 46.3133 33.8731C46.3245 33.736 46.3046 33.598 46.255 33.47C46.2054 33.342 46.1275 33.2274 46.0274 33.1351C45.6195 32.7819 44.9611 32.8937 44.4807 33.1163L44.0665 33.3083L44.8779 27.4048L45.373 27.4755L44.6828 32.4972C45.3351 32.304 45.9388 32.3899 46.3513 32.7471C46.5097 32.8888 46.6337 33.066 46.7138 33.2647C46.7938 33.4634 46.8277 33.6783 46.8127 33.8925C46.7972 34.1941 46.7172 34.4886 46.5782 34.7554C46.4391 35.0221 46.2446 35.2547 46.0081 35.4368C45.2146 36.0237 44.1858 36.0499 43.3591 36.071Z" fill="#2F2E41"/>
<path d="M39.3227 27.8901L42.0151 27.8984L42.0136 28.4078L39.3212 28.3995L39.3227 27.8901Z" fill="#2F2E41"/>
<path d="M26.6192 84.8043C26.7772 84.658 26.905 84.4812 26.9954 84.2841C27.0858 84.0871 27.1369 83.8737 27.1458 83.6564L28.5162 52.3594C28.5257 52.1422 28.4932 51.9253 28.4204 51.7209C28.3476 51.5166 28.2361 51.3289 28.0921 51.1685C27.9481 51.0081 27.7745 50.8781 27.5812 50.7861C27.3879 50.6941 27.1788 50.6417 26.9656 50.6321L23.28 50.4649C22.8496 50.4458 22.4294 50.6015 22.1116 50.8978C21.7937 51.194 21.6042 51.6066 21.5846 52.045L20.2141 83.3423C20.1954 83.7808 20.3482 84.2089 20.6389 84.5327C20.9296 84.8565 21.3345 85.0496 21.7648 85.0696L25.4503 85.2366C25.5678 85.2421 25.6855 85.2346 25.8015 85.2144C26.1071 85.1606 26.391 85.0182 26.6192 84.8043V84.8043Z" fill="#E6E67D"/>
<path d="M21.9813 63.6048L27.9802 63.6233C28.4109 63.6242 28.8245 63.4509 29.13 63.1415C29.4355 62.8321 29.6082 62.4119 29.61 61.973L29.6368 53.3142C29.6407 52.0646 29.1572 50.8648 28.2927 49.9785C27.4282 49.0923 26.2536 48.5923 25.0272 48.5885C23.8008 48.5847 22.6231 49.0774 21.7532 49.9583C20.8832 50.8392 20.3923 52.036 20.3885 53.2856L20.3617 61.9444C20.3608 62.3833 20.5308 62.8046 20.8345 63.1158C21.1381 63.4271 21.5505 63.6029 21.9813 63.6048V63.6048Z" fill="#2F2E41"/>
<path d="M60.4685 75.3239L62.8292 72.4352C63.1044 72.0976 63.237 71.6625 63.1979 71.2255C63.1587 70.7884 62.951 70.3851 62.6203 70.1039L38.9911 50.0603C38.6599 49.7797 38.2329 49.6445 37.8039 49.6844C37.3749 49.7244 36.9789 49.9362 36.703 50.2733L34.3424 53.1623C34.2058 53.3293 34.103 53.5222 34.0396 53.7297C33.9762 53.9373 33.9535 54.1556 33.9729 54.372C33.9923 54.5885 34.0534 54.799 34.1526 54.9914C34.2519 55.1838 34.3874 55.3545 34.5513 55.4935L58.1803 75.537C58.4648 75.7782 58.8216 75.9133 59.1918 75.9199C59.5619 75.9266 59.9231 75.8044 60.2159 75.5735C60.3086 75.4998 60.3933 75.4161 60.4685 75.3239V75.3239Z" fill="#E6E67D"/>
<path d="M43.0376 62.2623L46.8523 57.5447C47.1258 57.2056 47.2562 56.7699 47.2148 56.333C47.1735 55.8962 46.9637 55.4939 46.6316 55.2145L40.0726 49.7091C39.604 49.3156 39.0638 49.02 38.483 48.8392C37.9022 48.6583 37.2921 48.5959 36.6876 48.6553C36.083 48.7148 35.4959 48.895 34.9597 49.1857C34.4235 49.4763 33.9488 49.8718 33.5625 50.3494C33.1763 50.827 32.8862 51.3774 32.7088 51.9693C32.5314 52.5611 32.4702 53.1827 32.5286 53.7987C32.587 54.4146 32.7639 55.0127 33.0493 55.5589C33.3346 56.1052 33.7228 56.5888 34.1916 56.9821L40.7505 62.4875C41.0833 62.7661 41.5109 62.8989 41.9397 62.8567C42.3684 62.8145 42.7633 62.6007 43.0376 62.2623V62.2623Z" fill="#2F2E41"/>
<path d="M28.7201 32.3084C28.0272 31.1205 27.486 29.8124 27.7491 28.4083C27.9841 27.1546 28.8732 26.1803 30.1477 26.056C30.9152 25.9812 31.6782 26.1922 32.4272 26.3305C33.0412 26.4423 33.6653 26.4854 34.2884 26.4591C35.5423 26.4049 36.7723 26.0912 37.9035 25.5371C39.0516 24.9941 40.0722 24.2069 40.8969 23.2284C41.7215 22.25 42.331 21.1031 42.6843 19.8647C43.4533 17.0469 42.8987 13.8427 41.1002 11.5415L41.7274 11.3749L40.903 14.1035C40.887 14.1595 40.8586 14.211 40.8202 14.2542C40.7818 14.2974 40.7343 14.3312 40.6812 14.353C40.6281 14.3748 40.5709 14.3841 40.5138 14.3801C40.4567 14.3762 40.4012 14.3591 40.3516 14.3301C38.8757 13.3736 37.2245 12.7325 35.4981 12.4458C33.7716 12.159 32.006 12.2327 30.3083 12.6622C29.349 12.9046 28.422 13.2646 27.5477 13.7342C27.121 13.9636 26.7438 13.3032 27.1712 13.0734C28.8134 12.207 30.611 11.6891 32.4551 11.5509C34.2993 11.4127 36.1518 11.6571 37.9006 12.2693C38.8965 12.6186 39.8472 13.0895 40.7321 13.6716L40.1806 13.8982L41.005 11.1696C41.0233 11.1058 41.0576 11.0479 41.1045 11.0016C41.1513 10.9553 41.2091 10.9221 41.2723 10.9054C41.3354 10.8886 41.4018 10.8888 41.4648 10.9058C41.5279 10.9229 41.5855 10.9564 41.6321 11.0029C42.4686 12.0909 43.0802 13.3401 43.4301 14.6754C43.78 16.0107 43.8609 17.4043 43.6681 18.7724C43.4816 20.1208 43.0175 21.4138 42.3063 22.5667C41.595 23.7196 40.6526 24.7064 39.5409 25.4623C38.4303 26.2211 37.183 26.7479 35.8713 27.0123C34.5596 27.2768 33.2094 27.2736 31.899 27.0029C31.1656 26.8569 30.334 26.6485 29.613 26.9594C29.3515 27.0869 29.1207 27.2716 28.9371 27.5002C28.7535 27.7289 28.6215 27.9959 28.5506 28.2824C28.1383 29.6898 28.8284 31.0296 29.534 32.2031L28.7201 32.3084Z" fill="#2F2E41"/>
<path d="M35.3385 59.1263L35.3478 59.1262C35.4876 59.1262 35.6232 59.0778 35.7324 58.9889C35.8416 58.9001 35.918 58.7761 35.9489 58.6372L35.9329 48.0253C35.965 47.8818 35.9481 47.7314 35.8848 47.5991C35.8216 47.4667 35.7158 47.3604 35.5851 47.2977C33.7747 46.4243 31.9017 46.3019 29.8589 46.9241C29.7026 46.9707 29.5704 47.0776 29.4903 47.2221C29.4101 47.3666 29.3885 47.5371 29.4299 47.6976L34.7365 58.6506C34.77 58.7872 34.8475 58.9083 34.9567 58.9946C35.0659 59.0809 35.2004 59.1272 35.3385 59.1263Z" fill="#CCCCCC"/>
<path d="M61.1278 79.463L107.619 79.6068C108.249 79.608 108.853 79.3547 109.3 78.9025C109.746 78.4504 109.999 77.8362 110.002 77.1948L110.11 42.0502C110.111 41.4088 109.863 40.7931 109.419 40.3381C108.975 39.8832 108.373 39.6262 107.743 39.6235L61.2514 39.4797C60.6219 39.4785 60.0175 39.7318 59.5709 40.184C59.1244 40.6362 58.8721 41.2503 58.8694 41.8918L58.7607 77.0363C58.7594 77.6777 59.0079 78.2934 59.4517 78.7484C59.8954 79.2033 60.4982 79.4603 61.1278 79.463V79.463Z" fill="white"/>
<path d="M101.654 62.6298L92.6623 62.7523L87.4253 62.7361C87.1933 62.7351 86.9713 62.6405 86.8078 62.4728C86.6443 62.3052 86.5527 62.0784 86.5532 61.8421L86.5542 61.5306L91.079 56.6041C91.1593 56.5166 91.2561 56.4466 91.3636 56.3981C91.4711 56.3496 91.5871 56.3237 91.7047 56.3219C91.8222 56.32 91.9389 56.3424 92.0478 56.3876C92.1566 56.4327 92.2555 56.4998 92.3383 56.5847L96.7595 61.1173C96.8764 61.2369 97.035 61.3044 97.2006 61.305C97.3662 61.3055 97.5252 61.2392 97.6429 61.1204L98.3014 60.4547C98.4662 60.2884 98.6889 60.1954 98.9209 60.1963C99.1528 60.1971 99.3749 60.2916 99.5384 60.4592L101.654 62.6298Z" fill="#E6E67D"/>
<path d="M61.1278 79.463L107.619 79.6068C108.249 79.608 108.853 79.3547 109.3 78.9025C109.746 78.4504 109.999 77.8362 110.002 77.1948L110.11 42.0502C110.111 41.4088 109.863 40.7931 109.419 40.3381C108.975 39.8832 108.373 39.6262 107.743 39.6235L61.2514 39.4797C60.6219 39.4785 60.0175 39.7318 59.5709 40.184C59.1244 40.6362 58.8721 41.2503 58.8694 41.8918L58.7607 77.0363C58.7594 77.6777 59.0079 78.2934 59.4517 78.7484C59.8954 79.2033 60.4982 79.4603 61.1278 79.463V79.463ZM107.741 40.3875C108.171 40.3894 108.584 40.5652 108.888 40.8765C109.191 41.1877 109.361 41.609 109.36 42.0479L109.252 77.1924C109.25 77.6313 109.077 78.0515 108.772 78.3609C108.466 78.6703 108.053 78.8436 107.622 78.8428L61.1301 78.699C60.6994 78.6972 60.287 78.5213 59.9833 78.21C59.6797 77.8988 59.5097 77.4775 59.5105 77.0386L59.6192 41.8941C59.6211 41.4552 59.7937 41.035 60.0993 40.7256C60.4048 40.4162 60.8183 40.2429 61.2491 40.2437L107.741 40.3875Z" fill="#3F3D56"/>
<path d="M66.4813 45.7354L102.475 45.8468C102.674 45.8474 102.865 45.7675 103.006 45.6246C103.147 45.4818 103.227 45.2877 103.227 45.0851C103.228 44.8824 103.149 44.6879 103.009 44.5441C102.869 44.4004 102.679 44.3193 102.48 44.3187L66.4861 44.2074C66.2872 44.2068 66.0962 44.2867 65.9551 44.4295C65.8141 44.5724 65.7345 44.7665 65.7338 44.9691C65.7332 45.1717 65.8116 45.3663 65.9518 45.51C66.092 45.6537 66.2825 45.7348 66.4813 45.7354V45.7354Z" fill="#3F3D56"/>
<path d="M66.3432 49.9371L102.337 50.0484C102.536 50.049 102.727 49.9691 102.868 49.8263C103.009 49.6834 103.088 49.4893 103.089 49.2867C103.09 49.0841 103.011 48.8895 102.871 48.7458C102.731 48.6021 102.54 48.521 102.341 48.5204L66.3479 48.4091C66.149 48.4085 65.958 48.4884 65.8169 48.6312C65.6759 48.774 65.5963 48.9681 65.5957 49.1708C65.595 49.3734 65.6734 49.568 65.8136 49.7117C65.9538 49.8554 66.1443 49.9365 66.3432 49.9371V49.9371Z" fill="#3F3D56"/>
<path d="M66.2051 54.1389L83.452 54.1922C83.6508 54.1928 83.8418 54.1129 83.9829 53.9701C84.124 53.8272 84.2036 53.6331 84.2042 53.4305C84.2048 53.2279 84.1264 53.0333 83.9862 52.8896C83.846 52.7459 83.6556 52.6648 83.4567 52.6642L66.2098 52.6108C66.0109 52.6102 65.8199 52.6901 65.6789 52.833C65.5378 52.9758 65.4582 53.1699 65.4576 53.3725C65.4569 53.5752 65.5353 53.7697 65.6755 53.9135C65.8157 54.0572 66.0062 54.1383 66.2051 54.1389V54.1389Z" fill="#3F3D56"/>
<path d="M66.0673 58.3405L83.3143 58.3939C83.5131 58.3945 83.7041 58.3146 83.8452 58.1717C83.9863 58.0289 84.0659 57.8348 84.0665 57.6322C84.0671 57.4296 83.9887 57.235 83.8485 57.0913C83.7083 56.9475 83.5179 56.8665 83.319 56.8658L66.0721 56.8125C65.8732 56.8119 65.6822 56.8918 65.5411 57.0346C65.4001 57.1775 65.3205 57.3716 65.3198 57.5742C65.3192 57.7768 65.3976 57.9714 65.5378 58.1151C65.678 58.2588 65.8685 58.3399 66.0673 58.3405V58.3405Z" fill="#3F3D56"/>
<path d="M65.9292 62.5422L83.1761 62.5955C83.375 62.5961 83.5659 62.5162 83.707 62.3734C83.8481 62.2305 83.9277 62.0365 83.9283 61.8338C83.9289 61.6312 83.8505 61.4366 83.7103 61.2929C83.5702 61.1492 83.3797 61.0681 83.1808 61.0675L65.9339 61.0142C65.735 61.0136 65.5441 61.0935 65.403 61.2363C65.2619 61.3791 65.1823 61.5732 65.1817 61.7759C65.1811 61.9785 65.2595 62.1731 65.3996 62.3168C65.5398 62.4605 65.7303 62.5416 65.9292 62.5422V62.5422Z" fill="#3F3D56"/>
<path d="M65.7914 66.744L101.785 66.8553C101.984 66.8559 102.175 66.776 102.316 66.6332C102.457 66.4903 102.537 66.2962 102.537 66.0936C102.538 65.891 102.459 65.6964 102.319 65.5527C102.179 65.409 101.989 65.3279 101.79 65.3273L65.7961 65.216C65.5972 65.2153 65.4063 65.2952 65.2652 65.4381C65.1241 65.5809 65.0445 65.775 65.0439 65.9777C65.0433 66.1803 65.1217 66.3749 65.2618 66.5186C65.402 66.6623 65.5925 66.7434 65.7914 66.744V66.744Z" fill="#3F3D56"/>
<path d="M65.6532 70.9456L101.647 71.057C101.846 71.0576 102.037 70.9777 102.178 70.8348C102.319 70.692 102.398 70.4979 102.399 70.2953C102.4 70.0926 102.321 69.8981 102.181 69.7543C102.041 69.6106 101.85 69.5295 101.652 69.5289L65.6579 69.4176C65.459 69.417 65.2681 69.4969 65.127 69.6397C64.9859 69.7826 64.9063 69.9767 64.9057 70.1793C64.9051 70.3819 64.9835 70.5765 65.1236 70.7202C65.2638 70.8639 65.4543 70.945 65.6532 70.9456V70.9456Z" fill="#3F3D56"/>
<path d="M65.5155 75.1473L101.509 75.2586C101.708 75.2592 101.899 75.1793 102.04 75.0365C102.181 74.8936 102.261 74.6996 102.261 74.4969C102.262 74.2943 102.184 74.0997 102.043 73.956C101.903 73.8123 101.713 73.7312 101.514 73.7306L65.5203 73.6193C65.3214 73.6187 65.1304 73.6986 64.9893 73.8414C64.8483 73.9843 64.7687 74.1783 64.768 74.381C64.7674 74.5836 64.8458 74.7782 64.986 74.9219C65.1262 75.0656 65.3167 75.1467 65.5155 75.1473Z" fill="#3F3D56"/>
<path d="M87.4248 62.8633L101.422 62.9066C101.631 62.9078 101.836 62.855 102.019 62.7531L102.022 62.7531L102.086 62.7143C102.266 62.6007 102.415 62.4422 102.518 62.2537C102.621 62.0652 102.676 61.853 102.676 61.6371L102.7 53.997C102.7 53.6594 102.57 53.3353 102.336 53.0959C102.102 52.8564 101.785 52.7212 101.454 52.7198L87.4563 52.6765C87.125 52.6758 86.8069 52.8091 86.5719 53.0471C86.3368 53.2851 86.2041 53.6084 86.2026 53.946L86.179 61.5861C86.1783 61.9237 86.3091 62.2477 86.5427 62.4872C86.7762 62.7266 87.0935 62.8619 87.4248 62.8633V62.8633ZM101.853 62.2609L101.817 62.2833C101.699 62.3588 101.563 62.3984 101.424 62.3973L87.4264 62.354C87.2276 62.3531 87.0372 62.272 86.8971 62.1283C86.757 61.9846 86.6785 61.7902 86.6789 61.5876L86.7025 53.9475C86.7034 53.745 86.7831 53.551 86.9241 53.4082C87.0651 53.2654 87.256 53.1854 87.4548 53.1858L101.452 53.2291C101.651 53.23 101.841 53.3111 101.982 53.4548C102.122 53.5984 102.2 53.7929 102.2 53.9954L102.176 61.6356C102.176 61.7587 102.146 61.8799 102.09 61.9888C102.034 62.0977 101.952 62.1911 101.853 62.2609V62.2609Z" fill="#3F3D56"/>
<path d="M144.56 85.3447C144.684 85.3728 144.799 85.4361 144.89 85.5275C144.981 85.6188 145.045 85.7345 145.075 85.8612C145.104 85.9879 145.098 86.1205 145.057 86.2439C145.016 86.3673 144.942 86.4764 144.843 86.5587L141.829 89.0637C141.785 89.101 141.748 89.1466 141.721 89.1981C141.696 89.2502 141.682 89.3069 141.679 89.3648L141.451 94.0074C141.446 94.1593 141.391 94.3052 141.296 94.4216C141.2 94.538 141.068 94.6182 140.922 94.6492L140.917 94.6504C140.772 94.685 140.621 94.6693 140.486 94.606C140.352 94.5427 140.242 94.4353 140.174 94.3009L139.113 92.2862C139.077 92.2198 139.025 92.1646 138.961 92.1264C138.897 92.0882 138.824 92.0685 138.75 92.0693C138.695 92.0691 138.641 92.0804 138.591 92.1025C138.541 92.1246 138.496 92.157 138.458 92.1978L133.23 97.7798C133.155 97.8608 133.061 97.9219 132.957 97.9578C132.854 97.9937 132.743 98.0033 132.634 97.9858C132.527 97.9685 132.424 97.9249 132.336 97.8589C132.248 97.7928 132.177 97.7062 132.129 97.6063L124.675 82.0603C124.618 81.9433 124.596 81.8124 124.609 81.6827C124.622 81.5531 124.671 81.4299 124.75 81.3273C124.83 81.2248 124.935 81.1471 125.056 81.1031C125.176 81.0591 125.307 81.0507 125.431 81.0787L125.677 81.1333L144.56 85.3447L144.56 85.3447ZM144.672 86.3444C144.731 86.2949 144.776 86.2293 144.8 86.1552C144.825 86.0811 144.828 86.0014 144.81 85.9254C144.792 85.8493 144.754 85.78 144.699 85.7252C144.644 85.6705 144.576 85.6325 144.501 85.6157L125.624 81.4058L125.373 81.3497C125.298 81.3333 125.22 81.3386 125.148 81.3651C125.076 81.3916 125.013 81.4381 124.965 81.4994C124.918 81.5608 124.888 81.6344 124.88 81.712C124.872 81.7896 124.885 81.8679 124.918 81.9382L132.373 97.4842C132.402 97.5442 132.444 97.5962 132.497 97.6359C132.55 97.6755 132.612 97.7015 132.677 97.7117C132.741 97.7219 132.808 97.716 132.87 97.6945C132.932 97.673 132.988 97.6365 133.034 97.5882L138.262 92.0062C138.313 91.9504 138.373 91.9039 138.44 91.8689L125.369 82.0236C125.318 81.9857 125.281 81.9307 125.265 81.8681C125.25 81.8054 125.256 81.7392 125.283 81.6807C125.31 81.6222 125.356 81.5752 125.414 81.5478C125.471 81.5204 125.536 81.5144 125.598 81.5307C125.613 81.5345 125.627 81.5398 125.641 81.5465L141.552 88.958C141.583 88.9179 141.619 88.8815 141.658 88.8494L144.672 86.3444L144.672 86.3444Z" fill="#E6E6E6"/>
<path d="M144.56 85.3447C144.684 85.3728 144.799 85.4361 144.89 85.5275C144.981 85.6188 145.045 85.7345 145.075 85.8612C145.104 85.9879 145.098 86.1205 145.057 86.2439C145.016 86.3673 144.942 86.4764 144.843 86.5587L141.829 89.0637C141.785 89.101 141.748 89.1466 141.721 89.1981C141.696 89.2502 141.682 89.3069 141.679 89.3648L141.451 94.0074C141.446 94.1593 141.391 94.3052 141.296 94.4216C141.2 94.538 141.068 94.6182 140.922 94.6492L140.917 94.6504C140.772 94.685 140.621 94.6693 140.486 94.606C140.352 94.5427 140.242 94.4353 140.174 94.3009L139.113 92.2862C139.077 92.2198 139.025 92.1646 138.961 92.1264C138.897 92.0882 138.824 92.0685 138.75 92.0693C138.695 92.0691 138.641 92.0804 138.591 92.1025C138.541 92.1246 138.496 92.157 138.458 92.1978L133.23 97.7798C133.155 97.8608 133.061 97.9219 132.957 97.9578C132.854 97.9937 132.743 98.0033 132.634 97.9858C132.527 97.9685 132.424 97.9249 132.336 97.8589C132.248 97.7928 132.177 97.7062 132.129 97.6063L124.675 82.0603C124.618 81.9433 124.596 81.8124 124.609 81.6827C124.622 81.5531 124.671 81.4299 124.75 81.3273C124.83 81.2248 124.935 81.1471 125.056 81.1031C125.176 81.0591 125.307 81.0507 125.431 81.0787L125.677 81.1333L144.56 85.3447L144.56 85.3447ZM144.672 86.3444C144.731 86.2949 144.776 86.2293 144.8 86.1552C144.825 86.0811 144.828 86.0014 144.81 85.9254C144.792 85.8493 144.754 85.78 144.699 85.7252C144.644 85.6705 144.576 85.6325 144.501 85.6157L125.624 81.4058L125.373 81.3497C125.298 81.3333 125.22 81.3386 125.148 81.3651C125.076 81.3916 125.013 81.4381 124.965 81.4994C124.918 81.5608 124.888 81.6344 124.88 81.712C124.872 81.7896 124.885 81.8679 124.918 81.9382L132.373 97.4842C132.402 97.5442 132.444 97.5962 132.497 97.6358C132.55 97.6754 132.612 97.7015 132.677 97.7117C132.741 97.7219 132.808 97.716 132.87 97.6945C132.932 97.673 132.988 97.6365 133.034 97.5882L138.262 92.0062C138.313 91.9504 138.373 91.9039 138.44 91.8689C138.535 91.818 138.641 91.7915 138.749 91.7918C138.764 91.7912 138.779 91.792 138.795 91.7928L138.796 91.7925C138.911 91.7997 139.023 91.8368 139.12 91.9002C139.218 91.9637 139.297 92.0514 139.352 92.1551L140.414 94.1712C140.454 94.2522 140.52 94.3168 140.601 94.3546C140.682 94.3924 140.774 94.4012 140.86 94.3796L140.863 94.379C140.951 94.361 141.03 94.313 141.087 94.243C141.145 94.1731 141.178 94.0852 141.18 93.9939L141.408 89.3514C141.41 89.3024 141.417 89.2537 141.43 89.2063L141.429 89.2049C141.441 89.1594 141.458 89.1153 141.479 89.0734C141.499 89.0324 141.524 88.9937 141.552 88.958C141.583 88.9179 141.619 88.8815 141.658 88.8494L144.672 86.3444L144.672 86.3444Z" fill="#CCCCCC"/>
<path d="M141.552 88.958L125.641 81.5465C125.627 81.5398 125.613 81.5345 125.598 81.5307C125.536 81.5144 125.471 81.5204 125.414 81.5478C125.356 81.5752 125.31 81.6222 125.283 81.6807C125.256 81.7391 125.249 81.8054 125.265 81.868C125.281 81.9307 125.318 81.9857 125.369 82.0236L138.439 91.8689L138.67 92.043L138.831 91.8202L138.796 91.7925L138.795 91.7928L125.531 81.8005L141.429 89.2049L141.43 89.2063L141.499 89.2376L141.612 88.9858L141.552 88.958Z" fill="#CCCCCC"/>
<path d="M49.6238 92.946L68.5321 88.8515L68.7779 88.7984C68.903 88.7711 69.0331 88.7803 69.1533 88.8251C69.2735 88.8698 69.3789 88.9482 69.4573 89.0512C69.5357 89.1542 69.584 89.2777 69.5966 89.4075C69.6092 89.5372 69.5856 89.668 69.5285 89.7847L61.9782 105.284C61.9293 105.384 61.8577 105.47 61.7693 105.536C61.681 105.601 61.5785 105.644 61.4704 105.661C61.3621 105.677 61.2513 105.667 61.1477 105.631C61.0442 105.594 60.9509 105.532 60.8759 105.451L55.6823 99.8366C55.6454 99.7957 55.6005 99.763 55.5506 99.7406C55.5006 99.7182 55.4467 99.7065 55.3921 99.7064C55.3179 99.7051 55.2447 99.7244 55.1805 99.7622C55.1162 99.8 55.0632 99.8549 55.0272 99.921L53.9537 101.929C53.8851 102.063 53.7746 102.17 53.6396 102.232C53.5047 102.295 53.3531 102.309 53.209 102.274L53.2037 102.273C53.0578 102.241 52.9268 102.16 52.8316 102.043C52.7364 101.926 52.6825 101.78 52.6788 101.628L52.4793 96.9839C52.4769 96.9259 52.4629 96.8691 52.4381 96.8169C52.4115 96.7652 52.3752 96.7194 52.3314 96.6818L49.3329 94.1582C49.2344 94.0753 49.1607 93.9657 49.1205 93.8421C49.0802 93.7185 49.075 93.5858 49.1054 93.4592C49.1357 93.3327 49.2005 93.2175 49.2921 93.1267C49.3838 93.0359 49.4988 92.9733 49.6238 92.946L49.6238 92.946ZM49.5052 93.945L52.5037 96.4686C52.5428 96.5008 52.5781 96.5375 52.6092 96.5778L68.565 89.2649C68.5791 89.2582 68.5938 89.253 68.6088 89.2493C68.6703 89.2334 68.7354 89.2398 68.7927 89.2676C68.85 89.2953 68.896 89.3426 68.9228 89.4012C68.9495 89.4599 68.9553 89.5262 68.9391 89.5887C68.9229 89.6513 68.8858 89.7061 68.8342 89.7437L55.7033 99.5079C55.7697 99.5433 55.8295 99.5902 55.8803 99.6463L61.0738 105.261C61.1189 105.309 61.1748 105.346 61.2368 105.368C61.2989 105.39 61.3652 105.396 61.4301 105.386C61.495 105.376 61.5567 105.351 61.6098 105.311C61.6629 105.272 61.706 105.22 61.7352 105.161L69.2855 89.661C69.3193 89.591 69.3331 89.5127 69.3253 89.4351C69.3175 89.3574 69.2885 89.2836 69.2415 89.222C69.1946 89.1604 69.1316 89.1134 69.0597 89.0865C68.9878 89.0596 68.91 89.0538 68.835 89.0697L68.5835 89.1243L49.681 93.2174C49.6059 93.2337 49.5369 93.2712 49.4818 93.3256C49.4267 93.3801 49.3877 93.4492 49.3694 93.5251C49.3511 93.601 49.3541 93.6807 49.3781 93.7549C49.4021 93.8292 49.4462 93.8951 49.5052 93.945L49.5052 93.945Z" fill="#E6E6E6"/>
<path d="M49.6238 92.946L68.5321 88.8515L68.7779 88.7984C68.903 88.7711 69.0331 88.7803 69.1533 88.8251C69.2735 88.8698 69.3789 88.9482 69.4573 89.0512C69.5357 89.1542 69.584 89.2777 69.5966 89.4075C69.6092 89.5372 69.5856 89.668 69.5285 89.7847L61.9782 105.284C61.9293 105.384 61.8577 105.47 61.7693 105.536C61.681 105.601 61.5785 105.644 61.4704 105.661C61.3621 105.677 61.2513 105.667 61.1477 105.631C61.0442 105.594 60.9509 105.532 60.8759 105.451L55.6823 99.8366C55.6454 99.7957 55.6005 99.763 55.5506 99.7406C55.5006 99.7182 55.4467 99.7065 55.3921 99.7064C55.3179 99.7051 55.2447 99.7244 55.1805 99.7622C55.1162 99.8 55.0632 99.8549 55.0272 99.921L53.9537 101.929C53.8851 102.063 53.7746 102.17 53.6396 102.232C53.5047 102.295 53.3531 102.309 53.209 102.274L53.2037 102.273C53.0578 102.241 52.9268 102.16 52.8316 102.043C52.7364 101.926 52.6825 101.78 52.6788 101.628L52.4793 96.9839C52.4769 96.9259 52.4629 96.8691 52.4381 96.8169C52.4115 96.7652 52.3752 96.7194 52.3314 96.6818L49.3329 94.1582C49.2344 94.0753 49.1607 93.9657 49.1205 93.8421C49.0802 93.7185 49.075 93.5858 49.1054 93.4592C49.1357 93.3327 49.2005 93.2175 49.2921 93.1267C49.3838 93.0359 49.4988 92.9733 49.6238 92.946L49.6238 92.946ZM49.5052 93.945L52.5037 96.4686C52.5428 96.5008 52.5781 96.5375 52.6092 96.5778C52.6371 96.6137 52.6613 96.6525 52.6812 96.6936C52.702 96.7357 52.7184 96.7799 52.7301 96.8254L52.7298 96.8268C52.7421 96.8743 52.7491 96.923 52.7507 96.9721L52.9501 101.616C52.9516 101.707 52.9836 101.795 53.0407 101.866C53.0979 101.936 53.1768 101.984 53.2646 102.003L53.2672 102.004C53.3537 102.026 53.445 102.017 53.5263 101.98C53.6076 101.943 53.6741 101.879 53.7151 101.798L54.789 99.7884C54.8443 99.6851 54.9246 99.5978 55.0223 99.535C55.12 99.4721 55.2319 99.4358 55.3473 99.4293L55.3486 99.4296C55.3641 99.4289 55.3796 99.4282 55.3947 99.4288C55.5024 99.4292 55.6083 99.4564 55.7033 99.5079C55.7696 99.5433 55.8295 99.5901 55.8803 99.6463L61.0738 105.261C61.1189 105.309 61.1748 105.346 61.2368 105.368C61.2989 105.39 61.3652 105.396 61.4301 105.386C61.495 105.376 61.5567 105.351 61.6098 105.311C61.6629 105.272 61.7059 105.22 61.7352 105.161L69.2855 89.661C69.3193 89.591 69.3331 89.5127 69.3253 89.4351C69.3175 89.3574 69.2885 89.2836 69.2415 89.222C69.1946 89.1604 69.1316 89.1134 69.0597 89.0865C68.9878 89.0596 68.91 89.0538 68.835 89.0697L68.5835 89.1243L49.681 93.2174C49.6059 93.2337 49.5369 93.2712 49.4818 93.3256C49.4267 93.3801 49.3877 93.4492 49.3694 93.5251C49.3511 93.601 49.3541 93.6807 49.3781 93.7549C49.4021 93.8292 49.4462 93.8951 49.5052 93.945L49.5052 93.945Z" fill="#CCCCCC"/>
<path d="M52.5491 96.605L52.6606 96.8576L52.73 96.8267L52.7304 96.8253L68.6735 89.5194L55.3489 99.4295L55.3476 99.4292L55.3123 99.4566L55.4719 99.6804L55.7036 99.5078L68.8344 89.7435C68.8861 89.7059 68.9232 89.6511 68.9394 89.5886C68.9555 89.526 68.9498 89.4597 68.923 89.4011C68.8963 89.3424 68.8503 89.2952 68.793 89.2674C68.7357 89.2397 68.6706 89.2332 68.6091 89.2492C68.594 89.2529 68.5794 89.2581 68.5653 89.2647L52.6094 96.5777L52.5491 96.605Z" fill="#CCCCCC"/>
<path d="M124.172 0.677274C124.293 0.549974 124.446 0.459319 124.614 0.415392C124.783 0.371465 124.96 0.375988 125.126 0.428461C125.292 0.480933 125.44 0.579295 125.555 0.712606C125.669 0.845917 125.745 1.00895 125.774 1.18357L126.541 6.45943C126.553 6.53718 126.58 6.61174 126.621 6.67885C126.663 6.7446 126.719 6.80074 126.783 6.84379L131.983 10.3223C132.154 10.4307 132.284 10.5954 132.351 10.7891C132.418 10.9829 132.418 11.1941 132.352 11.388L132.349 11.395C132.285 11.5901 132.159 11.7579 131.992 11.8722C131.824 11.9865 131.623 12.0407 131.422 12.0264L128.347 11.8808C128.246 11.8765 128.146 11.8999 128.057 11.9487C127.968 11.9976 127.893 12.0699 127.841 12.1583C127.802 12.222 127.777 12.2934 127.767 12.3676C127.757 12.4419 127.763 12.5174 127.784 12.5893L130.543 22.5963C130.584 22.7412 130.588 22.894 130.556 23.0411C130.525 23.1882 130.457 23.325 130.361 23.4393C130.264 23.5546 130.141 23.6449 130.003 23.7025C129.865 23.7602 129.715 23.7837 129.567 23.7711L106.36 21.7858C106.15 21.7685 105.952 21.6801 105.797 21.5347C105.708 21.4516 105.637 21.3512 105.587 21.2395C105.537 21.1278 105.509 21.0069 105.505 20.8841C105.502 20.7613 105.523 20.639 105.566 20.5245C105.61 20.41 105.676 20.3055 105.76 20.2173L105.996 19.9665L124.172 0.67727L124.172 0.677274ZM125.406 1.23647C125.387 1.11139 125.327 0.996528 125.236 0.910793C125.127 0.808735 124.983 0.754046 124.835 0.758369C124.687 0.762692 124.547 0.825682 124.443 0.933936L106.273 20.2173L106.031 20.4739C105.946 20.5645 105.893 20.6817 105.882 20.8065C105.876 20.8805 105.885 20.955 105.907 21.0256C105.929 21.0963 105.965 21.1617 106.012 21.2182C106.059 21.2747 106.117 21.3212 106.182 21.3549C106.247 21.3886 106.318 21.409 106.39 21.4147L129.597 23.4001C129.663 23.4055 129.729 23.3995 129.792 23.3821C129.862 23.3636 129.928 23.3311 129.986 23.2864C130.044 23.2418 130.092 23.1859 130.129 23.1219C130.165 23.058 130.189 22.9874 130.198 22.9141C130.207 22.8408 130.202 22.7664 130.183 22.6951L127.424 12.6882C127.395 12.5896 127.384 12.4867 127.391 12.3842L106.807 20.9437C106.738 20.9733 106.662 20.9813 106.588 20.9668C106.514 20.9522 106.447 20.9157 106.394 20.8619C106.359 20.8273 106.332 20.786 106.314 20.7405C106.296 20.695 106.286 20.6462 106.287 20.597C106.287 20.5479 106.297 20.4993 106.317 20.4542C106.336 20.409 106.364 20.3683 106.399 20.3344C106.414 20.3193 106.43 20.3057 106.448 20.2939L126.224 6.71221C126.199 6.64776 126.182 6.58069 126.173 6.51231L125.406 1.23645L125.406 1.23647Z" fill="#E6E6E6"/>
<path d="M124.172 0.677274C124.293 0.549974 124.446 0.459319 124.614 0.415392C124.783 0.371465 124.96 0.375988 125.126 0.428461C125.292 0.480933 125.44 0.579295 125.555 0.712606C125.669 0.845917 125.745 1.00895 125.774 1.18357L126.541 6.45943C126.553 6.53718 126.58 6.61174 126.621 6.67885C126.663 6.7446 126.719 6.80074 126.783 6.84379L131.983 10.3223C132.154 10.4307 132.284 10.5954 132.351 10.7891C132.418 10.9829 132.418 11.1941 132.352 11.388L132.349 11.395C132.285 11.5901 132.159 11.7579 131.992 11.8722C131.824 11.9865 131.623 12.0407 131.422 12.0264L128.347 11.8808C128.246 11.8765 128.146 11.8999 128.057 11.9487C127.968 11.9976 127.893 12.0699 127.841 12.1583C127.802 12.222 127.777 12.2934 127.767 12.3676C127.757 12.4419 127.763 12.5174 127.784 12.5893L130.543 22.5963C130.584 22.7412 130.588 22.894 130.556 23.0411C130.525 23.1882 130.457 23.325 130.361 23.4393C130.264 23.5546 130.141 23.6449 130.003 23.7025C129.865 23.7602 129.715 23.7837 129.567 23.7711L106.36 21.7858C106.15 21.7685 105.952 21.6801 105.797 21.5347C105.708 21.4516 105.637 21.3512 105.587 21.2395C105.537 21.1278 105.509 21.0069 105.505 20.8841C105.502 20.7613 105.523 20.639 105.566 20.5245C105.61 20.41 105.676 20.3055 105.76 20.2173L105.996 19.9665L124.172 0.67727L124.172 0.677274ZM125.406 1.23647C125.387 1.11139 125.327 0.996528 125.236 0.910793C125.127 0.808735 124.983 0.754046 124.835 0.758369C124.687 0.762692 124.547 0.825682 124.443 0.933936L106.273 20.2173L106.031 20.4739C105.946 20.5645 105.893 20.6817 105.882 20.8065C105.876 20.8805 105.885 20.955 105.907 21.0256C105.929 21.0963 105.965 21.1617 106.012 21.2182C106.059 21.2747 106.117 21.3212 106.182 21.3549C106.247 21.3886 106.318 21.409 106.39 21.4147L129.597 23.4001C129.663 23.4055 129.729 23.3995 129.792 23.3821C129.862 23.3636 129.928 23.3311 129.986 23.2864C130.044 23.2418 130.092 23.1859 130.129 23.1219C130.165 23.058 130.189 22.9874 130.198 22.9141C130.207 22.8408 130.202 22.7664 130.183 22.6951L127.424 12.6882C127.395 12.5896 127.384 12.4867 127.391 12.3842C127.399 12.2366 127.443 12.0934 127.52 11.9675C127.53 11.9493 127.541 11.9317 127.553 11.914L127.554 11.9122C127.645 11.7809 127.767 11.6751 127.908 11.6046C128.05 11.5341 128.207 11.5013 128.365 11.5091L131.441 11.6553C131.562 11.6643 131.683 11.6316 131.783 11.5625C131.884 11.4934 131.959 11.3919 131.996 11.2742L131.998 11.2707C132.039 11.1545 132.039 11.0276 131.999 10.9112C131.958 10.7948 131.88 10.6962 131.776 10.6319L126.576 7.15353C126.521 7.11742 126.47 7.07513 126.424 7.02745L126.422 7.02686C126.378 6.98145 126.339 6.93138 126.306 6.87749C126.273 6.82556 126.245 6.77015 126.224 6.71221C126.199 6.64775 126.182 6.58068 126.173 6.51229L125.406 1.23644L125.406 1.23647Z" fill="#CCCCCC"/>
<path d="M126.224 6.71233L106.448 20.294C106.43 20.3058 106.414 20.3194 106.399 20.3345C106.345 20.3865 106.309 20.454 106.294 20.5279C106.279 20.6018 106.287 20.6785 106.317 20.7476C106.357 20.8391 106.431 20.911 106.522 20.9477C106.614 20.9844 106.716 20.983 106.807 20.9438L127.391 12.3843L127.754 12.2335L127.61 11.8902L127.554 11.9123L127.553 11.9141L106.664 20.5988L126.422 7.02698L126.424 7.02757L126.509 6.96784L126.298 6.66073L126.224 6.71233Z" fill="#CCCCCC"/>
</g>
<defs>
<clipPath id="clip0_200_5779">
<rect width="145" height="116" fill="white" transform="matrix(-0.999995 -0.00309259 -0.00309259 0.999995 145.358 0.448486)"/>
</clipPath>
</defs>
</svg>
