<svg width="350" height="256" viewBox="0 0 350 256" fill="none" xmlns="http://www.w3.org/2000/svg">
<g clip-path="url(#clip0_208_7492)">
<path d="M96.1167 134.503C96.1193 134.132 96.0451 133.764 95.8989 133.422C95.7526 133.081 95.5374 132.773 95.2667 132.518C94.9959 132.264 94.6755 132.067 94.3253 131.942C93.9752 131.816 93.6029 131.764 93.2316 131.788C92.8604 131.813 92.4981 131.913 92.1676 132.084C91.837 132.254 91.5453 132.491 91.3104 132.779C91.0756 133.067 90.9028 133.401 90.8028 133.758C90.7029 134.116 90.6779 134.49 90.7294 134.858L82.9528 145.024C82.6209 145.686 82.4923 146.432 82.5829 147.167C82.6736 147.902 82.9795 148.594 83.4624 149.156L84.0724 149.867L86.8714 149.308L90.0437 146.514L89.6704 143.347L93.5891 137.2L93.584 137.196C94.27 137.152 94.9135 136.85 95.384 136.35C95.8544 135.849 96.1164 135.189 96.1167 134.503V134.503Z" fill="#FFB9B9"/>
<path d="M42.3388 184.2L41.0693 179.494L58.6498 172.368L60.5232 179.313L42.3388 184.2Z" fill="#FFB8B8"/>
<path d="M38.0928 186.629L34 171.454L34.1923 171.403C35.7615 170.981 37.4342 171.199 38.8426 172.008C40.251 172.818 41.2796 174.152 41.7022 175.719L41.7023 175.719L44.2021 184.987L38.0928 186.629Z" fill="#2F2E41"/>
<path d="M66.5549 183.448L62.6064 180.582L71.8033 164.015L77.6311 168.245L66.5549 183.448Z" fill="#FFB8B8"/>
<path d="M64.7789 188L52.0469 178.758L52.164 178.597C53.1198 177.285 54.5586 176.406 56.1637 176.153C57.7689 175.9 59.4091 176.293 60.7235 177.247L60.7238 177.248L68.5001 182.893L64.7789 188Z" fill="#2F2E41"/>
<path d="M100.12 160.297L90.184 150.662C89.3169 149.821 88.1747 149.321 86.9675 149.254C85.7604 149.187 84.5695 149.557 83.6139 150.296L64.8525 171.101L66.532 173.708L84.4458 161.601L96.5749 177.434L108.144 171.66L100.12 160.297Z" fill="#2F2E41"/>
<path d="M95.8283 162.346L88.5507 161.787L83.2804 160.512C82.9827 160.049 82.5502 159.687 82.0409 159.475C81.5315 159.264 80.9696 159.213 80.4304 159.329C79.8912 159.445 79.4003 159.723 79.0236 160.125C78.6468 160.527 78.4022 161.035 78.3224 161.58C78.2426 162.124 78.3315 162.681 78.5771 163.174C78.8227 163.667 79.2134 164.073 79.6968 164.338C80.1802 164.604 80.7332 164.715 81.2819 164.658C81.8306 164.601 82.3487 164.378 82.7668 164.019L82.7661 164.023L85.9384 165.327L99.5603 169.983L101.24 168.679L95.8283 162.346Z" fill="#FFB9B9"/>
<path d="M113.369 182.463L109.264 185.071H104.412L81.8337 176.689L48.8051 182.649L47.8721 175.571L78.1018 162.346L104.599 171.101L113.369 182.463Z" fill="#2F2E41"/>
<path d="M104.599 137.2C108.618 137.2 111.876 133.948 111.876 129.936C111.876 125.924 108.618 122.672 104.599 122.672C100.58 122.672 97.3213 125.924 97.3213 129.936C97.3213 133.948 100.58 137.2 104.599 137.2Z" fill="#FFB9B9"/>
<path d="M123.429 158.94C123.429 163.324 122.737 167.68 121.378 171.85L120.833 173.522L118.221 185.443L115.422 186.188L113.369 183.581L109.264 180.6L106.278 175.757L103.718 171.499L102.919 170.169L100.12 156.2L89.4839 150.239L85.9385 149.68L86.6849 147.631L89.8571 143.347L93.0294 142.975L93.9624 142.23L94.7088 142.602L98.8234 144.184L112.164 138.558L114.115 138.877L120.833 144.465C122.55 149.098 123.429 153.999 123.429 158.94V158.94Z" fill="#CCCCCC"/>
<path opacity="0.1" d="M121.392 157.317L114.302 161.974L103.718 171.499L102.919 170.169L100.68 158.994H101.24L107.024 148.377L121.392 157.317Z" fill="black"/>
<path d="M107.025 147.259L101.24 157.876L97.881 161.601L94.8955 162.346L102.919 171.101L114.302 160.856L121.393 156.2L107.025 147.259Z" fill="#CCCCCC"/>
<path d="M98.9381 124.535L98.1497 124.838C98.03 124.757 97.9274 124.653 97.8478 124.533C97.7683 124.412 97.7132 124.277 97.6859 124.135C97.6586 123.994 97.6595 123.848 97.6885 123.707C97.7176 123.565 97.7743 123.431 97.8553 123.312C97.8596 123.305 97.8639 123.299 97.8683 123.293L96.4111 123.225C97.3465 121.981 98.5358 120.95 99.9002 120.2C101.265 119.45 102.773 118.997 104.326 118.872C105.879 118.747 107.441 118.953 108.908 119.475C110.375 119.998 111.714 120.825 112.837 121.903C112.904 121.675 113.627 122.119 113.922 122.569C114.021 122.198 114.699 123.992 114.939 125.26C115.05 124.838 115.477 125.519 115.103 126.174C115.34 126.139 115.447 126.744 115.264 127.081C115.523 126.96 115.479 127.682 115.198 128.165C115.568 128.132 115.166 135.738 109.615 135.184C109.228 133.411 109.337 133.522 108.882 131.242C108.67 131.018 108.438 130.813 108.206 130.609L106.954 129.505C105.497 128.222 104.172 126.638 102.232 126.158C100.898 125.829 100.055 125.754 100.782 124.254C100.125 124.528 99.512 124.935 98.8495 125.189C98.8584 124.979 98.951 124.744 98.9381 124.535Z" fill="#2F2E41"/>
<path d="M108.238 132.078C108.959 132.078 109.544 131.494 109.544 130.774C109.544 130.054 108.959 129.47 108.238 129.47C107.516 129.47 106.932 130.054 106.932 130.774C106.932 131.494 107.516 132.078 108.238 132.078Z" fill="#FFB9B9"/>
<path d="M47.3234 99.9799L46.9248 105.955L52.9103 106.352L53.3089 100.378L47.3234 99.9799Z" fill="#E6E6E6"/>
<path d="M43.4616 103.152L50.7297 103.636L50.2457 110.891L42.9775 110.407L43.4616 103.152ZM50.3926 103.93L43.7565 103.489L43.3146 110.113L49.9507 110.554L50.3926 103.93Z" fill="#CCCCCC"/>
<path d="M81.1491 82.2632L75.2842 83.5211L76.5444 89.3754L82.4093 88.1175L81.1491 82.2632Z" fill="#E6E6E6"/>
<path d="M77.0328 79.4276L78.563 86.5364L71.4414 88.0638L69.9111 80.955L77.0328 79.4276ZM78.1869 86.2937L76.7897 79.803L70.2873 81.1977L71.6845 87.6883L78.1869 86.2937Z" fill="#CCCCCC"/>
<path d="M74.9865 110.378L70.6084 114.471L74.7093 118.841L79.0874 114.748L74.9865 110.378Z" fill="#E6E6E6"/>
<path d="M79.4024 109.765L74.0861 114.736L69.1064 109.429L74.4227 104.459L79.4024 109.765ZM74.1007 114.289L78.9547 109.751L74.4081 104.905L69.5541 109.444L74.1007 114.289Z" fill="#CCCCCC"/>
<path d="M301.398 67H123.911C123.269 67 122.634 67.1261 122.041 67.3712C121.448 67.6162 120.91 67.9754 120.456 68.4283C120.003 68.8811 119.643 69.4186 119.397 70.0103C119.152 70.6019 119.025 71.236 119.025 71.8764V170.59C119.025 171.231 119.152 171.865 119.397 172.456C119.643 173.048 120.003 173.586 120.456 174.038C120.91 174.491 121.448 174.85 122.041 175.095C122.634 175.341 123.269 175.467 123.911 175.467H301.398C302.693 175.467 303.936 174.953 304.852 174.038C305.768 173.124 306.283 171.884 306.283 170.59V71.8764C306.283 70.5831 305.768 69.3428 304.852 68.4283C303.936 67.5138 302.693 67 301.398 67V67Z" fill="#3F3D56"/>
<path d="M299.733 75.6179H125.574V173.684H299.733V75.6179Z" fill="white"/>
<path d="M212.505 72.9434C213.491 72.9434 214.291 72.1451 214.291 71.1604C214.291 70.1757 213.491 69.3774 212.505 69.3774C211.518 69.3774 210.719 70.1757 210.719 71.1604C210.719 72.1451 211.518 72.9434 212.505 72.9434Z" fill="white"/>
<path d="M249.926 173.684H125.574V75.618L249.926 173.684Z" fill="#F2F2F2"/>
<path d="M152.826 166.345C162.071 166.345 169.566 158.864 169.566 149.635C169.566 140.406 162.071 132.925 152.826 132.925C143.58 132.925 136.085 140.406 136.085 149.635C136.085 158.864 143.58 166.345 152.826 166.345Z" fill="#E6E67D"/>
<path d="M156.552 162.194C152.434 162.194 148.408 160.975 144.983 158.691C141.559 156.407 138.89 153.161 137.314 149.363C135.738 145.565 135.325 141.385 136.129 137.353C136.932 133.321 138.915 129.617 141.828 126.71C144.74 123.803 148.45 121.824 152.49 121.022C156.529 120.22 160.716 120.631 164.521 122.204C168.326 123.778 171.578 126.442 173.867 129.86C176.155 133.278 177.376 137.297 177.376 141.408C177.376 144.138 176.837 146.841 175.791 149.363C174.744 151.885 173.211 154.176 171.277 156.106C169.343 158.036 167.048 159.568 164.521 160.612C161.995 161.657 159.287 162.194 156.552 162.194V162.194ZM156.552 120.894C152.488 120.894 148.514 122.097 145.134 124.351C141.755 126.605 139.121 129.809 137.565 133.558C136.01 137.306 135.603 141.431 136.396 145.41C137.189 149.39 139.146 153.045 142.02 155.914C144.894 158.783 148.556 160.737 152.543 161.529C156.529 162.32 160.662 161.914 164.417 160.361C168.172 158.808 171.382 156.179 173.64 152.806C175.898 149.432 177.104 145.466 177.104 141.408C177.104 138.714 176.572 136.047 175.539 133.558C174.507 131.069 172.993 128.807 171.084 126.902C169.176 124.998 166.91 123.486 164.417 122.455C161.924 121.425 159.251 120.894 156.552 120.894L156.552 120.894Z" fill="#3F3D56"/>
<path d="M259.416 126.566H243.147V129.959H259.416V126.566Z" fill="#3F3D56"/>
<path d="M274.807 108.183H227.756V109.637H274.807V108.183Z" fill="#3F3D56"/>
<path d="M274.807 113.896H227.756V115.351H274.807V113.896Z" fill="#3F3D56"/>
<path d="M274.807 119.61H227.756V121.064H274.807V119.61Z" fill="#3F3D56"/>
<path d="M287.411 81.4867H280.613V88.2731H287.411V81.4867Z" fill="#E6E67D"/>
<path d="M290.568 91.424H282.312V83.1833H290.568V91.424ZM282.671 91.0657H290.209V83.5417H282.671L282.671 91.0657Z" fill="#CCCCCC"/>
<path d="M311.172 171.901H294.175V170.678C294.175 170.646 294.169 170.615 294.157 170.586C294.145 170.556 294.127 170.529 294.104 170.507C294.082 170.484 294.055 170.467 294.026 170.454C293.996 170.442 293.965 170.436 293.933 170.436H288.105C288.073 170.436 288.042 170.442 288.012 170.454C287.983 170.467 287.956 170.484 287.933 170.507C287.911 170.529 287.893 170.556 287.881 170.586C287.869 170.615 287.862 170.646 287.862 170.678V171.901H284.22V170.678C284.22 170.646 284.214 170.615 284.202 170.586C284.19 170.556 284.172 170.529 284.149 170.507C284.127 170.484 284.1 170.467 284.07 170.454C284.041 170.442 284.009 170.436 283.977 170.436H278.15C278.118 170.436 278.087 170.442 278.057 170.454C278.028 170.467 278.001 170.484 277.978 170.507C277.956 170.529 277.938 170.556 277.926 170.586C277.913 170.615 277.907 170.646 277.907 170.678V170.678V171.901H274.265V170.678C274.265 170.646 274.259 170.615 274.247 170.586C274.234 170.556 274.216 170.529 274.194 170.507C274.171 170.484 274.145 170.467 274.115 170.454C274.086 170.442 274.054 170.436 274.022 170.436H268.195C268.163 170.436 268.131 170.442 268.102 170.454C268.072 170.467 268.046 170.484 268.023 170.507C268.001 170.529 267.983 170.556 267.97 170.586C267.958 170.615 267.952 170.646 267.952 170.678V170.678V171.901H264.31V170.678C264.31 170.646 264.304 170.615 264.291 170.586C264.279 170.556 264.261 170.529 264.239 170.507C264.216 170.484 264.189 170.467 264.16 170.454C264.13 170.442 264.099 170.436 264.067 170.436H258.24C258.208 170.436 258.176 170.442 258.147 170.454C258.117 170.467 258.09 170.484 258.068 170.507C258.045 170.529 258.027 170.556 258.015 170.586C258.003 170.615 257.997 170.646 257.997 170.678V171.901H254.355V170.678C254.355 170.646 254.348 170.615 254.336 170.586C254.324 170.556 254.306 170.529 254.283 170.507C254.261 170.484 254.234 170.467 254.205 170.454C254.175 170.442 254.144 170.436 254.112 170.436H248.284C248.252 170.436 248.221 170.442 248.191 170.454C248.162 170.467 248.135 170.484 248.113 170.507C248.09 170.529 248.072 170.556 248.06 170.586C248.048 170.615 248.042 170.646 248.042 170.678V170.678V171.901H244.399V170.678C244.399 170.646 244.393 170.615 244.381 170.586C244.369 170.556 244.351 170.529 244.328 170.507C244.306 170.484 244.279 170.467 244.249 170.454C244.22 170.442 244.188 170.436 244.157 170.436H238.329C238.297 170.436 238.266 170.442 238.236 170.454C238.207 170.467 238.18 170.484 238.157 170.507C238.135 170.529 238.117 170.556 238.105 170.586C238.093 170.615 238.086 170.646 238.086 170.678V170.678V171.901H234.444V170.678C234.444 170.646 234.438 170.615 234.426 170.586C234.413 170.556 234.396 170.529 234.373 170.507C234.35 170.484 234.324 170.467 234.294 170.454C234.265 170.442 234.233 170.436 234.201 170.436H188.553C188.521 170.436 188.489 170.442 188.46 170.454C188.431 170.467 188.404 170.484 188.381 170.507C188.359 170.529 188.341 170.556 188.329 170.586C188.316 170.615 188.31 170.646 188.31 170.678V170.678V171.901H184.668V170.678C184.668 170.646 184.662 170.615 184.649 170.586C184.637 170.556 184.619 170.529 184.597 170.507C184.574 170.484 184.548 170.467 184.518 170.454C184.489 170.442 184.457 170.436 184.425 170.436H178.598C178.566 170.436 178.534 170.442 178.505 170.454C178.475 170.467 178.449 170.484 178.426 170.507C178.403 170.529 178.386 170.556 178.373 170.586C178.361 170.615 178.355 170.646 178.355 170.678V170.678V171.901H174.713V170.678C174.713 170.646 174.706 170.615 174.694 170.586C174.682 170.556 174.664 170.529 174.642 170.507C174.619 170.484 174.592 170.467 174.563 170.454C174.533 170.442 174.502 170.436 174.47 170.436H168.642C168.611 170.436 168.579 170.442 168.55 170.454C168.52 170.467 168.493 170.484 168.471 170.507C168.448 170.529 168.43 170.556 168.418 170.586C168.406 170.615 168.4 170.646 168.4 170.678V170.678V171.901H164.758V170.678C164.758 170.646 164.751 170.615 164.739 170.586C164.727 170.556 164.709 170.529 164.686 170.507C164.664 170.484 164.637 170.467 164.608 170.454C164.578 170.442 164.547 170.436 164.515 170.436H158.687C158.655 170.436 158.624 170.442 158.594 170.454C158.565 170.467 158.538 170.484 158.516 170.507C158.493 170.529 158.475 170.556 158.463 170.586C158.451 170.615 158.444 170.646 158.444 170.678V170.678V171.901H154.802V170.678C154.802 170.646 154.796 170.615 154.784 170.586C154.772 170.556 154.754 170.529 154.731 170.507C154.709 170.484 154.682 170.467 154.652 170.454C154.623 170.442 154.591 170.436 154.559 170.436H148.732C148.7 170.436 148.669 170.442 148.639 170.454C148.61 170.467 148.583 170.484 148.56 170.507C148.538 170.529 148.52 170.556 148.508 170.586C148.496 170.615 148.489 170.646 148.489 170.678V170.678V171.901H144.847V170.678C144.847 170.646 144.841 170.615 144.829 170.586C144.816 170.556 144.798 170.529 144.776 170.507C144.753 170.484 144.727 170.467 144.697 170.454C144.668 170.442 144.636 170.436 144.604 170.436H138.777C138.712 170.436 138.651 170.461 138.605 170.507C138.56 170.552 138.534 170.614 138.534 170.678V171.901H134.892V170.678C134.892 170.646 134.886 170.615 134.873 170.586C134.861 170.556 134.843 170.529 134.821 170.507C134.798 170.484 134.771 170.467 134.742 170.454C134.712 170.442 134.681 170.436 134.649 170.436H128.822C128.757 170.436 128.695 170.461 128.65 170.507C128.604 170.552 128.579 170.614 128.579 170.678V171.901H117.409C115.864 171.901 114.382 172.514 113.289 173.604C112.196 174.695 111.582 176.175 111.582 177.718V180.348C111.582 181.891 112.196 183.37 113.289 184.461C114.382 185.552 115.864 186.165 117.409 186.165H311.172C312.718 186.165 314.2 185.552 315.293 184.461C316.386 183.37 317 181.891 317 180.348V177.718C317 176.954 316.849 176.197 316.556 175.492C316.263 174.786 315.834 174.145 315.293 173.604C314.752 173.064 314.109 172.636 313.402 172.343C312.695 172.051 311.937 171.901 311.172 171.901V171.901Z" fill="#3F3D56"/>
</g>
<defs>
<clipPath id="clip0_208_7492">
<rect width="283" height="121" fill="white" transform="translate(34 67)"/>
</clipPath>
</defs>
</svg>
