<svg width="332" height="211" viewBox="0 0 332 211" fill="none" xmlns="http://www.w3.org/2000/svg">
<g clip-path="url(#clip0_229_7534)">
<path d="M97.2147 112.135C97.217 111.81 97.1523 111.487 97.0246 111.188C96.897 110.889 96.7091 110.619 96.4728 110.396C96.2365 110.173 95.9569 110.001 95.6513 109.891C95.3456 109.781 95.0207 109.735 94.6967 109.757C94.3726 109.778 94.0565 109.866 93.768 110.016C93.4795 110.165 93.2248 110.372 93.0199 110.625C92.8149 110.877 92.6641 111.169 92.5769 111.482C92.4896 111.796 92.4678 112.124 92.5127 112.446L85.7254 121.351C85.4358 121.932 85.3235 122.585 85.4026 123.229C85.4817 123.873 85.7487 124.479 86.1702 124.972L86.7026 125.594L89.1455 125.104L91.9143 122.657L91.5885 119.883L95.0087 114.498L95.0042 114.494C95.6029 114.456 96.1646 114.191 96.5752 113.753C96.9858 113.314 97.2144 112.736 97.2147 112.135V112.135Z" fill="#FFB9B9"/>
<path d="M50.2779 155.671L49.1699 151.549L64.514 145.306L66.1491 151.39L50.2779 155.671Z" fill="#FFB8B8"/>
<path d="M46.5722 157.799L43 144.506L43.1678 144.46C44.5374 144.091 45.9974 144.282 47.2266 144.991C48.4558 145.7 49.3536 146.869 49.7224 148.241L49.7225 148.241L51.9043 156.36L46.5722 157.799Z" fill="#2F2E41"/>
<path d="M71.414 155.012L67.9678 152.502L75.9947 137.988L81.0811 141.694L71.414 155.012Z" fill="#FFB8B8"/>
<path d="M69.8634 159L58.751 150.903L58.8532 150.763C59.6874 149.613 60.9432 148.843 62.3441 148.621C63.7451 148.4 65.1766 148.745 66.3238 149.58L66.3241 149.581L73.1112 154.526L69.8634 159Z" fill="#2F2E41"/>
<path d="M100.709 134.732L92.0369 126.291C91.28 125.554 90.2831 125.116 89.2295 125.057C88.176 124.998 87.1366 125.322 86.3025 125.97L69.9277 144.196L71.3936 146.48L87.0285 135.874L97.6148 149.744L107.712 144.685L100.709 134.732Z" fill="#2F2E41"/>
<path d="M96.963 136.526L90.6112 136.037L86.0113 134.92C85.7515 134.514 85.374 134.197 84.9295 134.011C84.4849 133.826 83.9945 133.781 83.5239 133.883C83.0532 133.985 82.6248 134.228 82.296 134.58C81.9672 134.933 81.7537 135.377 81.684 135.855C81.6144 136.332 81.6919 136.819 81.9063 137.251C82.1207 137.683 82.4617 138.039 82.8836 138.272C83.3055 138.504 83.7882 138.602 84.267 138.552C84.7459 138.502 85.1981 138.306 85.5631 137.992L85.5624 137.995L88.3312 139.137L100.22 143.217L101.686 142.074L96.963 136.526Z" fill="#FFB9B9"/>
<path d="M112.273 154.15L108.69 156.434H104.455L84.7488 149.091L55.9217 154.313L55.1074 148.112L81.4916 136.527L104.618 144.196L112.273 154.15Z" fill="#2F2E41"/>
<path d="M104.618 114.498C108.126 114.498 110.97 111.649 110.97 108.134C110.97 104.619 108.126 101.77 104.618 101.77C101.11 101.77 98.2666 104.619 98.2666 108.134C98.2666 111.649 101.11 114.498 104.618 114.498Z" fill="#FFB9B9"/>
<path d="M121.052 133.542C121.052 137.383 120.448 141.199 119.262 144.852L118.787 146.317L116.507 156.76L114.064 157.413L112.272 155.128L108.689 152.518L106.083 148.275L103.849 144.545L103.152 143.38L100.709 131.142L91.4255 125.92L88.3311 125.431L88.9825 123.636L91.7512 119.883L94.5199 119.556L95.3342 118.904L95.9857 119.23L99.5769 120.616L111.22 115.688L112.924 115.967L118.787 120.862C120.286 124.921 121.053 129.214 121.052 133.542V133.542Z" fill="#CCCCCC"/>
<path opacity="0.1" d="M119.275 132.121L113.086 136.2L103.849 144.545L103.152 143.38L101.197 133.589H101.686L106.735 124.289L119.275 132.121Z" fill="black"/>
<path d="M106.736 123.309L101.687 132.61L98.7551 135.874L96.1494 136.527L103.152 144.196L113.087 135.221L119.276 131.142L106.736 123.309Z" fill="#CCCCCC"/>
<path d="M99.6772 103.402L98.989 103.668C98.8846 103.597 98.7951 103.506 98.7256 103.4C98.6562 103.295 98.6081 103.177 98.5843 103.053C98.5604 102.928 98.5612 102.801 98.5866 102.677C98.612 102.553 98.6614 102.436 98.7321 102.331C98.7359 102.325 98.7396 102.32 98.7434 102.315L97.4717 102.255C98.2881 101.166 99.326 100.262 100.517 99.6049C101.708 98.9475 103.024 98.551 104.38 98.4415C105.735 98.3321 107.098 98.5122 108.379 98.97C109.659 99.4278 110.828 100.153 111.808 101.097C111.866 100.897 112.497 101.286 112.755 101.68C112.842 101.355 113.433 102.927 113.643 104.038C113.74 103.668 114.112 104.265 113.786 104.838C113.993 104.808 114.086 105.338 113.926 105.633C114.152 105.527 114.114 106.16 113.869 106.583C114.192 106.554 113.841 113.217 108.996 112.732C108.658 111.179 108.753 111.275 108.356 109.278C108.171 109.082 107.969 108.902 107.767 108.724L106.673 107.757C105.402 106.632 104.245 105.245 102.552 104.825C101.388 104.536 100.652 104.471 101.286 103.157C100.713 103.396 100.178 103.753 99.5999 103.975C99.6077 103.791 99.6885 103.586 99.6772 103.402Z" fill="#2F2E41"/>
<path d="M107.794 110.011C108.424 110.011 108.934 109.499 108.934 108.868C108.934 108.238 108.424 107.726 107.794 107.726C107.165 107.726 106.654 108.238 106.654 108.868C106.654 109.499 107.165 110.011 107.794 110.011Z" fill="#FFB9B9"/>
<path d="M54.6292 81.8916L54.2812 87.1256L59.5054 87.4742L59.8533 82.2401L54.6292 81.8916Z" fill="#E6E6E6"/>
<path d="M51.2584 84.6708L57.602 85.094L57.1795 91.4496L50.8359 91.0264L51.2584 84.6708ZM57.3078 85.352L51.5158 84.9655L51.1301 90.7684L56.9221 91.1549L57.3078 85.352Z" fill="#CCCCCC"/>
<path d="M84.1511 66.371L79.0322 67.473L80.1321 72.6016L85.251 71.4996L84.1511 66.371Z" fill="#E6E6E6"/>
<path d="M80.5585 63.887L81.8941 70.1145L75.6783 71.4526L74.3428 65.2251L80.5585 63.887ZM81.5658 69.9019L80.3463 64.2159L74.6711 65.4377L75.8905 71.1237L81.5658 69.9019Z" fill="#CCCCCC"/>
<path d="M78.7724 91.0003L74.9512 94.5863L78.5304 98.4148L82.3516 94.8288L78.7724 91.0003Z" fill="#E6E6E6"/>
<path d="M82.6268 90.4638L77.9868 94.8182L73.6406 90.1694L78.2806 85.8149L82.6268 90.4638ZM77.9996 94.4268L82.2361 90.451L78.2679 86.2064L74.0313 90.1822L77.9996 94.4268Z" fill="#CCCCCC"/>
<path d="M276.382 53H121.473C120.913 53 120.358 53.1105 119.841 53.3252C119.324 53.5399 118.854 53.8545 118.458 54.2512C118.062 54.6479 117.748 55.1188 117.534 55.6371C117.319 56.1554 117.209 56.7109 117.209 57.2719V143.749C117.209 144.309 117.319 144.865 117.534 145.383C117.748 145.902 118.062 146.373 118.458 146.769C118.854 147.166 119.324 147.481 119.841 147.695C120.358 147.91 120.913 148.02 121.473 148.02H276.382C277.513 148.02 278.597 147.57 279.397 146.769C280.197 145.968 280.646 144.881 280.646 143.749V57.2719C280.646 56.1389 280.197 55.0523 279.397 54.2512C278.597 53.4501 277.513 53 276.382 53V53Z" fill="#3F3D56"/>
<path d="M274.93 60.5496H122.926V146.458H274.93V60.5496Z" fill="white"/>
<path d="M198.797 58.2066C199.658 58.2066 200.356 57.5073 200.356 56.6446C200.356 55.782 199.658 55.0826 198.797 55.0826C197.936 55.0826 197.238 55.782 197.238 56.6446C197.238 57.5073 197.936 58.2066 198.797 58.2066Z" fill="white"/>
<path d="M231.459 146.459H122.926V60.5497L231.459 146.459Z" fill="#F2F2F2"/>
<path d="M146.71 140.03C154.779 140.03 161.321 133.476 161.321 125.391C161.321 117.306 154.779 110.752 146.71 110.752C138.64 110.752 132.099 117.306 132.099 125.391C132.099 133.476 138.64 140.03 146.71 140.03Z" fill="#E6E67D"/>
<path d="M149.962 136.394C146.367 136.394 142.853 135.326 139.865 133.325C136.876 131.324 134.546 128.48 133.171 125.153C131.795 121.825 131.435 118.164 132.136 114.632C132.838 111.099 134.569 107.855 137.11 105.308C139.652 102.762 142.891 101.027 146.416 100.325C149.942 99.6221 153.596 99.9827 156.917 101.361C160.238 102.739 163.077 105.073 165.074 108.068C167.071 111.062 168.137 114.583 168.137 118.184C168.137 120.575 167.667 122.943 166.753 125.153C165.84 127.362 164.501 129.369 162.813 131.06C161.126 132.751 159.122 134.092 156.917 135.007C154.712 135.923 152.349 136.394 149.962 136.394V136.394ZM149.962 100.213C146.414 100.213 142.946 101.267 139.997 103.242C137.047 105.216 134.748 108.023 133.39 111.307C132.032 114.591 131.677 118.204 132.369 121.69C133.061 125.176 134.77 128.378 137.278 130.892C139.787 133.405 142.983 135.117 146.462 135.81C149.942 136.504 153.549 136.148 156.826 134.787C160.104 133.427 162.905 131.124 164.876 128.169C166.847 125.213 167.899 121.739 167.899 118.184C167.899 115.824 167.435 113.487 166.534 111.307C165.632 109.126 164.311 107.145 162.645 105.477C160.98 103.808 159.002 102.484 156.826 101.581C154.65 100.678 152.317 100.213 149.962 100.213L149.962 100.213Z" fill="#3F3D56"/>
<path d="M239.741 105.182H225.542V108.154H239.741V105.182Z" fill="#3F3D56"/>
<path d="M253.175 89.0776H212.109V90.3516H253.175V89.0776Z" fill="#3F3D56"/>
<path d="M253.175 94.0829H212.109V95.3568H253.175V94.0829Z" fill="#3F3D56"/>
<path d="M253.175 99.0879H212.109V100.362H253.175V99.0879Z" fill="#3F3D56"/>
<path d="M264.175 65.6908H258.241V71.6359H264.175V65.6908Z" fill="#E6E67D"/>
<path d="M266.93 74.3962H259.725V67.1771H266.93V74.3962ZM260.038 74.0823H266.617V67.491H260.038L260.038 74.0823Z" fill="#CCCCCC"/>
<path d="M284.913 144.896H270.079V143.826C270.079 143.798 270.073 143.77 270.063 143.744C270.052 143.719 270.036 143.695 270.017 143.675C269.997 143.656 269.974 143.64 269.948 143.629C269.922 143.619 269.895 143.613 269.867 143.613H264.781C264.753 143.613 264.725 143.619 264.7 143.629C264.674 143.64 264.651 143.656 264.631 143.675C264.611 143.695 264.596 143.719 264.585 143.744C264.574 143.77 264.569 143.798 264.569 143.826V144.896H261.39V143.826C261.39 143.798 261.385 143.77 261.374 143.744C261.363 143.719 261.348 143.695 261.328 143.675C261.308 143.656 261.285 143.64 261.259 143.629C261.234 143.619 261.206 143.613 261.178 143.613H256.092C256.064 143.613 256.037 143.619 256.011 143.629C255.985 143.64 255.962 143.656 255.942 143.675C255.922 143.695 255.907 143.719 255.896 143.744C255.886 143.77 255.88 143.798 255.88 143.826V143.826V144.896H252.701V143.826C252.701 143.798 252.696 143.77 252.685 143.744C252.674 143.719 252.659 143.695 252.639 143.675C252.619 143.656 252.596 143.64 252.57 143.629C252.545 143.619 252.517 143.613 252.489 143.613H247.403C247.375 143.613 247.348 143.619 247.322 143.629C247.296 143.64 247.273 143.656 247.253 143.675C247.234 143.695 247.218 143.719 247.207 143.744C247.197 143.77 247.191 143.798 247.191 143.826V143.826V144.896H244.012V143.826C244.012 143.798 244.007 143.77 243.996 143.744C243.986 143.719 243.97 143.695 243.95 143.675C243.931 143.656 243.907 143.64 243.882 143.629C243.856 143.619 243.828 143.613 243.8 143.613H238.714C238.686 143.613 238.659 143.619 238.633 143.629C238.607 143.64 238.584 143.656 238.564 143.675C238.545 143.695 238.529 143.719 238.519 143.744C238.508 143.77 238.502 143.798 238.502 143.826V144.896H235.324V143.826C235.324 143.798 235.318 143.77 235.307 143.744C235.297 143.719 235.281 143.695 235.261 143.675C235.242 143.656 235.218 143.64 235.193 143.629C235.167 143.619 235.139 143.613 235.112 143.613H230.025C229.998 143.613 229.97 143.619 229.944 143.629C229.919 143.64 229.895 143.656 229.876 143.675C229.856 143.695 229.84 143.719 229.83 143.744C229.819 143.77 229.814 143.798 229.814 143.826V143.826V144.896H226.635V143.826C226.635 143.798 226.629 143.77 226.619 143.744C226.608 143.719 226.592 143.695 226.573 143.675C226.553 143.656 226.53 143.64 226.504 143.629C226.478 143.619 226.451 143.613 226.423 143.613H221.337C221.309 143.613 221.281 143.619 221.256 143.629C221.23 143.64 221.206 143.656 221.187 143.675C221.167 143.695 221.151 143.719 221.141 143.744C221.13 143.77 221.125 143.798 221.125 143.826V143.826V144.896H217.946V143.826C217.946 143.798 217.94 143.77 217.93 143.744C217.919 143.719 217.903 143.695 217.884 143.675C217.864 143.656 217.841 143.64 217.815 143.629C217.789 143.619 217.762 143.613 217.734 143.613H177.892C177.865 143.613 177.837 143.619 177.811 143.629C177.786 143.64 177.762 143.656 177.743 143.675C177.723 143.695 177.707 143.719 177.697 143.744C177.686 143.77 177.681 143.798 177.681 143.826V143.826V144.896H174.502V143.826C174.502 143.798 174.496 143.77 174.486 143.744C174.475 143.719 174.459 143.695 174.44 143.675C174.42 143.656 174.397 143.64 174.371 143.629C174.345 143.619 174.318 143.613 174.29 143.613H169.204C169.176 143.613 169.148 143.619 169.123 143.629C169.097 143.64 169.073 143.656 169.054 143.675C169.034 143.695 169.018 143.719 169.008 143.744C168.997 143.77 168.992 143.798 168.992 143.826V143.826V144.896H165.813V143.826C165.813 143.798 165.807 143.77 165.797 143.744C165.786 143.719 165.77 143.695 165.751 143.675C165.731 143.656 165.708 143.64 165.682 143.629C165.656 143.619 165.629 143.613 165.601 143.613H160.515C160.487 143.613 160.459 143.619 160.434 143.629C160.408 143.64 160.385 143.656 160.365 143.675C160.345 143.695 160.33 143.719 160.319 143.744C160.308 143.77 160.303 143.798 160.303 143.826V143.826V144.896H157.124V143.826C157.124 143.798 157.119 143.77 157.108 143.744C157.097 143.719 157.082 143.695 157.062 143.675C157.042 143.656 157.019 143.64 156.993 143.629C156.967 143.619 156.94 143.613 156.912 143.613H151.826C151.798 143.613 151.771 143.619 151.745 143.629C151.719 143.64 151.696 143.656 151.676 143.675C151.656 143.695 151.641 143.719 151.63 143.744C151.619 143.77 151.614 143.798 151.614 143.826V143.826V144.896H148.435V143.826C148.435 143.798 148.43 143.77 148.419 143.744C148.408 143.719 148.393 143.695 148.373 143.675C148.353 143.656 148.33 143.64 148.304 143.629C148.279 143.619 148.251 143.613 148.223 143.613H143.137C143.109 143.613 143.082 143.619 143.056 143.629C143.03 143.64 143.007 143.656 142.987 143.675C142.968 143.695 142.952 143.719 142.941 143.744C142.931 143.77 142.925 143.798 142.925 143.826V143.826V144.896H139.746V143.826C139.746 143.798 139.741 143.77 139.73 143.744C139.72 143.719 139.704 143.695 139.684 143.675C139.665 143.656 139.641 143.64 139.616 143.629C139.59 143.619 139.562 143.613 139.534 143.613H134.448C134.392 143.613 134.338 143.636 134.298 143.675C134.259 143.715 134.236 143.769 134.236 143.826V144.896H131.057V143.826C131.057 143.798 131.052 143.77 131.041 143.744C131.031 143.719 131.015 143.695 130.995 143.675C130.976 143.656 130.952 143.64 130.927 143.629C130.901 143.619 130.873 143.613 130.846 143.613H125.759C125.703 143.613 125.649 143.636 125.61 143.675C125.57 143.715 125.547 143.769 125.547 143.826V144.896H115.799C114.45 144.896 113.156 145.433 112.203 146.389C111.249 147.345 110.713 148.641 110.713 149.992V152.296C110.713 153.648 111.249 154.944 112.203 155.9C113.156 156.855 114.45 157.392 115.799 157.392H284.913C286.262 157.392 287.556 156.855 288.51 155.9C289.464 154.944 290 153.648 290 152.296V149.992C290 149.323 289.868 148.66 289.612 148.042C289.357 147.424 288.982 146.862 288.51 146.389C288.038 145.916 287.477 145.54 286.86 145.284C286.243 145.028 285.581 144.896 284.913 144.896V144.896Z" fill="#3F3D56"/>
</g>
<defs>
<clipPath id="clip0_229_7534">
<rect width="247" height="106" fill="white" transform="translate(43 53)"/>
</clipPath>
</defs>
</svg>
