<svg width="350" height="256" viewBox="0 0 350 256" fill="none" xmlns="http://www.w3.org/2000/svg">
<g clip-path="url(#clip0_208_7041)">
<path d="M288 124.708C288 168.537 249.575 205.482 197.143 216.825C188.628 218.662 179.978 219.796 171.278 220.216C170.855 220.238 170.432 220.259 170.005 220.274C167.741 220.368 165.46 220.416 163.162 220.417C159.166 220.417 155.217 220.274 151.316 219.989C149.152 219.834 147.006 219.637 144.878 219.397C124.181 217.068 105.135 210.846 89.0482 201.73C87.0382 200.592 85.0754 199.409 83.16 198.181C79.6527 195.94 76.2665 193.514 73.0158 190.912C51.5274 173.724 69.443 137.037 80.6421 113.939C110.869 51.5999 94.2171 29 163.162 29C232.107 29 288 71.8488 288 124.708Z" fill="#F2F2F2"/>
<path d="M238.591 68.4565C217.162 68.0709 217.165 36.1114 238.591 35.7289C260.019 36.1146 260.016 68.074 238.591 68.4565Z" fill="white"/>
<path d="M198.065 116.083C176.637 115.698 176.64 83.7381 198.066 83.3556C219.494 83.7412 219.491 115.701 198.065 116.083Z" fill="white"/>
<path d="M240.338 164.445C218.909 164.06 218.912 132.1 240.338 131.718C261.766 132.103 261.763 164.063 240.338 164.445Z" fill="white"/>
<path d="M238.591 68.4565C217.162 68.0709 217.165 36.1114 238.591 35.7289C260.019 36.1146 260.016 68.074 238.591 68.4565ZM238.591 36.7207C218.461 37.083 218.464 67.1054 238.591 67.4647C258.721 67.1024 258.717 37.08 238.591 36.7207Z" fill="#E6E6E6"/>
<path d="M144.802 219.17C144.753 219.016 144.72 218.857 144.702 218.697L138.478 183.083C138.469 182.991 138.455 182.9 138.436 182.81C138.304 182.161 137.976 181.568 137.496 181.113C137.016 180.658 136.408 180.363 135.755 180.268L100.265 180.422C99.5936 180.321 98.9075 180.438 98.3071 180.757C97.7067 181.075 97.2235 181.577 96.928 182.191C96.3508 183.398 95.7855 184.623 95.2323 185.865C92.9924 190.867 90.931 196.155 89.0479 201.73C105.135 210.846 124.181 217.068 144.877 219.397L144.802 219.17Z" fill="#2F2E41"/>
<path d="M179.446 123.868C179.358 124.253 179.301 124.644 179.275 125.038L148.729 142.723L141.305 138.433L133.39 148.833L145.798 157.708C146.801 158.425 148.008 158.797 149.238 158.767C150.469 158.737 151.657 158.307 152.623 157.541L184.121 132.603C185.543 133.131 187.091 133.213 188.56 132.836C190.028 132.46 191.348 131.644 192.343 130.496C193.338 129.349 193.961 127.924 194.13 126.413C194.299 124.901 194.005 123.373 193.288 122.033C192.571 120.693 191.464 119.604 190.115 118.911C188.766 118.217 187.238 117.952 185.735 118.152C184.233 118.351 182.826 119.004 181.702 120.025C180.579 121.046 179.792 122.387 179.446 123.868V123.868Z" fill="#FFB8B8"/>
<path d="M148.312 140.956C148.219 140.504 148.03 140.077 147.758 139.704C147.487 139.331 147.138 139.022 146.737 138.796L132.72 130.93C130.858 129.488 128.501 128.846 126.168 129.144C123.834 129.443 121.714 130.658 120.272 132.523C118.829 134.388 118.183 136.751 118.474 139.094C118.764 141.437 119.969 143.568 121.824 145.021L132.998 156.667C133.317 156.999 133.704 157.259 134.132 157.428C134.56 157.597 135.019 157.671 135.478 157.646C135.938 157.621 136.386 157.497 136.793 157.283C137.2 157.068 137.557 156.768 137.838 156.403L140.014 153.569L140.758 152.605L147.71 143.562C147.964 143.232 148.15 142.854 148.257 142.451C148.393 141.964 148.412 141.452 148.312 140.956Z" fill="#E6E67D"/>
<path d="M128.017 116.971C134.837 110.126 134.837 99.0284 128.017 92.1836C121.197 85.3387 110.139 85.3387 103.318 92.1836C96.4978 99.0284 96.4978 110.126 103.318 116.971C110.139 123.816 121.197 123.816 128.017 116.971Z" fill="#FFB8B8"/>
<path d="M137.75 170.918C138.451 169.866 142.91 162.761 141.223 154.434C141.099 153.817 140.944 153.206 140.757 152.605C139.962 150.098 138.693 147.769 137.018 145.746C137.039 145.188 137.033 144.639 137 144.093V144.09C136.754 140.296 135.15 136.719 132.484 134.018C129.818 131.316 126.269 129.673 122.491 129.389L102.958 127.9C100.444 127.694 97.918 128.104 95.5969 129.096C93.2759 130.087 91.2297 131.63 89.6343 133.591C89.2669 134.037 88.9229 134.503 88.6035 134.986C88.6032 134.986 88.6028 134.986 88.6024 134.986C88.602 134.986 88.6017 134.987 88.6014 134.987C88.6011 134.987 88.6009 134.987 88.6008 134.988C88.6006 134.988 88.6006 134.989 88.6006 134.989C87.369 136.854 86.5518 138.964 86.2044 141.174C85.857 143.385 85.9877 145.644 86.5874 147.8L86.7538 148.534L88.8363 157.698L92.3185 173.033L95.2324 185.865L95.5407 187.218C95.7033 187.926 96.1 188.559 96.6665 189.012C97.2329 189.465 97.9356 189.713 98.6601 189.714C98.8343 189.715 99.0083 189.701 99.1801 189.672L136.976 183.453C137.509 183.367 138.012 183.146 138.436 182.81C138.691 182.606 138.914 182.366 139.098 182.097C139.344 181.739 139.515 181.335 139.599 180.909C139.683 180.482 139.679 180.043 139.588 179.618L137.75 170.918Z" fill="#E6E67D"/>
<path d="M63.3664 222.677C62.7254 221.759 62.2926 220.711 62.0986 219.608C61.9046 218.504 61.9541 217.371 62.2436 216.289C62.533 215.206 63.0555 214.201 63.7741 213.343C64.4928 212.485 65.3901 211.796 66.4029 211.323L87.9225 144.923L100.394 150.862L76.8477 215.515C77.5253 217.275 77.5361 219.224 76.8779 220.991C76.2198 222.759 74.9384 224.222 73.2767 225.105C71.615 225.988 69.6883 226.228 67.8618 225.781C66.0352 225.333 64.4358 224.229 63.3664 222.677V222.677Z" fill="#FFB8B8"/>
<path d="M100.247 129.237C97.9418 128.541 95.4593 128.747 93.2991 129.814C91.1388 130.88 89.4612 132.728 88.6037 134.986C88.6033 134.986 88.6029 134.986 88.6026 134.986C88.6022 134.986 88.6019 134.986 88.6016 134.987C88.6013 134.987 88.6011 134.987 88.601 134.988C88.6008 134.988 88.6008 134.989 88.6008 134.989C88.5221 135.192 88.4496 135.404 88.3862 135.617L86.5634 139.497L81.0561 151.221C80.8456 151.668 80.7336 152.155 80.7278 152.649C80.722 153.143 80.8225 153.633 81.0225 154.085C81.2225 154.536 81.5173 154.939 81.8867 155.266C82.256 155.593 82.6913 155.836 83.1628 155.978L84.236 156.303L88.8365 157.698L97.0009 160.173L99.7213 160.998C100.193 161.141 100.689 161.181 101.177 161.114C101.665 161.047 102.132 160.875 102.548 160.61C102.964 160.345 103.318 159.993 103.586 159.579C103.854 159.164 104.03 158.697 104.101 158.208L106.616 141.086C107.331 138.667 107.062 136.063 105.868 133.843C104.675 131.622 102.654 129.966 100.247 129.237Z" fill="#E6E67D"/>
<path d="M131.705 98.2036C125.481 103.667 115.928 104.936 108.503 101.284C111.838 105.255 118.172 124.857 118.172 124.857C118.172 124.857 100.287 122.971 97.7603 122.429C82.8355 119.226 88.2605 80.4347 104.164 80.6306C106.857 80.6637 109.212 80.9906 111.005 83.0083C112.195 79.6608 115.978 77.689 119.511 77.9442C123.043 78.1995 126.237 80.3287 128.51 83.0547C130.323 85.2617 131.632 87.841 132.344 90.6107C133.056 93.3805 133.154 96.2733 132.631 99.0852L131.705 98.2036Z" fill="#2F2E41"/>
<path d="M198.065 116.083C176.637 115.698 176.64 83.7381 198.066 83.3556C219.494 83.7412 219.49 115.701 198.065 116.083ZM198.065 84.3473C177.935 84.7097 177.938 114.732 198.066 115.091C218.195 114.729 218.192 84.7067 198.065 84.3473Z" fill="#E6E6E6"/>
<path d="M240.338 164.445C218.909 164.06 218.912 132.1 240.338 131.718C261.766 132.103 261.763 164.063 240.338 164.445ZM240.338 132.709C220.208 133.072 220.211 163.094 240.338 163.454C260.468 163.091 260.465 133.069 240.338 132.709V132.709Z" fill="#E6E6E6"/>
<path d="M242.072 43.7044C238.052 43.8203 230.235 42.3783 230.231 48.5981C230.347 52.6321 228.91 60.4772 235.107 60.4812C239.127 60.3655 246.944 61.8075 246.948 55.5877C246.833 51.5536 248.27 43.7086 242.072 43.7044Z" fill="#3F3D56"/>
<path d="M243.118 48.5977C241.765 48.6147 241.77 46.482 243.122 46.5051C244.475 46.4883 244.47 48.6205 243.118 48.5977Z" fill="white"/>
<path d="M238.59 49.2965C242.205 49.2432 242.205 54.9428 238.59 54.8891C234.975 54.9418 234.975 49.2433 238.59 49.2965ZM238.59 47.8986C233.168 47.8191 233.167 56.3672 238.591 56.2871C244.013 56.3666 244.012 47.8184 238.59 47.8986V47.8986Z" fill="white"/>
<path d="M210.902 150.841C210.805 150.843 210.708 150.817 210.626 150.765C210.543 150.713 210.478 150.637 210.438 150.548C210.398 150.459 210.385 150.359 210.402 150.263C210.418 150.166 210.463 150.077 210.53 150.005L212.175 148.261C212.226 148.206 212.254 148.133 212.252 148.058C212.25 147.983 212.218 147.911 212.164 147.859L210.416 146.2C210.368 146.154 210.329 146.099 210.302 146.038C210.275 145.977 210.26 145.911 210.258 145.844C210.256 145.778 210.267 145.711 210.291 145.649C210.315 145.586 210.351 145.529 210.397 145.481C210.489 145.383 210.615 145.327 210.749 145.323C210.883 145.318 211.013 145.367 211.11 145.459L213.462 147.664C213.508 147.707 213.545 147.759 213.571 147.817C213.597 147.875 213.612 147.938 213.613 148.002C213.615 148.065 213.604 148.129 213.581 148.188C213.559 148.247 213.524 148.302 213.48 148.348L211.245 150.689C211.155 150.783 211.032 150.837 210.902 150.841V150.841Z" fill="#CCCCCC"/>
<path d="M209.106 148.302C209.052 148.351 208.983 148.38 208.91 148.382L203.428 148.533C203.388 148.535 203.349 148.528 203.312 148.514C203.275 148.499 203.241 148.478 203.212 148.451C203.183 148.423 203.16 148.39 203.144 148.354C203.127 148.318 203.118 148.278 203.117 148.239C203.116 148.199 203.123 148.159 203.137 148.122C203.151 148.085 203.173 148.051 203.2 148.022C203.227 147.993 203.26 147.969 203.296 147.953C203.333 147.937 203.372 147.928 203.411 147.927L208.893 147.775C208.955 147.774 209.015 147.791 209.067 147.825C209.118 147.858 209.158 147.907 209.181 147.964C209.205 148.022 209.21 148.085 209.196 148.145C209.183 148.205 209.151 148.26 209.106 148.302V148.302Z" fill="#CCCCCC"/>
<path d="M168.585 102.478C168.487 102.481 168.391 102.455 168.308 102.403C168.226 102.351 168.16 102.275 168.12 102.186C168.08 102.096 168.068 101.997 168.084 101.9C168.101 101.804 168.145 101.714 168.213 101.643L169.858 99.8989C169.909 99.8441 169.937 99.7711 169.935 99.6958C169.933 99.6205 169.901 99.5491 169.846 99.4973L168.099 97.8374C168.051 97.7915 168.012 97.7365 167.985 97.6756C167.957 97.6146 167.942 97.5489 167.941 97.4821C167.939 97.4153 167.95 97.3489 167.974 97.2865C167.998 97.2241 168.033 97.1671 168.079 97.1186C168.171 97.0213 168.298 96.9644 168.432 96.9603C168.565 96.9562 168.695 97.0052 168.793 97.0965L171.144 99.3015C171.191 99.3449 171.228 99.3972 171.254 99.4552C171.28 99.5133 171.294 99.5759 171.296 99.6395C171.298 99.7032 171.287 99.7665 171.264 99.8259C171.241 99.8853 171.207 99.9395 171.163 99.9855L168.927 102.326C168.838 102.421 168.714 102.475 168.585 102.478V102.478Z" fill="#CCCCCC"/>
<path d="M166.788 99.9397C166.734 99.9893 166.664 100.018 166.591 100.02L161.11 100.171C161.07 100.172 161.031 100.166 160.993 100.151C160.956 100.137 160.922 100.116 160.893 100.089C160.865 100.061 160.841 100.028 160.825 99.9919C160.809 99.9555 160.8 99.9163 160.799 99.8764C160.798 99.8366 160.805 99.7969 160.819 99.7597C160.833 99.7225 160.854 99.6884 160.882 99.6595C160.909 99.6305 160.942 99.6073 160.978 99.5911C161.014 99.5748 161.053 99.5659 161.093 99.5649L166.575 99.4132C166.636 99.4115 166.697 99.4287 166.748 99.4625C166.8 99.4963 166.84 99.5451 166.863 99.6023C166.886 99.6596 166.892 99.7225 166.878 99.7828C166.865 99.8431 166.833 99.8978 166.788 99.9397V99.9397Z" fill="#CCCCCC"/>
<path d="M209.089 54.8519C208.991 54.8547 208.895 54.8284 208.812 54.7763C208.729 54.7242 208.664 54.6487 208.624 54.5592C208.584 54.4698 208.572 54.3705 208.588 54.2739C208.605 54.1773 208.649 54.0878 208.717 54.0167L210.361 52.2723C210.413 52.2176 210.441 52.1445 210.439 52.0692C210.437 51.9939 210.405 51.9225 210.35 51.8707L208.603 50.2109C208.554 50.165 208.516 50.11 208.488 50.049C208.461 49.988 208.446 49.9223 208.445 49.8555C208.443 49.7888 208.454 49.7223 208.478 49.6599C208.502 49.5976 208.537 49.5405 208.583 49.492V49.492C208.675 49.3947 208.802 49.3379 208.936 49.3337C209.069 49.3296 209.199 49.3786 209.297 49.47L211.648 51.6749C211.694 51.7183 211.732 51.7706 211.758 51.8286C211.784 51.8867 211.798 51.9493 211.8 52.013C211.802 52.0766 211.791 52.1399 211.768 52.1993C211.745 52.2587 211.711 52.313 211.667 52.3589L209.431 54.6999C209.342 54.794 209.218 54.8486 209.089 54.8519V54.8519Z" fill="#CCCCCC"/>
<path d="M207.293 52.3131C207.239 52.3628 207.169 52.3912 207.096 52.3931L201.615 52.5447C201.575 52.5459 201.535 52.5392 201.498 52.525C201.461 52.5108 201.427 52.4894 201.398 52.462C201.369 52.4346 201.346 52.4018 201.33 52.3654C201.314 52.329 201.305 52.2898 201.304 52.2499C201.303 52.2101 201.309 52.1704 201.324 52.1332C201.338 52.0959 201.359 52.0619 201.387 52.0329C201.414 52.004 201.447 51.9808 201.483 51.9645C201.519 51.9483 201.558 51.9394 201.598 51.9384L207.08 51.7867C207.141 51.785 207.202 51.8022 207.253 51.836C207.305 51.8697 207.345 51.9185 207.368 51.9758C207.391 52.033 207.396 52.096 207.383 52.1563C207.369 52.2166 207.338 52.2713 207.293 52.3131V52.3131Z" fill="#CCCCCC"/>
<path d="M203.475 209.459C202.058 212.414 199.748 214.805 197.143 216.825C188.628 218.662 179.977 219.796 171.277 220.216C170.854 220.238 170.431 220.259 170.005 220.274C167.741 220.368 165.46 220.416 163.161 220.417C159.166 220.417 155.217 220.274 151.316 219.989C151.167 219.088 151.147 218.171 151.255 217.265C151.687 213.719 154.368 210.46 157.848 209.708C161.327 208.956 165.292 211.04 166.347 214.45C166.931 207.873 167.599 201.023 171.084 195.423C174.237 190.354 179.699 186.726 185.62 186.077C189.1 185.713 192.611 186.359 195.737 187.936C196.024 188.082 196.309 188.234 196.59 188.391C198.466 189.459 200.121 190.876 201.465 192.569C205.159 197.258 206.063 204.078 203.475 209.459Z" fill="white"/>
<path d="M196.591 188.391C196.598 188.471 196.584 188.551 196.552 188.624C196.519 188.697 196.468 188.76 196.403 188.807C185.912 197.379 177.349 208.083 171.278 220.216C170.855 220.238 170.432 220.259 170.006 220.274C170.544 219.179 171.102 218.095 171.68 217.022C174.685 211.467 178.218 206.218 182.233 201.348C186.246 196.474 190.727 192.009 195.611 188.015C195.65 187.984 195.693 187.957 195.738 187.936C195.823 187.9 195.916 187.883 196.008 187.887C196.101 187.891 196.191 187.915 196.273 187.959C196.355 188.003 196.426 188.064 196.481 188.139C196.536 188.214 196.573 188.3 196.591 188.391V188.391Z" fill="#F2F2F2"/>
<path d="M249.191 143.953C249.191 143.953 247.807 145.509 247.541 145.609C246.809 153.597 241.84 155.411 237.85 155.411C234.981 155.411 232.618 154.473 232.696 154.216C236.952 154.316 237.315 152.562 237.315 152.562C234.842 152.195 234.347 150.575 234.347 150.575C234.568 150.693 234.825 150.724 235.069 150.663C235.312 150.602 235.524 150.453 235.664 150.245C232.995 149.547 233.358 146.932 233.358 146.932C233.834 147.277 234.389 147.494 234.972 147.563C234.676 147.199 232.179 144.196 233.682 142.64C233.769 142.876 236.369 146.428 240.712 146.171C240.609 145.663 240.62 145.14 240.742 144.637C240.865 144.134 241.097 143.665 241.422 143.263C241.747 142.861 242.156 142.536 242.621 142.312C243.086 142.088 243.594 141.97 244.11 141.966C246.419 141.966 246.915 143.292 246.915 143.292L248.566 142.297C248.532 142.297 248.366 143.953 247.541 144.284L249.191 143.953Z" fill="#3F3D56"/>
<path fill-rule="evenodd" clip-rule="evenodd" d="M207.05 99.7725C207.051 101.938 206.281 104.032 204.881 105.678C203.48 107.325 201.54 108.416 199.409 108.755V102.403H201.519L201.921 99.7725H199.409C199.324 97.5823 199.24 96.3537 202.027 96.648V94.4123C197.852 93.4901 196.111 95.6135 196.58 99.7725H194.28V102.403H196.58V108.752C185.752 107.08 187.025 90.6416 197.991 90.684C199.181 90.6838 200.359 90.9187 201.458 91.3753C202.557 91.8319 203.555 92.5013 204.397 93.3453C205.238 94.1893 205.905 95.1912 206.36 96.294C206.816 97.3968 207.05 98.5788 207.05 99.7725V99.7725Z" fill="#3F3D56"/>
</g>
<defs>
<clipPath id="clip0_208_7041">
<rect width="226" height="197" fill="white" transform="translate(62 29)"/>
</clipPath>
</defs>
</svg>
