<svg width="32" height="32" viewBox="0 0 32 32" fill="none" xmlns="http://www.w3.org/2000/svg">
<path d="M22.6665 2.66675H9.33317C5.65127 2.66675 2.6665 5.65152 2.6665 9.33342V22.6667C2.6665 26.3486 5.65127 29.3334 9.33317 29.3334H22.6665C26.3484 29.3334 29.3332 26.3486 29.3332 22.6667V9.33342C29.3332 5.65152 26.3484 2.66675 22.6665 2.66675Z" fill="white"/>
<path d="M21.3331 15.1599C21.4977 16.2696 21.3081 17.4029 20.7915 18.3986C20.2748 19.3943 19.4573 20.2018 18.4553 20.7061C17.4532 21.2105 16.3177 21.386 15.2102 21.2078C14.1026 21.0296 13.0795 20.5067 12.2862 19.7135C11.493 18.9202 10.9701 17.8971 10.7919 16.7895C10.6136 15.682 10.7892 14.5464 11.2935 13.5444C11.7979 12.5424 12.6054 11.7249 13.6011 11.2082C14.5968 10.6916 15.7301 10.502 16.8398 10.6666C17.9717 10.8344 19.0196 11.3619 19.8287 12.171C20.6378 12.9801 21.1653 14.028 21.3331 15.1599Z" fill="#363A44"/>
<path d="M23.3335 8.66675H23.3468" stroke="#363A44" stroke-width="2" stroke-linecap="round" stroke-linejoin="round"/>
</svg>
