<svg width="32" height="32" viewBox="0 0 32 32" fill="none" xmlns="http://www.w3.org/2000/svg">
<path d="M21.3335 10.6667C23.4552 10.6667 25.4901 11.5096 26.9904 13.0099C28.4906 14.5102 29.3335 16.545 29.3335 18.6667V28.0001H24.0002V18.6667C24.0002 17.9595 23.7192 17.2812 23.2191 16.7811C22.719 16.281 22.0407 16.0001 21.3335 16.0001C20.6263 16.0001 19.948 16.281 19.4479 16.7811C18.9478 17.2812 18.6668 17.9595 18.6668 18.6667V28.0001H13.3335V18.6667C13.3335 16.545 14.1764 14.5102 15.6766 13.0099C17.1769 11.5096 19.2118 10.6667 21.3335 10.6667V10.6667Z" fill="white"/>
<path d="M7.99984 12H2.6665V28H7.99984V12Z" fill="white"/>
<path d="M5.33317 8.00008C6.80593 8.00008 7.99984 6.80617 7.99984 5.33341C7.99984 3.86066 6.80593 2.66675 5.33317 2.66675C3.86041 2.66675 2.6665 3.86066 2.6665 5.33341C2.6665 6.80617 3.86041 8.00008 5.33317 8.00008Z" fill="white"/>
</svg>
